<?xml version="1.0" encoding="UTF-8" standalone="no"?>
<!-- Created with Inkscape (http://www.inkscape.org/) -->

<svg
   xmlns:dc="http://purl.org/dc/elements/1.1/"
   xmlns:cc="http://creativecommons.org/ns#"
   xmlns:rdf="http://www.w3.org/1999/02/22-rdf-syntax-ns#"
   xmlns:svg="http://www.w3.org/2000/svg"
   xmlns="http://www.w3.org/2000/svg"
   xmlns:sodipodi="http://sodipodi.sourceforge.net/DTD/sodipodi-0.dtd"
   xmlns:inkscape="http://www.inkscape.org/namespaces/inkscape"
   width="744.09448819"
   height="1052.3622047"
   id="svg3850"
   version="1.1"
   inkscape:version="0.47 r22583"
   sodipodi:docname="shirt_poster.svg">
  <defs
     id="defs3852">
    <inkscape:perspective
       sodipodi:type="inkscape:persp3d"
       inkscape:vp_x="0 : 526.18109 : 1"
       inkscape:vp_y="0 : 1000 : 0"
       inkscape:vp_z="744.09448 : 526.18109 : 1"
       inkscape:persp3d-origin="372.04724 : 350.78739 : 1"
       id="perspective3858" />
    <inkscape:perspective
       id="perspective3877"
       inkscape:persp3d-origin="0.5 : 0.33333333 : 1"
       inkscape:vp_z="1 : 0.5 : 1"
       inkscape:vp_y="0 : 1000 : 0"
       inkscape:vp_x="0 : 0.5 : 1"
       sodipodi:type="inkscape:persp3d" />
    <inkscape:perspective
       id="perspective3877-1"
       inkscape:persp3d-origin="0.5 : 0.33333333 : 1"
       inkscape:vp_z="1 : 0.5 : 1"
       inkscape:vp_y="0 : 1000 : 0"
       inkscape:vp_x="0 : 0.5 : 1"
       sodipodi:type="inkscape:persp3d" />
    <inkscape:perspective
       id="perspective11109"
       inkscape:persp3d-origin="0.5 : 0.33333333 : 1"
       inkscape:vp_z="1 : 0.5 : 1"
       inkscape:vp_y="0 : 1000 : 0"
       inkscape:vp_x="0 : 0.5 : 1"
       sodipodi:type="inkscape:persp3d" />
    <inkscape:perspective
       id="perspective11170"
       inkscape:persp3d-origin="0.5 : 0.33333333 : 1"
       inkscape:vp_z="1 : 0.5 : 1"
       inkscape:vp_y="0 : 1000 : 0"
       inkscape:vp_x="0 : 0.5 : 1"
       sodipodi:type="inkscape:persp3d" />
    <inkscape:perspective
       id="perspective11194"
       inkscape:persp3d-origin="0.5 : 0.33333333 : 1"
       inkscape:vp_z="1 : 0.5 : 1"
       inkscape:vp_y="0 : 1000 : 0"
       inkscape:vp_x="0 : 0.5 : 1"
       sodipodi:type="inkscape:persp3d" />
  </defs>
  <sodipodi:namedview
     id="base"
     pagecolor="#ffffff"
     bordercolor="#666666"
     borderopacity="1.0"
     inkscape:pageopacity="0.0"
     inkscape:pageshadow="2"
     inkscape:zoom="0.35"
     inkscape:cx="402.5"
     inkscape:cy="457.94723"
     inkscape:document-units="px"
     inkscape:current-layer="layer1"
     showgrid="true"
     inkscape:window-width="1297"
     inkscape:window-height="772"
     inkscape:window-x="25"
     inkscape:window-y="25"
     inkscape:window-maximized="0">
    <inkscape:grid
       type="xygrid"
       id="grid3972" />
  </sodipodi:namedview>
  <metadata
     id="metadata3855">
    <rdf:RDF>
      <cc:Work
         rdf:about="">
        <dc:format>image/svg+xml</dc:format>
        <dc:type
           rdf:resource="http://purl.org/dc/dcmitype/StillImage" />
        <dc:title></dc:title>
      </cc:Work>
    </rdf:RDF>
  </metadata>
  <g
     inkscape:label="Layer 1"
     inkscape:groupmode="layer"
     id="layer1">
    <g
       id="g11226"
       inkscape:export-filename="C:\Users\Andrew\My Dropbox\Law School\LawLag\www\images\tb_on_a_shirt.png"
       inkscape:export-xdpi="90"
       inkscape:export-ydpi="90">
      <path
         inkscape:export-ydpi="300"
         inkscape:export-xdpi="300"
         inkscape:export-filename="C:\Users\Andrew\My Dropbox\Law School\LawLag\www\images\tb_on_a_shirt.png"
         id="path10973-6"
         d="M -198.25683,390.09308 -61.46465,579.00549 124,402.36218 182.61182,1079.8316 700.67656,1035.0108 642.06476,357.54138 855.11146,499.70715 957.42606,290.10821 611.03496,-1.1188404 451.63043,12.67218 378.82367,99.26996 292.22589,26.4632 132.82135,40.25421 -198.25683,390.09308 z"
         style="fill:#e6e6e6;fill-opacity:1;stroke:none" />
      <path
         inkscape:export-ydpi="300"
         inkscape:export-xdpi="300"
         inkscape:export-filename="C:\Users\Andrew\My Dropbox\Law School\LawLag\www\images\tb_on_a_shirt.png"
         id="path10973"
         d="M -223.03299,376.91784 -86.240815,565.83025 99.223843,389.18694 157.83566,1066.6563 675.90042,1021.8355 617.2886,344.36614 830.3353,486.53191 932.64993,276.93297 586.25882,-14.294079 426.85427,-0.50306261 354.04751,86.094717 267.44973,13.287954 108.04519,27.07897 -223.03299,376.91784 z"
         style="fill:#ffffff;fill-opacity:1;stroke:#000000;stroke-width:5;stroke-miterlimit:4;stroke-opacity:1;stroke-dasharray:none" />
      <g
         inkscape:export-ydpi="300"
         inkscape:export-xdpi="300"
         inkscape:export-filename="C:\Users\Andrew\My Dropbox\Law School\LawLag\www\images\tb_on_a_shirt.png"
         id="g5266"
         style="display:inline"
         transform="matrix(0.84264453,-0.07290209,0.07290209,0.84264453,-449.94298,175.46204)">
        <path
           style="fill:#1a1a1a;fill-opacity:1;fill-rule:evenodd;stroke:none;display:inline"
           d="m 1145,735 c -20,0 -90,50 -90,50 l -5,95 40,-30 55,-115 z"
           id="path3204"
           sodipodi:nodetypes="ccccc" />
        <path
           style="fill:#1a1a1a;fill-opacity:1;fill-rule:evenodd;stroke:none;display:inline"
           d="m 1020,520 90,-80 -70,-80 -20,-40 -20,-20 -120,0 20,-60 -20,-200 -100,200 40,80 -20,40 -70,70 90,90 0,40 -100,100 100,-20 0,140 -80,160 120,-20 180,-140"
           id="path3314"
           sodipodi:nodetypes="cccccccccccccccccccc"
           inkscape:export-filename="C:\Users\Andrew\Desktop\rabbits.png"
           inkscape:export-xdpi="90"
           inkscape:export-ydpi="90" />
        <path
           style="fill:#1a1a1a;fill-opacity:1;fill-rule:evenodd;stroke:none;display:inline"
           d="m 980,320 -40,-80 100,-200 20,200 -40,80"
           id="path3316"
           sodipodi:nodetypes="ccccc"
           inkscape:export-filename="C:\Users\Andrew\Desktop\rabbits.png"
           inkscape:export-xdpi="90"
           inkscape:export-ydpi="90" />
        <path
           style="fill:#f9f9f9;fill-opacity:1;fill-rule:evenodd;stroke:none;display:inline"
           d="m 842.23159,519.97698 c 0,0 -19.75461,34.30127 -19.75461,39.75461 0,60.98927 0,218.65031 0,218.65031 L 860,890 l 100,10 40,-120 0,-220 -35,-35 -122.76841,-5.02302 z"
           id="path3318"
           sodipodi:nodetypes="csccccccc"
           inkscape:export-filename="C:\Users\Andrew\Desktop\rabbits.png"
           inkscape:export-xdpi="90"
           inkscape:export-ydpi="90" />
        <path
           style="fill:#1a1a1a;fill-opacity:1;fill-rule:evenodd;stroke:none;display:inline"
           d="m 1000,560 -100,100 100,-20 0,140 -80,175 140,-40 30,-45 0,-275 -70,-75"
           id="path3320"
           sodipodi:nodetypes="ccccccccc"
           inkscape:export-filename="C:\Users\Andrew\Desktop\rabbits.png"
           inkscape:export-xdpi="90"
           inkscape:export-ydpi="90" />
        <g
           id="g3307"
           style="stroke:#ffffff;stroke-width:2.5;stroke-linejoin:round;stroke-miterlimit:4;stroke-opacity:1;stroke-dasharray:none;display:inline"
           transform="translate(-4.1e-5,2)">
          <path
             sodipodi:nodetypes="cs"
             id="path3295"
             d="m 855,350 c 0,0 8,-20 -2,-30"
             style="fill:none;stroke:#ffffff;stroke-width:2.5;stroke-linecap:butt;stroke-linejoin:round;stroke-miterlimit:4;stroke-opacity:1;stroke-dasharray:none" />
          <path
             sodipodi:nodetypes="cs"
             id="path3301"
             d="m 855,350 c 0,0 0,-17 -10,-27"
             style="fill:none;stroke:#ffffff;stroke-width:2.5;stroke-linecap:butt;stroke-linejoin:round;stroke-miterlimit:4;stroke-opacity:1;stroke-dasharray:none" />
          <path
             sodipodi:nodetypes="cs"
             id="path3303"
             d="m 840,328 c 0,0 10,7 15,22"
             style="fill:none;stroke:#ffffff;stroke-width:2.5;stroke-linecap:butt;stroke-linejoin:round;stroke-miterlimit:4;stroke-opacity:1;stroke-dasharray:none" />
          <path
             sodipodi:nodetypes="cs"
             id="path3305"
             d="m 837,336 c 0,0 8,-1 18,14"
             style="fill:none;stroke:#ffffff;stroke-width:2.5;stroke-linecap:butt;stroke-linejoin:round;stroke-miterlimit:4;stroke-opacity:1;stroke-dasharray:none" />
        </g>
        <path
           style="fill:#f5f5f5;fill-opacity:1;fill-rule:evenodd;stroke:none;display:inline"
           d="m 900,460 0,-20 0,20 -40,0 40,40 40,-40 -40,0 z"
           id="path3341"
           inkscape:export-filename="C:\Users\Andrew\Desktop\rabbits.png"
           inkscape:export-xdpi="90"
           inkscape:export-ydpi="90"
           sodipodi:nodetypes="csccccc" />
        <path
           style="fill:#ffaaaa;fill-opacity:1;fill-rule:evenodd;stroke:none;display:inline"
           d="m 880,415 20,25 20,-25 -40,0 z"
           id="path3339"
           sodipodi:nodetypes="cccc"
           inkscape:export-filename="C:\Users\Andrew\Desktop\rabbits.png"
           inkscape:export-xdpi="90"
           inkscape:export-ydpi="90" />
        <g
           id="g3313"
           style="stroke:#ffffff;stroke-width:2.5;stroke-linejoin:round;stroke-miterlimit:4;stroke-opacity:1;stroke-dasharray:none;display:inline"
           transform="matrix(-1,0,0,1,1802,2)">
          <path
             sodipodi:nodetypes="cs"
             id="path3315"
             d="m 855,350 c 0,0 8,-20 -2,-30"
             style="fill:none;stroke:#ffffff;stroke-width:2.5;stroke-linecap:butt;stroke-linejoin:round;stroke-miterlimit:4;stroke-opacity:1;stroke-dasharray:none" />
          <path
             sodipodi:nodetypes="cs"
             id="path3317"
             d="m 855,350 c 0,0 0,-17 -10,-27"
             style="fill:none;stroke:#ffffff;stroke-width:2.5;stroke-linecap:butt;stroke-linejoin:round;stroke-miterlimit:4;stroke-opacity:1;stroke-dasharray:none" />
          <path
             sodipodi:nodetypes="cs"
             id="path3319"
             d="m 840,328 c 0,0 10,7 15,22"
             style="fill:none;stroke:#ffffff;stroke-width:2.5;stroke-linecap:butt;stroke-linejoin:round;stroke-miterlimit:4;stroke-opacity:1;stroke-dasharray:none" />
          <path
             sodipodi:nodetypes="cs"
             id="path3321"
             d="m 837,336 c 0,0 8,-1 18,14"
             style="fill:none;stroke:#ffffff;stroke-width:2.5;stroke-linecap:butt;stroke-linejoin:round;stroke-miterlimit:4;stroke-opacity:1;stroke-dasharray:none" />
        </g>
        <path
           id="path5430"
           style="fill:none;stroke:#000000;stroke-width:5;stroke-linecap:butt;stroke-linejoin:miter;stroke-miterlimit:4;stroke-opacity:1;stroke-dasharray:none;display:inline"
           d="m 980,320 -40,-80 100,-200 20,200 -40,80 20,40 70,80 -90,80 70,75 0,275 -30,45 -140,40 80,-175 0,-140 -100,20 100,-100 -35,-35 -122.76841,-5.02302 c 0,0 -22.25461,35.3727 -22.25461,40.82604 0,60.98927 0,219.72174 0,219.72174 L 860,890 945.91033,898.32116 1000,780 M 969.73705,299.47411 880,300 900,240 880,40 780,240 l 40,80 -20,40 -70,70 90,90 0,40 -100,100 100,-20 0,140 -80,160 120,-20 34.63766,-26.64504"
           sodipodi:nodetypes="ccccccccccccccccccscccccccccccccccccccc" />
        <path
           style="fill:none;stroke:#000000;stroke-width:5;stroke-linecap:butt;stroke-linejoin:miter;stroke-miterlimit:4;stroke-opacity:1;stroke-dasharray:none;display:inline"
           d="m 1145,735 c -20,0 -55,24.74619 -55,24.74619 L 1090,850 1145,735 z"
           id="path5428"
           sodipodi:nodetypes="cccc" />
        <path
           style="fill:#ffffff;fill-opacity:1;fill-rule:evenodd;stroke:#000000;stroke-width:5;stroke-linecap:butt;stroke-linejoin:miter;stroke-miterlimit:4;stroke-opacity:1;stroke-dasharray:none;display:inline"
           d="m 900,460 0,-20 0,20 -40,0 40,40 40,-40 -40,0 z"
           id="path5440"
           inkscape:export-filename="C:\Users\Andrew\Desktop\rabbits.png"
           inkscape:export-xdpi="90"
           inkscape:export-ydpi="90"
           sodipodi:nodetypes="csccccc" />
        <g
           style="display:inline"
           id="g3348"
           transform="matrix(1.2011058,0.07493319,-0.07322297,1.2291593,-153.46727,-142.93514)">
          <path
             id="path3282"
             d="m 849.15015,287.46633 c 0,0 -8.89918,21.5735 -3.81164,27.64843 5.08755,6.07494 101.35329,-34.75358 109.51772,-31.79266 8.16443,2.96091 16.79325,29.91481 6.31041,30.45145 -3.28583,0.16821 -40.85299,-8.78221 -57.75224,-15.18588 -37.01469,-14.02608 -65.16365,-29.99143 -54.26425,-11.12134 z"
             style="fill:#ffaaaa;fill-rule:evenodd;stroke:#000000;stroke-width:4.10742617;stroke-linecap:butt;stroke-linejoin:round;stroke-miterlimit:4;stroke-opacity:1;stroke-dasharray:none;display:inline"
             sodipodi:nodetypes="cssssc" />
          <path
             transform="matrix(0.6988555,-0.03577582,0.05962738,0.4193062,501.01555,220.39395)"
             d="m 586.66634,234.06189 c 0,15.83551 -14.62828,28.67273 -32.67318,28.67273 -18.04489,0 -32.67318,-12.83722 -32.67318,-28.67273 0,-15.83551 14.62829,-28.67273 32.67318,-28.67273 18.0449,0 32.67318,12.83722 32.67318,28.67273 z"
             sodipodi:ry="28.672729"
             sodipodi:rx="32.67318"
             sodipodi:cy="234.06189"
             sodipodi:cx="553.99316"
             id="path3284"
             style="fill:#ffaaaa;fill-opacity:1;stroke:#000000;stroke-width:7.56023645;stroke-linejoin:round;stroke-miterlimit:4;stroke-opacity:1;stroke-dasharray:none;display:inline"
             sodipodi:type="arc" />
        </g>
        <path
           style="fill:#1a1a1a;fill-opacity:1;fill-rule:evenodd;stroke:none;display:inline"
           d="m 980.67767,318.7767 -40,-80 100.00003,-200.000001 20,200.000001 -64.04163,113.94113"
           id="path3352"
           sodipodi:nodetypes="ccccc"
           inkscape:export-filename="C:\Users\Andrew\Desktop\rabbits.png"
           inkscape:export-xdpi="90"
           inkscape:export-ydpi="90" />
        <path
           style="fill:none;stroke:#000000;stroke-width:5;stroke-linecap:butt;stroke-linejoin:miter;stroke-miterlimit:4;stroke-opacity:1;stroke-dasharray:none;display:inline"
           d="m 1020.5364,321.07277 40.1413,-82.29607 -20,-200.000001 L 940,240 l 40,80"
           id="path3356"
           sodipodi:nodetypes="ccccc" />
        <path
           sodipodi:type="arc"
           style="fill:#ffffff;fill-opacity:1;stroke:none"
           id="path16101"
           sodipodi:cx="855"
           sodipodi:cy="360"
           sodipodi:rx="15"
           sodipodi:ry="30"
           d="m 867.621,376.21239 c -4.47693,13.94077 -13.75681,17.98346 -20.7272,9.02961 -6.97038,-8.95386 -8.99173,-27.51362 -4.5148,-41.45439 4.47693,-13.94077 13.75681,-17.98346 20.7272,-9.02961 2.55302,3.27951 4.54873,8.03043 5.72364,13.62554 L 855,360 z"
           sodipodi:start="0.570928"
           sodipodi:end="5.8855759"
           transform="matrix(-1,0,0,1,1708.8298,1.6164605)" />
        <path
           sodipodi:type="arc"
           style="fill:#ffffff;fill-opacity:1;stroke:none;display:inline"
           id="path16101-1"
           sodipodi:cx="855"
           sodipodi:cy="360"
           sodipodi:rx="15"
           sodipodi:ry="30"
           d="m 867.621,376.21239 c -4.47693,13.94077 -13.75681,17.98346 -20.7272,9.02961 -6.97038,-8.95386 -8.99173,-27.51362 -4.5148,-41.45439 4.47693,-13.94077 13.75681,-17.98346 20.7272,-9.02961 2.55302,3.27951 4.54873,8.03043 5.72364,13.62554 L 855,360 z"
           sodipodi:start="0.570928"
           sodipodi:end="5.8855759"
           transform="matrix(-1,0,0,1,1798.8298,1.6164605)" />
      </g>
    </g>
    <g
       id="g11208"
       transform="matrix(0.99679821,0.07995824,-0.07995824,0.99679821,545.81013,-59.83218)"
       inkscape:export-filename="C:\Users\Andrew\My Dropbox\Law School\LawLag\www\images\br_on_a_poster.png"
       inkscape:export-xdpi="90.017502"
       inkscape:export-ydpi="90.017502">
      <rect
         y="17.453125"
         x="538"
         height="1090.9091"
         width="750"
         id="rect11184-7"
         style="fill:#cccccc;fill-opacity:1;stroke:none" />
      <rect
         y="1.453125"
         x="520"
         height="1090.9091"
         width="750"
         id="rect11184"
         style="fill:#ffffff;fill-opacity:1;stroke:#000000;stroke-width:6" />
      <g
         id="g5866"
         style="display:inline"
         transform="matrix(-1,0,0,1,1820,52.362183)">
        <g
           id="g2424">
          <g
             style="stroke:none;display:inline"
             id="g23094">
            <path
               style="fill:#c87615;fill-opacity:1;fill-rule:evenodd;stroke:none"
               d="m 1130,730 c -20,0 -100,60 -100,60 l 0,100 40,-40 60,-120 z"
               id="path3204-6"
               sodipodi:nodetypes="ccccc" />
            <path
               style="fill:#c87615;fill-opacity:1;fill-rule:evenodd;stroke:none;display:inline"
               d="m 1020,520 80,-80 -60,-80 -20,-40 -20,-40 -110,0 10,-40 -20,-200 -100,200 40,80 -20,40 -60,70 80,90 0,40 -100,100 100,-20 0,140 -80,160 130,-40 150,-40"
               id="path3314-1"
               sodipodi:nodetypes="cccccccccccccccccccc"
               inkscape:export-filename="C:\Users\Andrew\Desktop\rabbits.png"
               inkscape:export-xdpi="90"
               inkscape:export-ydpi="90" />
            <path
               style="fill:#c87615;fill-opacity:1;fill-rule:evenodd;stroke:none;display:inline"
               d="m 970,300 -30,-60 100,-200 20,200 -40,80"
               id="path3316-8"
               sodipodi:nodetypes="ccccc"
               inkscape:export-filename="C:\Users\Andrew\Desktop\rabbits.png"
               inkscape:export-xdpi="90"
               inkscape:export-ydpi="90" />
            <path
               style="fill:#d38d5f;fill-opacity:1;fill-rule:evenodd;stroke:none;display:inline"
               d="m 840,520 c 0,0 -20,34.513 -20,40 0,61.36574 0,220 0,220 l 50,120 80,10 50,-110 0,-220 -30,-50 -130,-10 z"
               id="path3318-2"
               sodipodi:nodetypes="csccccccc"
               inkscape:export-filename="C:\Users\Andrew\Desktop\rabbits.png"
               inkscape:export-xdpi="90"
               inkscape:export-ydpi="90" />
            <path
               style="fill:#c87615;fill-opacity:1;fill-rule:evenodd;stroke:none;display:inline"
               d="m 1000,580 -90,90 90,-20 0,150 -80,160 150,-70 0,-290 -50,-80"
               id="path3320-1"
               sodipodi:nodetypes="cccccccc"
               inkscape:export-filename="C:\Users\Andrew\Desktop\rabbits.png"
               inkscape:export-xdpi="90"
               inkscape:export-ydpi="90" />
            <path
               sodipodi:type="arc"
               style="fill:#000000;fill-opacity:1;fill-rule:evenodd;stroke:none;display:inline"
               id="path3335"
               sodipodi:cx="230"
               sodipodi:cy="262.36218"
               sodipodi:rx="12"
               sodipodi:ry="30"
               d="m 242,262.36218 c 0,16.56855 -5.37258,30 -12,30 -6.62742,0 -12,-13.43145 -12,-30 0,-16.56854 5.37258,-30 12,-30 6.62742,0 12,13.43146 12,30 z"
               transform="matrix(0.8164868,0,0,1.0015947,662.45804,96.719429)"
               inkscape:export-filename="C:\Users\Andrew\Desktop\rabbits.png"
               inkscape:export-xdpi="90"
               inkscape:export-ydpi="90" />
            <path
               sodipodi:type="arc"
               style="fill:#000000;fill-opacity:1;fill-rule:evenodd;stroke:none;display:inline"
               id="path3337"
               sodipodi:cx="230"
               sodipodi:cy="262.36218"
               sodipodi:rx="12"
               sodipodi:ry="30"
               d="m 242,262.36218 c 0,16.56855 -5.37258,30 -12,30 -6.62742,0 -12,-13.43145 -12,-30 0,-16.56854 5.37258,-30 12,-30 6.62742,0 12,13.43146 12,30 z"
               transform="matrix(0.8164868,0,0,1.0015947,761.95804,97.719428)"
               inkscape:export-filename="C:\Users\Andrew\Desktop\rabbits.png"
               inkscape:export-xdpi="90"
               inkscape:export-ydpi="90" />
            <path
               style="fill:#000000;fill-opacity:1;fill-rule:evenodd;stroke:none"
               d="m 880,410 20,30 20,-30"
               id="path3339-1"
               sodipodi:nodetypes="ccc"
               inkscape:export-filename="C:\Users\Andrew\Desktop\rabbits.png"
               inkscape:export-xdpi="90"
               inkscape:export-ydpi="90" />
            <path
               style="fill:none;stroke:none"
               d="m 820,620 0,160 0,0"
               id="path3195"
               inkscape:export-filename="C:\Users\Andrew\Desktop\rabbits.png"
               inkscape:export-xdpi="90"
               inkscape:export-ydpi="90" />
          </g>
          <path
             sodipodi:nodetypes="ccccccccccccccccccccccccccccccccccccsccccccccccccc"
             d="m 1130,730 c -20,0 -60,35.71429 -60,35.71429 L 1070,850 1130,730 z M 960.12998,280 890,280 900,240 880,40 780,240 l 40,80 -20,40 -60,70 80,90 0,40 -100,100 100,-20 0,140 -80,160 130,-40 m 100,-600 -30,-60 100,-200 20,200 -40,80 20,40 60,80 -80,80 50,80 0,290 -150,70 80,-160 0,-150 -90,20 90,-90 -30,-50 -130,-10 c 0,0 -20,34.513 -20,40 0,61.36574 0,220 0,220 l 50,120 75,10 m -25,-500 -40,0 20,30 20,-30 z m -20,30 0,20 -40,20 40,-20 40,20 0,0"
             style="fill:none;stroke:#000000;stroke-width:5;stroke-linecap:butt;stroke-linejoin:miter;stroke-miterlimit:4;stroke-opacity:1;stroke-dasharray:none"
             id="path5408" />
        </g>
        <path
           inkscape:export-ydpi="90"
           inkscape:export-xdpi="90"
           inkscape:export-filename="C:\Users\Andrew\Desktop\rabbits.png"
           id="path3168-7"
           d="m 900,432 0,28 -40,20 40,20 40,-20 -40,-20 0,0"
           style="fill:#550000;fill-opacity:1;fill-rule:evenodd;stroke:#000000;stroke-width:5;stroke-linecap:butt;stroke-linejoin:miter;stroke-miterlimit:4;stroke-opacity:1;stroke-dasharray:none;display:inline"
           sodipodi:nodetypes="ccccccc" />
      </g>
    </g>
  </g>
</svg>
