<?xml version="1.0" encoding="UTF-8" standalone="no"?>
<!-- Created with Inkscape (http://www.inkscape.org/) -->

<svg
   xmlns:dc="http://purl.org/dc/elements/1.1/"
   xmlns:cc="http://creativecommons.org/ns#"
   xmlns:rdf="http://www.w3.org/1999/02/22-rdf-syntax-ns#"
   xmlns:svg="http://www.w3.org/2000/svg"
   xmlns="http://www.w3.org/2000/svg"
   xmlns:sodipodi="http://sodipodi.sourceforge.net/DTD/sodipodi-0.dtd"
   xmlns:inkscape="http://www.inkscape.org/namespaces/inkscape"
   width="3400"
   height="1880"
   id="svg8243"
   version="1.1"
   inkscape:version="0.47 r22583"
   sodipodi:docname="shock_conscience_shirt_back.svg"
   inkscape:export-filename="C:\Users\Andrew\My Dropbox\Law School\LawLag\store\zazzle\shock_conscience_shirt_back.png"
   inkscape:export-xdpi="90"
   inkscape:export-ydpi="90">
  <defs
     id="defs8245">
    <inkscape:perspective
       sodipodi:type="inkscape:persp3d"
       inkscape:vp_x="0 : 526.18109 : 1"
       inkscape:vp_y="0 : 1000 : 0"
       inkscape:vp_z="744.09448 : 526.18109 : 1"
       inkscape:persp3d-origin="372.04724 : 350.78739 : 1"
       id="perspective8251" />
    <inkscape:perspective
       id="perspective8171"
       inkscape:persp3d-origin="0.5 : 0.33333333 : 1"
       inkscape:vp_z="1 : 0.5 : 1"
       inkscape:vp_y="0 : 1000 : 0"
       inkscape:vp_x="0 : 0.5 : 1"
       sodipodi:type="inkscape:persp3d" />
    <clipPath
       clipPathUnits="userSpaceOnUse"
       id="clipPath3855">
      <rect
         style="fill:#ffffff;fill-opacity:1;stroke:none"
         id="rect3857"
         width="86.486488"
         height="140.54054"
         x="-129.39026"
         y="84.621658"
         transform="scale(-1,1)" />
    </clipPath>
    <clipPath
       clipPathUnits="userSpaceOnUse"
       id="clipPath3863">
      <rect
         style="fill:#ffffff;fill-opacity:1;stroke:none"
         id="rect3865"
         width="86.486488"
         height="140.54054"
         x="-130.2626"
         y="84.621658"
         transform="scale(-1,1)" />
    </clipPath>
    <clipPath
       clipPathUnits="userSpaceOnUse"
       id="clipPath3893">
      <rect
         style="fill:#ffffff;fill-opacity:1;stroke:none"
         id="rect3895"
         width="160"
         height="260"
         x="390"
         y="340" />
    </clipPath>
  </defs>
  <sodipodi:namedview
     id="base"
     pagecolor="#ffffff"
     bordercolor="#666666"
     borderopacity="1.0"
     inkscape:pageopacity="0.0"
     inkscape:pageshadow="2"
     inkscape:zoom="0.24748738"
     inkscape:cx="1862.8589"
     inkscape:cy="869.5973"
     inkscape:document-units="px"
     inkscape:current-layer="layer1"
     showgrid="true"
     inkscape:window-width="1440"
     inkscape:window-height="838"
     inkscape:window-x="-8"
     inkscape:window-y="-8"
     inkscape:window-maximized="1"
     inkscape:snap-grids="true"
     inkscape:snap-bbox="false"
     inkscape:object-nodes="true">
    <inkscape:grid
       type="xygrid"
       id="grid4929"
       empspacing="5"
       visible="true"
       enabled="true"
       snapvisiblegridlinesonly="true" />
  </sodipodi:namedview>
  <metadata
     id="metadata8248">
    <rdf:RDF>
      <cc:Work
         rdf:about="">
        <dc:format>image/svg+xml</dc:format>
        <dc:type
           rdf:resource="http://purl.org/dc/dcmitype/StillImage" />
        <dc:title></dc:title>
      </cc:Work>
    </rdf:RDF>
  </metadata>
  <g
     inkscape:label="Layer 1"
     inkscape:groupmode="layer"
     id="layer1"
     transform="translate(1090.1301,811.79332)">
    <rect
       style="fill:#ffffff;fill-opacity:1;stroke:none"
       id="rect4935"
       width="3320"
       height="1800"
       x="-1050.1301"
       y="-770.00964"
       inkscape:export-filename="C:\Users\Andrew\My Dropbox\Law School\LawLag\shirts\shock_conscience_shirt_back.png"
       inkscape:export-xdpi="450"
       inkscape:export-ydpi="450" />
    <g
       id="g4999"
       transform="translate(-79.44548,2.1921032)"
       inkscape:export-filename="C:\Users\Andrew\My Dropbox\Law School\LawLag\shirts\shock_conscience_shirt_back.png"
       inkscape:export-xdpi="450"
       inkscape:export-ydpi="450">
      <g
         transform="translate(29.999996,2.223877)"
         id="g4937">
        <rect
           style="fill:#0044aa;fill-opacity:1;stroke:none;display:inline"
           id="rect3569"
           width="984.67578"
           height="1600.098"
           x="-915.7829"
           y="-674.8139" />
        <g
           style="display:inline"
           id="g2567"
           transform="matrix(-11.385313,0,0,11.385313,557.3662,-1638.2582)"
           clip-path="url(#clipPath3855)">
          <g
             transform="matrix(-0.2173913,0,0,0.2173913,280.81396,90.953706)"
             id="g2569"
             style="display:inline">
            <g
               transform="translate(-22.131269,-44.262537)"
               id="g2571">
              <g
                 style="stroke:none;display:inline"
                 id="g2573">
                <path
                   style="fill:#c87615;fill-opacity:1;fill-rule:evenodd;stroke:none"
                   d="m 1130,730 c -20,0 -100,60 -100,60 l 0,100 40,-40 60,-120 z"
                   id="path2575"
                   sodipodi:nodetypes="ccccc" />
                <path
                   style="fill:#c87615;fill-opacity:1;fill-rule:evenodd;stroke:none;display:inline"
                   d="m 1020,520 80,-80 -60,-80 -20,-40 -20,-40 -110,0 10,-40 -20,-200 -100,200 40,80 -20,40 -60,70 80,90 0,40 L 714.66754,686.54867 820,659.89189 820,780 740,940 870,900 1020,860"
                   id="path2577"
                   sodipodi:nodetypes="cccccccccccccccccccc"
                   inkscape:export-filename="C:\Users\Andrew\Desktop\rabbits.png"
                   inkscape:export-xdpi="90"
                   inkscape:export-ydpi="90" />
                <path
                   style="fill:#c87615;fill-opacity:1;fill-rule:evenodd;stroke:none;display:inline"
                   d="m 970,300 -30,-60 100,-200 20,200 -40,80"
                   id="path2579"
                   sodipodi:nodetypes="ccccc"
                   inkscape:export-filename="C:\Users\Andrew\Desktop\rabbits.png"
                   inkscape:export-xdpi="90"
                   inkscape:export-ydpi="90" />
                <path
                   style="fill:#d38d5f;fill-opacity:1;fill-rule:evenodd;stroke:none;display:inline"
                   d="m 840,520 c 0,0 -20,34.513 -20,40 0,61.36574 0,220 0,220 l 50,120 80,10 50,-110 0,-220 -30,-50 -130,-10 z"
                   id="path2581"
                   sodipodi:nodetypes="csccccccc"
                   inkscape:export-filename="C:\Users\Andrew\Desktop\rabbits.png"
                   inkscape:export-xdpi="90"
                   inkscape:export-ydpi="90" />
                <path
                   style="fill:#c87615;fill-opacity:1;fill-rule:evenodd;stroke:none;display:inline"
                   d="M 1000,580 908.35907,688.70453 1000,664.91892 1000,800 l -80,160 150,-70 0,-290 -50,-80"
                   id="path2583"
                   sodipodi:nodetypes="cccccccc"
                   inkscape:export-filename="C:\Users\Andrew\Desktop\rabbits.png"
                   inkscape:export-xdpi="90"
                   inkscape:export-ydpi="90" />
                <path
                   sodipodi:type="arc"
                   style="fill:#000000;fill-opacity:1;fill-rule:evenodd;stroke:none;display:inline"
                   id="path2585"
                   sodipodi:cx="230"
                   sodipodi:cy="262.36218"
                   sodipodi:rx="12"
                   sodipodi:ry="30"
                   d="m 242,262.36218 c 0,16.56855 -5.37258,30 -12,30 -6.62742,0 -12,-13.43145 -12,-30 0,-16.56854 5.37258,-30 12,-30 6.62742,0 12,13.43146 12,30 z"
                   transform="matrix(0.8164868,0,0,1.0015947,662.45804,96.719429)"
                   inkscape:export-filename="C:\Users\Andrew\Desktop\rabbits.png"
                   inkscape:export-xdpi="90"
                   inkscape:export-ydpi="90" />
                <path
                   sodipodi:type="arc"
                   style="fill:#000000;fill-opacity:1;fill-rule:evenodd;stroke:none;display:inline"
                   id="path2587"
                   sodipodi:cx="230"
                   sodipodi:cy="262.36218"
                   sodipodi:rx="12"
                   sodipodi:ry="30"
                   d="m 242,262.36218 c 0,16.56855 -5.37258,30 -12,30 -6.62742,0 -12,-13.43145 -12,-30 0,-16.56854 5.37258,-30 12,-30 6.62742,0 12,13.43146 12,30 z"
                   transform="matrix(0.8164868,0,0,1.0015947,761.95804,97.719428)"
                   inkscape:export-filename="C:\Users\Andrew\Desktop\rabbits.png"
                   inkscape:export-xdpi="90"
                   inkscape:export-ydpi="90" />
                <path
                   style="fill:#000000;fill-opacity:1;fill-rule:evenodd;stroke:none"
                   d="m 880,410 20,30 20,-30"
                   id="path2589"
                   sodipodi:nodetypes="ccc"
                   inkscape:export-filename="C:\Users\Andrew\Desktop\rabbits.png"
                   inkscape:export-xdpi="90"
                   inkscape:export-ydpi="90" />
                <path
                   style="fill:none;stroke:none"
                   d="m 820,620 0,160 0,0"
                   id="path2591"
                   inkscape:export-filename="C:\Users\Andrew\Desktop\rabbits.png"
                   inkscape:export-xdpi="90"
                   inkscape:export-ydpi="90" />
              </g>
              <path
                 sodipodi:nodetypes="ccccccccccccccccccccccccccccccccccccsccccccccccccc"
                 d="m 1130,730 c -20,0 -60,35.71429 -60,35.71429 L 1070,850 1130,730 z M 960.12998,280 890,280 900,240 880,40 780,240 l 40,80 -20,40 -60,70 80,90 0,40 L 714.66754,686.54867 820,664.86486 820,780 740,940 870,900 m 100,-600 -30,-60 100,-200 20,200 -40,80 20,40 60,80 -80,80 50,80 0,290 -150,70 80,-160 0,-135.08108 -91.64093,23.78561 L 1000,580 970,530 840,520 c 0,0 -20,34.513 -20,40 0,61.36574 0,220 0,220 l 50,120 75,10 m -25,-500 -40,0 20,30 20,-30 z m -20,30 0,34.91892 L 860,480 900,474.91892 940,480 l 0,0"
                 style="fill:none;stroke:#000000;stroke-width:4.5999999;stroke-linecap:butt;stroke-linejoin:miter;stroke-miterlimit:4;stroke-opacity:1;stroke-dasharray:none"
                 id="path2593" />
            </g>
          </g>
        </g>
        <rect
           style="fill:none;stroke:#000000;stroke-width:24;stroke-linejoin:miter;stroke-miterlimit:4;stroke-opacity:1;stroke-dasharray:none;display:inline"
           id="rect5665"
           width="981.15253"
           height="1605.2244"
           x="-915.7829"
           y="-677.03778" />
      </g>
      <g
         transform="translate(3.2386134,0)"
         id="g4980">
        <rect
           style="fill:#ff6600;fill-opacity:1;stroke:none;display:inline"
           id="rect3567"
           width="984.67578"
           height="1600.098"
           x="191.97711"
           y="-674.8139" />
        <g
           style="display:inline"
           id="g2597"
           transform="matrix(-11.385313,0,0,11.385313,1675.0579,-1638.2582)"
           clip-path="url(#clipPath3863)">
          <g
             transform="matrix(-0.2173913,0,0,0.2173913,280.81396,90.953706)"
             id="g2599"
             style="display:inline">
            <g
               transform="translate(-22.131269,-44.262537)"
               id="g2601">
              <g
                 style="stroke:none;display:inline"
                 id="g2603">
                <path
                   style="fill:#c87615;fill-opacity:1;fill-rule:evenodd;stroke:none"
                   d="m 1130,730 c -20,0 -100,60 -100,60 l 0,100 40,-40 60,-120 z"
                   id="path2605"
                   sodipodi:nodetypes="ccccc" />
                <path
                   style="fill:#c87615;fill-opacity:1;fill-rule:evenodd;stroke:none;display:inline"
                   d="m 1020,520 80,-80 -60,-80 -20,-40 -20,-40 -110,0 10,-40 -20,-200 -100,200 40,80 -20,40 -60,70 80,90 0,40 L 714.66754,686.54867 820,664.86486 820,780 740,940 870,900 1020,860"
                   id="path2607"
                   sodipodi:nodetypes="cccccccccccccccccccc"
                   inkscape:export-filename="C:\Users\Andrew\Desktop\rabbits.png"
                   inkscape:export-xdpi="90"
                   inkscape:export-ydpi="90" />
                <path
                   style="fill:#c87615;fill-opacity:1;fill-rule:evenodd;stroke:none;display:inline"
                   d="m 970,300 -30,-60 100,-200 20,200 -40,80"
                   id="path2609"
                   sodipodi:nodetypes="ccccc"
                   inkscape:export-filename="C:\Users\Andrew\Desktop\rabbits.png"
                   inkscape:export-xdpi="90"
                   inkscape:export-ydpi="90" />
                <path
                   style="fill:#d38d5f;fill-opacity:1;fill-rule:evenodd;stroke:none;display:inline"
                   d="m 840,520 c 0,0 -20,34.513 -20,40 0,61.36574 0,220 0,220 l 50,120 80,10 50,-110 0,-220 -30,-50 -130,-10 z"
                   id="path2611"
                   sodipodi:nodetypes="csccccccc"
                   inkscape:export-filename="C:\Users\Andrew\Desktop\rabbits.png"
                   inkscape:export-xdpi="90"
                   inkscape:export-ydpi="90" />
                <path
                   style="fill:#c87615;fill-opacity:1;fill-rule:evenodd;stroke:none;display:inline"
                   d="M 1000,580 908.35907,688.70453 1000,664.91892 1000,800 l -80,160 150,-70 0,-290 -50,-80"
                   id="path2613"
                   sodipodi:nodetypes="cccccccc"
                   inkscape:export-filename="C:\Users\Andrew\Desktop\rabbits.png"
                   inkscape:export-xdpi="90"
                   inkscape:export-ydpi="90" />
                <path
                   sodipodi:type="arc"
                   style="fill:#000000;fill-opacity:1;fill-rule:evenodd;stroke:none;display:inline"
                   id="path2615"
                   sodipodi:cx="230"
                   sodipodi:cy="262.36218"
                   sodipodi:rx="19.879206"
                   sodipodi:ry="30"
                   d="m 249.87921,262.36218 c 0,16.56855 -8.90023,30 -19.87921,30 -10.97898,0 -19.87921,-13.43145 -19.87921,-30 0,-16.56854 8.90023,-30 19.87921,-30 10.97898,0 19.87921,13.43146 19.87921,30 z"
                   transform="matrix(0.8164868,0,0,1.0015947,667.43101,96.719429)"
                   inkscape:export-filename="C:\Users\Andrew\Desktop\rabbits.png"
                   inkscape:export-xdpi="90"
                   inkscape:export-ydpi="90" />
                <path
                   sodipodi:type="arc"
                   style="fill:#000000;fill-opacity:1;fill-rule:evenodd;stroke:none;display:inline"
                   id="path2617"
                   sodipodi:cx="230"
                   sodipodi:cy="262.36218"
                   sodipodi:rx="19.928854"
                   sodipodi:ry="30"
                   d="m 249.92885,262.36218 c 0,16.56855 -8.92245,30 -19.92885,30 -11.0064,0 -19.92885,-13.43145 -19.92885,-30 0,-16.56854 8.92245,-30 19.92885,-30 11.0064,0 19.92885,13.43146 19.92885,30 z"
                   transform="matrix(0.8164868,0,0,1.0015947,766.93101,97.719428)"
                   inkscape:export-filename="C:\Users\Andrew\Desktop\rabbits.png"
                   inkscape:export-xdpi="90"
                   inkscape:export-ydpi="90" />
                <path
                   style="fill:#000000;fill-opacity:1;fill-rule:evenodd;stroke:none"
                   d="m 880,410 20,30 20,-30"
                   id="path2619"
                   sodipodi:nodetypes="ccc"
                   inkscape:export-filename="C:\Users\Andrew\Desktop\rabbits.png"
                   inkscape:export-xdpi="90"
                   inkscape:export-ydpi="90" />
                <path
                   style="fill:none;stroke:none"
                   d="m 820,620 0,160 0,0"
                   id="path2621"
                   inkscape:export-filename="C:\Users\Andrew\Desktop\rabbits.png"
                   inkscape:export-xdpi="90"
                   inkscape:export-ydpi="90" />
              </g>
              <path
                 sodipodi:nodetypes="ccccccccccccccccccccccccccccccccccccscccccccccccc"
                 d="m 1130,730 c -20,0 -60,35.71429 -60,35.71429 L 1070,850 1130,730 z M 960.12998,280 890,280 900,240 880,40 780,240 l 40,80 -20,40 -60,70 80,90 0,40 L 714.66754,686.54867 820,664.86486 820,780 740,940 870,900 m 100,-600 -30,-60 100,-200 20,200 -40,80 20,40 60,80 -80,80 50,80 0,290 -150,70 80,-160 0,-135.08108 -91.64093,23.78561 L 1000,580 970,530 840,520 c 0,0 -20,34.513 -20,40 0,61.36574 0,220 0,220 l 50,120 75,10 m -25,-500 -40,0 20,30 20,-30 z m -20,30 0,20 -40,34.91892 L 900,460 l 40,34.91892"
                 style="fill:none;stroke:#000000;stroke-width:4.5999999;stroke-linecap:butt;stroke-linejoin:miter;stroke-miterlimit:4;stroke-opacity:1;stroke-dasharray:none"
                 id="path2623" />
            </g>
          </g>
          <path
             sodipodi:nodetypes="ccccc"
             id="path2625"
             d="m 98.668587,188.92248 -8.311444,0.54181 -9.07986,-0.54181 8.827593,-7.52509 8.563711,7.52509 z"
             style="fill:#550000;fill-rule:evenodd;stroke:#000000;stroke-width:1.09000003;stroke-linecap:butt;stroke-linejoin:miter;stroke-miterlimit:4;stroke-opacity:1;stroke-dasharray:none;display:inline" />
        </g>
        <rect
           style="fill:none;stroke:#000000;stroke-width:24;stroke-linejoin:miter;stroke-miterlimit:4;stroke-opacity:1;stroke-dasharray:none;display:inline"
           id="rect5668"
           width="981.15253"
           height="1605.2244"
           x="195.50055"
           y="-674.8139" />
      </g>
      <g
         transform="translate(-19.999851,0)"
         id="g4955">
        <rect
           style="fill:#ffff00;fill-opacity:1;stroke:#000000;stroke-width:6.15422344;stroke-linejoin:miter;stroke-miterlimit:4;stroke-opacity:1;stroke-dasharray:none;display:inline"
           id="rect2717"
           width="984.67578"
           height="1600.098"
           x="1299.7371"
           y="-674.8139" />
        <g
           transform="matrix(6.1542234,0,0,6.1542234,-1100.4091,-2767.25)"
           style="display:inline"
           id="g3867"
           clip-path="url(#clipPath3893)">
          <g
             transform="matrix(-1.85,0,0,1.85,629.94993,183.44993)"
             id="g2687"
             style="fill:#000000;display:inline">
            <g
               style="fill:#000000;display:inline"
               id="g2689"
               transform="matrix(-0.2173913,0,0,0.2173913,280.81396,90.953706)">
              <g
                 style="fill:#000000"
                 id="g2691"
                 transform="translate(-22.131269,-44.262537)">
                <g
                   id="g2693"
                   style="fill:#000000;stroke:none;display:inline">
                  <path
                     sodipodi:nodetypes="ccccc"
                     id="path2695"
                     d="m 1130,730 c -20,0 -100,60 -100,60 l 0,100 40,-40 60,-120 z"
                     style="fill:#000000;fill-opacity:1;fill-rule:evenodd;stroke:none" />
                  <path
                     inkscape:export-ydpi="90"
                     inkscape:export-xdpi="90"
                     inkscape:export-filename="C:\Users\Andrew\Desktop\rabbits.png"
                     sodipodi:nodetypes="cccccccccccccccccccc"
                     id="path2697"
                     d="m 1020,520 80,-80 -60,-80 -20,-40 -20,-40 -110,0 10,-40 -20,-200 -100,200 40,80 -20,40 -60,70 80,90 0,40 L 714.66754,686.54867 820,659.89189 820,780 740,940 870,900 1020,860"
                     style="fill:#000000;fill-opacity:1;fill-rule:evenodd;stroke:none;display:inline" />
                  <path
                     inkscape:export-ydpi="90"
                     inkscape:export-xdpi="90"
                     inkscape:export-filename="C:\Users\Andrew\Desktop\rabbits.png"
                     sodipodi:nodetypes="ccccc"
                     id="path2699"
                     d="m 970,300 -30,-60 100,-200 20,200 -40,80"
                     style="fill:#000000;fill-opacity:1;fill-rule:evenodd;stroke:none;display:inline" />
                  <path
                     inkscape:export-ydpi="90"
                     inkscape:export-xdpi="90"
                     inkscape:export-filename="C:\Users\Andrew\Desktop\rabbits.png"
                     sodipodi:nodetypes="csccccccc"
                     id="path2701"
                     d="m 840,520 c 0,0 -20,34.513 -20,40 0,61.36574 0,220 0,220 l 50,120 80,10 50,-110 0,-220 -30,-50 -130,-10 z"
                     style="fill:#000000;fill-opacity:1;fill-rule:evenodd;stroke:none;display:inline" />
                  <path
                     inkscape:export-ydpi="90"
                     inkscape:export-xdpi="90"
                     inkscape:export-filename="C:\Users\Andrew\Desktop\rabbits.png"
                     sodipodi:nodetypes="cccccccc"
                     id="path2703"
                     d="M 1000,580 908.35907,688.70453 1000,650 l 0,150 -80,160 150,-70 0,-290 -50,-80"
                     style="fill:#000000;fill-opacity:1;fill-rule:evenodd;stroke:none;display:inline" />
                  <path
                     inkscape:export-ydpi="90"
                     inkscape:export-xdpi="90"
                     inkscape:export-filename="C:\Users\Andrew\Desktop\rabbits.png"
                     transform="matrix(0.8164868,0,0,1.0015947,667.43101,96.719429)"
                     d="m 249.87921,262.36218 c 0,16.56855 -8.90023,30 -19.87921,30 -10.97898,0 -19.87921,-13.43145 -19.87921,-30 0,-16.56854 8.90023,-30 19.87921,-30 10.97898,0 19.87921,13.43146 19.87921,30 z"
                     sodipodi:ry="30"
                     sodipodi:rx="19.879206"
                     sodipodi:cy="262.36218"
                     sodipodi:cx="230"
                     id="path2705"
                     style="fill:#000000;fill-opacity:1;fill-rule:evenodd;stroke:none;display:inline"
                     sodipodi:type="arc" />
                  <path
                     inkscape:export-ydpi="90"
                     inkscape:export-xdpi="90"
                     inkscape:export-filename="C:\Users\Andrew\Desktop\rabbits.png"
                     transform="matrix(0.8164868,0,0,1.0015947,766.93101,97.719428)"
                     d="m 249.92885,262.36218 c 0,16.56855 -8.92245,30 -19.92885,30 -11.0064,0 -19.92885,-13.43145 -19.92885,-30 0,-16.56854 8.92245,-30 19.92885,-30 11.0064,0 19.92885,13.43146 19.92885,30 z"
                     sodipodi:ry="30"
                     sodipodi:rx="19.928854"
                     sodipodi:cy="262.36218"
                     sodipodi:cx="230"
                     id="path2707"
                     style="fill:#000000;fill-opacity:1;fill-rule:evenodd;stroke:none;display:inline"
                     sodipodi:type="arc" />
                  <path
                     inkscape:export-ydpi="90"
                     inkscape:export-xdpi="90"
                     inkscape:export-filename="C:\Users\Andrew\Desktop\rabbits.png"
                     sodipodi:nodetypes="ccc"
                     id="path2709"
                     d="m 880,410 20,30 20,-30"
                     style="fill:#000000;fill-opacity:1;fill-rule:evenodd;stroke:none" />
                  <path
                     inkscape:export-ydpi="90"
                     inkscape:export-xdpi="90"
                     inkscape:export-filename="C:\Users\Andrew\Desktop\rabbits.png"
                     id="path2711"
                     d="m 820,620 0,160 0,0"
                     style="fill:#000000;fill-rule:evenodd;stroke:none" />
                </g>
                <path
                   id="path2713"
                   style="fill:#000000;fill-opacity:1;fill-rule:evenodd;stroke:#000000;stroke-width:4.5999999;stroke-linecap:butt;stroke-linejoin:miter;stroke-miterlimit:4;stroke-opacity:1;stroke-dasharray:none"
                   d="m 1130,730 c -20,0 -60,35.71429 -60,35.71429 L 1070,850 1130,730 z M 960.12998,280 890,280 900,240 880,40 780,240 l 40,80 -20,40 -60,70 80,90 0,40 L 714.66754,686.54867 820,659.89189 820,780 740,940 870,900 m 100,-600 -30,-60 100,-200 20,200 -40,80 20,40 60,80 -80,80 50,80 0,290 -150,70 80,-160 0,-150 -91.64093,38.70453 L 1000,580 970,530 840,520 c 0,0 -20,34.513 -20,40 0,61.36574 0,220 0,220 l 50,120 75,10 m -25,-500 -40,0 20,30 20,-30 z m -20,30 0,20 -40,34.91892 L 900,460 l 40,34.91892"
                   sodipodi:nodetypes="ccccccccccccccccccccccccccccccccccccscccccccccccc" />
              </g>
            </g>
            <path
               style="fill:#000000;fill-rule:evenodd;stroke:#000000;stroke-width:1.09000003;stroke-linecap:butt;stroke-linejoin:miter;stroke-miterlimit:4;stroke-opacity:1;stroke-dasharray:none;display:inline"
               d="m 98.668587,188.92248 -8.311444,0.54181 -9.07986,-0.54181 8.827593,-7.52509 8.563711,7.52509 z"
               id="path2715"
               sodipodi:nodetypes="ccccc" />
          </g>
          <path
             sodipodi:nodetypes="ccccccccccccccccccccccccccc"
             id="path2749"
             d="m 410,510 20,-30 10,-20 c 0,0 60,0 60,0 l 10,20 20,30 -30,30 -30,0 0,20 40,10 0,18 -34,16 24,-22 -30,0 0,8 40,10 -40,10 -40,-10 30,-10 0,-8 -20,0 -44,24 34,-36 30,-10 0,-20 -20,0 -30,-30 z"
             style="fill:#f9f9f9;fill-rule:evenodd;stroke:#000000;stroke-width:1px;stroke-linecap:butt;stroke-linejoin:miter;stroke-opacity:1" />
          <path
             d="m 460,485 c 0,8.28427 -4.47715,15 -10,15 -5.52285,0 -10,-6.71573 -10,-15 0,-8.28427 4.47715,-15 10,-15 5.52285,0 10,6.71573 10,15 z"
             sodipodi:ry="15"
             sodipodi:rx="10"
             sodipodi:cy="485"
             sodipodi:cx="450"
             id="path2753"
             style="fill:#000000;fill-opacity:1;stroke:#000000;stroke-width:1;stroke-linejoin:miter;stroke-miterlimit:4;stroke-opacity:1;stroke-dasharray:none"
             sodipodi:type="arc" />
          <path
             transform="translate(-4,0)"
             d="m 500,485 c 0,8.28427 -4.47715,15 -10,15 -5.52285,0 -10,-6.71573 -10,-15 0,-8.28427 4.47715,-15 10,-15 5.52285,0 10,6.71573 10,15 z"
             sodipodi:ry="15"
             sodipodi:rx="10"
             sodipodi:cy="485"
             sodipodi:cx="490"
             id="path2755"
             style="fill:#000000;fill-opacity:1;stroke:#000000;stroke-width:1;stroke-linejoin:miter;stroke-miterlimit:4;stroke-opacity:1;stroke-dasharray:none"
             sodipodi:type="arc" />
          <path
             id="path2757"
             d="m 460.46916,505.16695 16.92675,0.0292 -13.08997,9.8995 4.25203,7.82471 7.35789,6.27227 -19.21574,4.36931 10.68971,-11.63736 -3.08389,-6.12182 -12.36587,-7.77818 8.52909,-2.85763 z"
             style="fill:#000000;fill-rule:evenodd;stroke:#000000;stroke-width:1px;stroke-linecap:butt;stroke-linejoin:miter;stroke-opacity:1" />
          <path
             id="path2760"
             d="M 500,580 474.71129,604.83301 509.34387,588.43742 500,580 z"
             style="fill:#ffffff;fill-rule:evenodd;stroke:none"
             sodipodi:nodetypes="cccc" />
        </g>
        <rect
           style="fill:none;stroke:#000000;stroke-width:24;stroke-linejoin:miter;stroke-miterlimit:4;stroke-opacity:1;stroke-dasharray:none;display:inline"
           id="rect5673"
           width="981.15253"
           height="1605.2244"
           x="1303.261"
           y="-674.8139" />
      </g>
    </g>
  </g>
</svg>
