<?xml version="1.0" encoding="UTF-8" standalone="no"?>
<!-- Created with Inkscape (http://www.inkscape.org/) -->

<svg
   xmlns:dc="http://purl.org/dc/elements/1.1/"
   xmlns:cc="http://creativecommons.org/ns#"
   xmlns:rdf="http://www.w3.org/1999/02/22-rdf-syntax-ns#"
   xmlns:svg="http://www.w3.org/2000/svg"
   xmlns="http://www.w3.org/2000/svg"
   xmlns:sodipodi="http://sodipodi.sourceforge.net/DTD/sodipodi-0.dtd"
   xmlns:inkscape="http://www.inkscape.org/namespaces/inkscape"
   width="900.00006"
   height="480"
   id="svg2552"
   sodipodi:version="0.32"
   inkscape:version="0.47 r22583"
   sodipodi:docname="c6.svg"
   inkscape:output_extension="org.inkscape.output.svg.inkscape"
   version="1.0"
   inkscape:export-filename="C:\Users\Andrew\My Dropbox\LawLag\www\images\c6.png"
   inkscape:export-xdpi="90"
   inkscape:export-ydpi="90">
  <defs
     id="defs2554">
    <inkscape:perspective
       sodipodi:type="inkscape:persp3d"
       inkscape:vp_x="0 : 526.18109 : 1"
       inkscape:vp_y="0 : 1000 : 0"
       inkscape:vp_z="744.09448 : 526.18109 : 1"
       inkscape:persp3d-origin="372.04724 : 350.78739 : 1"
       id="perspective2560" />
    <clipPath
       clipPathUnits="userSpaceOnUse"
       id="clipPath4411">
      <rect
         y="55"
         x="30"
         height="360"
         width="840"
         id="rect4413"
         style="opacity:1;fill:none;fill-opacity:1;stroke:#000000;stroke-width:3;stroke-miterlimit:4;stroke-dasharray:none;display:inline" />
    </clipPath>
  </defs>
  <sodipodi:namedview
     id="base"
     pagecolor="#ffffff"
     bordercolor="#666666"
     borderopacity="1.0"
     gridtolerance="10000"
     guidetolerance="10"
     objecttolerance="10"
     inkscape:pageopacity="0.0"
     inkscape:pageshadow="2"
     inkscape:zoom="0.70710675"
     inkscape:cx="423.39099"
     inkscape:cy="394.64806"
     inkscape:document-units="px"
     inkscape:current-layer="layer5"
     showgrid="true"
     inkscape:window-width="1440"
     inkscape:window-height="838"
     inkscape:window-x="-8"
     inkscape:window-y="-8"
     inkscape:object-nodes="true"
     inkscape:window-maximized="0">
    <inkscape:grid
       type="xygrid"
       id="grid2582"
       visible="true"
       enabled="true" />
  </sodipodi:namedview>
  <metadata
     id="metadata2557">
    <rdf:RDF>
      <cc:Work
         rdf:about="">
        <dc:format>image/svg+xml</dc:format>
        <dc:type
           rdf:resource="http://purl.org/dc/dcmitype/StillImage" />
        <dc:title></dc:title>
      </cc:Work>
    </rdf:RDF>
  </metadata>
  <g
     inkscape:groupmode="layer"
     id="layer5"
     style="display:inline"
     transform="translate(1.5,3.5000058)">
    <rect
       style="fill:#ffffff;fill-opacity:1;stroke:none"
       id="rect4278"
       width="900"
       height="480"
       x="-1.5"
       y="-3.5000057"
       inkscape:export-filename="C:\Users\Andrew\My Dropbox\Law School\LawLag\include\c6.png"
       inkscape:export-xdpi="90"
       inkscape:export-ydpi="90" />
  </g>
  <g
     inkscape:groupmode="layer"
     id="layer3"
     style="display:inline"
     transform="translate(1.5,3.5000058)">
    <g
       id="g4394"
       clip-path="url(#clipPath4411)"
       transform="translate(-1.5,1.0531342)">
      <rect
         y="52.675934"
         x="0"
         height="253.41672"
         width="900"
         id="rect3616"
         style="fill:#ecffff;fill-opacity:1;stroke:none;stroke-width:3;stroke-linecap:round;stroke-linejoin:miter;stroke-miterlimit:4;stroke-dasharray:none;stroke-opacity:1" />
      <path
         sodipodi:nodetypes="ccscscc"
         id="path3618"
         d="M -20,230.80708 L -20,147.42088 C -20,147.42088 200,22.34158 400,126.57433 C 600,230.80708 760,84.881222 760,84.881222 C 760,84.881222 900,-19.35153 1020,84.881222 C 1140,189.11398 900,418.42602 900,418.42602 L 0,418.42602"
         style="fill:#bcf9fd;fill-opacity:1;fill-rule:evenodd" />
      <rect
         y="292.05096"
         x="0"
         height="126.37505"
         width="900"
         id="rect2795"
         style="fill:#c87615;fill-opacity:1;stroke:none;stroke-width:5;stroke-linecap:round;stroke-linejoin:miter;stroke-miterlimit:4;stroke-dasharray:none;stroke-opacity:1" />
      <path
         id="path3594"
         d="M 0.022121,323.6544 L 0.022121,292.12995 L 24.924794,292.12995 L 49.827467,292.12995 L 32.169812,321.57552 C 22.458105,337.77059 13.948416,351.95659 13.259392,353.09997 L 12.006619,355.17885 L 6.01437,355.17885 L 0.022121,355.17885 L 0.022121,323.6544 z"
         style="fill:#808080;fill-opacity:1;stroke:none;stroke-width:0.1;stroke-linecap:round;stroke-linejoin:miter;stroke-miterlimit:4;stroke-dasharray:none;stroke-opacity:1" />
      <path
         id="path3596"
         d="M 0.026567,396.9544 L 0.031001,375.57582 L 6.101615,365.46069 L 12.172217,355.34556 L 62.046993,355.31432 C 89.478129,355.29713 111.92087,355.29713 111.91979,355.31432 C 111.91869,355.3315 103.42562,369.50364 93.04628,386.80796 L 74.174765,418.27035 L 37.098443,418.30167 L 0.022121,418.33299 L 0.026567,396.9544 z"
         style="fill:#808080;fill-opacity:1;stroke:none;stroke-width:0.1;stroke-linecap:round;stroke-linejoin:miter;stroke-miterlimit:4;stroke-dasharray:none;stroke-opacity:1" />
      <path
         id="path3598"
         d="M 112.49729,354.78549 C 112.64387,354.56364 121.14982,340.3916 131.3994,323.29207 L 150.035,292.20201 L 199.9152,292.17077 C 247.37678,292.14103 249.78963,292.15006 249.67693,292.35693 C 249.61177,292.4765 241.1113,306.6618 230.78698,323.87981 L 212.01549,355.18528 L 162.12312,355.18706 L 112.23076,355.18886 L 112.49729,354.78549 z"
         style="fill:#808080;fill-opacity:1;stroke:none;stroke-width:0.1;stroke-linecap:round;stroke-linejoin:miter;stroke-miterlimit:4;stroke-dasharray:none;stroke-opacity:1" />
      <path
         id="path3600"
         d="M 174.53091,418.14454 C 174.59436,418.02508 183.09361,403.83908 193.41814,386.62009 L 212.18999,355.31283 L 262.02004,355.31283 C 309.39189,355.31283 311.84587,355.32354 311.76474,355.53003 C 311.70139,355.69127 276.58427,414.30034 274.47076,417.7722 L 274.11188,418.36173 L 224.26371,418.36173 C 176.86315,418.36173 174.4212,418.35107 174.53091,418.14454 L 174.53091,418.14454 z"
         style="fill:#808080;fill-opacity:1;stroke:none;stroke-width:0.1;stroke-linecap:round;stroke-linejoin:miter;stroke-miterlimit:4;stroke-dasharray:none;stroke-opacity:1" />
      <path
         id="path3602"
         d="M 312.87004,354.18544 C 313.2061,353.62216 321.70413,339.45002 331.75456,322.6918 L 350.02807,292.2223 L 399.90241,292.19106 C 427.33331,292.17387 449.77587,292.17387 449.77479,292.19106 C 449.7737,292.20824 441.28062,306.38038 430.90128,323.68469 L 412.02977,355.14709 L 362.14441,355.17834 L 312.25903,355.20958 L 312.87004,354.18544 z"
         style="fill:#808080;fill-opacity:1;stroke:none;stroke-width:0.1;stroke-linecap:round;stroke-linejoin:miter;stroke-miterlimit:4;stroke-dasharray:none;stroke-opacity:1" />
      <path
         id="path3604"
         d="M 512.67955,354.49551 C 512.92105,354.103 521.42162,339.93096 531.56971,323.00208 L 550.02079,292.2223 L 599.90654,292.19106 C 629.83268,292.17231 649.76867,292.20501 649.73326,292.27279 C 649.70081,292.33493 641.20221,306.51943 630.84752,323.79391 L 612.0208,355.20204 L 562.13063,355.20559 L 512.24047,355.20915 L 512.67955,354.49551 z"
         style="fill:#808080;fill-opacity:1;stroke:none;stroke-width:0.1;stroke-linecap:round;stroke-linejoin:miter;stroke-miterlimit:4;stroke-dasharray:none;stroke-opacity:1" />
      <path
         id="path3606"
         d="M 712.40654,354.99195 C 712.47,354.8725 720.96926,340.68649 731.29378,323.4675 L 750.06563,292.16024 L 799.89571,292.16024 C 847.26753,292.16024 849.72151,292.17096 849.64038,292.37744 C 849.57703,292.53869 814.45991,351.14775 812.34639,354.61961 L 811.98751,355.20915 L 762.13935,355.20915 C 714.73879,355.20915 712.29684,355.19848 712.40655,354.99195 L 712.40654,354.99195 z"
         style="fill:#808080;fill-opacity:1;stroke:none;stroke-width:0.1;stroke-linecap:round;stroke-linejoin:miter;stroke-miterlimit:4;stroke-dasharray:none;stroke-opacity:1" />
      <path
         id="path3608"
         d="M 774.51366,418.19194 C 774.57585,418.07248 783.07309,403.88647 793.39641,386.66748 L 812.16608,355.36022 L 856.05796,355.36022 L 899.94984,355.36022 L 899.95265,365.32021 L 899.95548,375.2802 L 887.02119,396.84466 L 874.08689,418.40912 L 824.24373,418.40912 C 776.84881,418.40912 774.40612,418.39846 774.51365,418.19194 L 774.51366,418.19194 z"
         style="fill:#808080;fill-opacity:1;stroke:none;stroke-width:0.1;stroke-linecap:round;stroke-linejoin:miter;stroke-miterlimit:4;stroke-dasharray:none;stroke-opacity:1" />
      <path
         id="path3610"
         d="M 574.86044,417.5716 C 577.70777,412.74908 612.07141,355.52278 612.16179,355.45309 C 612.22834,355.40177 634.68754,355.37385 662.07113,355.39103 L 711.85947,355.42228 L 692.99092,386.88467 L 674.12236,418.34707 L 624.24402,418.37832 L 574.36568,418.40956 L 574.86044,417.5716 z"
         style="fill:#808080;fill-opacity:1;stroke:none;stroke-width:0.1;stroke-linecap:round;stroke-linejoin:miter;stroke-miterlimit:4;stroke-dasharray:none;stroke-opacity:1" />
      <path
         id="path3612"
         d="M 374.43205,418.28708 C 374.46451,418.21972 382.9631,404.03484 393.3178,386.76514 L 412.14451,355.36567 L 462.03688,355.36295 L 511.92925,355.36022 L 511.66306,355.76359 C 511.51667,355.98544 503.01168,370.15748 492.76308,387.25701 L 474.12928,418.34707 L 424.25115,418.37832 C 391.49989,418.39883 374.39329,418.36751 374.43205,418.28708 L 374.43205,418.28708 z"
         style="fill:#808080;fill-opacity:1;stroke:none;stroke-width:0.1;stroke-linecap:round;stroke-linejoin:miter;stroke-miterlimit:4;stroke-dasharray:none;stroke-opacity:1" />
      <path
         d="M 50,292.05098 L -30,425.44686 L -30,425.44686 M 150,292.05098 L 70,425.44686 L 70,425.44686 M 250,292.05098 L 170,425.44686 L 170,425.44686 M 350,292.05098 L 270,425.44686 L 270,425.44686 M 450,292.05098 L 370,425.44686 L 370,425.44686 M 550,292.05098 L 470,425.44686 L 470,425.44686 M 650,292.05098 L 570,425.44686 L 570,425.44686 M 750,292.05098 L 670,425.44686 L 670,425.44686 M 850,292.05098 L 770,425.44686 L 770,425.44686 M 950,292.05098 L 870,425.44686 L 870,425.44686 M -30,355.2385 L 920,355.2385"
         style="fill:#4d4d4d;fill-rule:evenodd;stroke:#000000;stroke-width:2.51371288;stroke-linecap:butt;stroke-linejoin:miter;stroke-miterlimit:4;stroke-dasharray:none;stroke-opacity:1"
         id="path2798" />
      <path
         id="path3614"
         d="M -30,292.05098 C -20,292.05098 950,292.05098 950,292.05098"
         style="fill:none;fill-rule:evenodd;stroke:#000000;stroke-width:2.51371288;stroke-linecap:butt;stroke-linejoin:miter;stroke-miterlimit:4;stroke-dasharray:none;stroke-opacity:1" />
    </g>
  </g>
  <g
     inkscape:label="Layer 1"
     inkscape:groupmode="layer"
     id="layer1"
     style="display:inline"
     transform="translate(1.5,3.5000058)">
    <path
       style="fill:#333333;fill-rule:evenodd;stroke:#000000;stroke-width:1px;stroke-linecap:butt;stroke-linejoin:miter;stroke-opacity:1"
       d="M 740.70926,335 L 760.70926,335 L 815.70926,340 L 815.70926,350 L 760.70926,345 L 785.70926,385 L 785.70926,395 L 750.70926,345 L 740.70926,345 L 695.70926,380 L 695.70926,370 L 740.70926,335 z"
       id="path3211"
       sodipodi:nodetypes="cccccccccccc" />
    <path
       sodipodi:type="arc"
       style="opacity:1;fill:#333333;fill-opacity:1;stroke:#000000;stroke-width:1;stroke-linecap:round;stroke-linejoin:round;stroke-miterlimit:4;stroke-dasharray:none;stroke-opacity:1"
       id="path3215"
       sodipodi:cx="-5"
       sodipodi:cy="704.09448"
       sodipodi:rx="10"
       sodipodi:ry="10"
       d="m 5,704.09448 c 0,5.52285 -4.4771525,10 -10,10 -5.522847,0 -10,-4.47715 -10,-10 0,-5.52285 4.477153,-10 10,-10 5.5228475,0 10,4.47715 10,10 z"
       transform="translate(700.70926,-324.09448)" />
    <path
       style="fill:#cccccc;fill-rule:evenodd;stroke:#000000;stroke-width:1px;stroke-linecap:butt;stroke-linejoin:miter;stroke-opacity:1"
       d="M 745.70926,275 L 745.70926,340 L 755.70926,340 L 755.70926,275 L 745.70926,275 z"
       id="path3209"
       sodipodi:nodetypes="ccccc" />
    <path
       style="fill:#cccccc;fill-rule:evenodd;stroke:#000000;stroke-width:1px;stroke-linecap:butt;stroke-linejoin:miter;stroke-opacity:1"
       d="M 705.70926,235 L 705.70926,295 L 740.70926,295 L 745.70926,285 L 710.70926,285 L 710.70926,235 L 705.70926,235 z"
       id="path3205"
       sodipodi:nodetypes="ccccccc" />
    <path
       style="fill:#4d4d4d;fill-opacity:1;fill-rule:evenodd;stroke:#000000;stroke-width:1px;stroke-linecap:butt;stroke-linejoin:round;stroke-opacity:1"
       d="M 695.70926,270 L 685.70926,270 L 685.70926,245 L 720.70926,185 L 730.70926,185 L 730.70926,210 L 695.70926,270 z"
       id="path2432"
       sodipodi:nodetypes="ccccccc" />
    <path
       style="fill:#cccccc;fill-rule:evenodd;stroke:#000000;stroke-width:1px;stroke-linecap:butt;stroke-linejoin:miter;stroke-opacity:1"
       d="M 718.88604,209.24264 L 718.70926,265 L 753.70926,265 L 758.70926,255 L 723.70926,255 L 723.70926,205 L 718.88604,209.24264 z"
       id="path3207"
       sodipodi:nodetypes="ccccccc" />
    <path
       style="fill:#333333;fill-opacity:1;fill-rule:evenodd;stroke:#000000;stroke-width:1px;stroke-linecap:butt;stroke-linejoin:round;stroke-opacity:1"
       d="M 695.70926,270 L 730.70926,210 L 730.70926,185 L 695.70926,245 L 695.70926,270 z"
       id="path2430"
       sodipodi:nodetypes="ccccc" />
    <g
       id="g3578"
       transform="translate(704.70926,-334.09448)">
      <path
         sodipodi:nodetypes="ccccccc"
         id="path3576"
         d="M 26,579.09448 L 106,579.09448 L 106,589.09448 L 86,634.09448 L 6,634.09448 L 6,624.09448 L 26,579.09448 z"
         style="fill:#4d4d4d;fill-rule:evenodd;stroke:#000000;stroke-width:1.24224746px;stroke-linecap:butt;stroke-linejoin:round;stroke-opacity:1" />
      <path
         sodipodi:nodetypes="ccccc"
         id="path3574"
         d="M 26,579.09448 L 106,579.09448 L 86,624.09448 L 6,624.09448 L 26,579.09448 z"
         style="fill:#333333;fill-rule:evenodd;stroke:#000000;stroke-width:1.24224746px;stroke-linecap:butt;stroke-linejoin:round;stroke-opacity:1" />
    </g>
    <g
       style="display:inline"
       id="g3484"
       transform="matrix(0.2185793,0,0,0.2185793,563.27754,71.311484)">
      <path
         sodipodi:nodetypes="ccccc"
         id="path3204"
         d="M 1145,735 C 1125,735 1055,785 1055,785 L 1050,880 L 1090,850 L 1145,735 z"
         style="opacity:1;fill:#1a1a1a;fill-opacity:1;fill-rule:evenodd;stroke:none;stroke-width:5;stroke-linecap:butt;stroke-linejoin:miter;stroke-miterlimit:4;stroke-dasharray:none;stroke-opacity:1;display:inline" />
      <path
         inkscape:export-ydpi="90"
         inkscape:export-xdpi="90"
         inkscape:export-filename="C:\Users\Andrew\Desktop\rabbits.png"
         sodipodi:nodetypes="cccccccccccccccccccc"
         id="path3314"
         d="M 1020,520 L 1110,440 L 1040,360 L 1020,320 L 1000,300 L 880,300 L 900,240 L 873.46429,118.42855 L 780,240 L 820,320 L 800,360 L 730,430 L 820,520 L 820,560 L 720,660 L 820,640 L 820,780 L 740,940 L 860,920 L 1040,780"
         style="opacity:1;fill:#1a1a1a;fill-opacity:1;fill-rule:evenodd;stroke:none;stroke-width:5;stroke-linecap:butt;stroke-linejoin:miter;stroke-miterlimit:4;stroke-dasharray:none;stroke-opacity:1;display:inline" />
      <path
         inkscape:export-ydpi="90"
         inkscape:export-xdpi="90"
         inkscape:export-filename="C:\Users\Andrew\Desktop\rabbits.png"
         sodipodi:nodetypes="ccccc"
         id="path3316"
         d="M 980,320 L 940,240 L 1026.9286,160.91068 L 1060,240 L 1020,320"
         style="opacity:1;fill:#1a1a1a;fill-opacity:1;fill-rule:evenodd;stroke:none;stroke-width:5;stroke-linecap:butt;stroke-linejoin:miter;stroke-miterlimit:4;stroke-dasharray:none;stroke-opacity:1;display:inline" />
      <path
         inkscape:export-ydpi="90"
         inkscape:export-xdpi="90"
         inkscape:export-filename="C:\Users\Andrew\Desktop\rabbits.png"
         sodipodi:nodetypes="csccccccc"
         id="path3318"
         d="M 842.23159,519.97698 C 842.23159,519.97698 822.47698,554.27825 822.47698,559.73159 C 822.47698,620.72086 822.47698,778.3819 822.47698,778.3819 L 860,890 L 960,900 L 1000,780 L 1000,560 L 965,525 L 842.23159,519.97698 z"
         style="opacity:1;fill:#f9f9f9;fill-opacity:1;fill-rule:evenodd;stroke:none;stroke-width:4.95396423;stroke-linecap:butt;stroke-linejoin:miter;stroke-miterlimit:4;stroke-dasharray:none;stroke-opacity:1;display:inline" />
      <path
         inkscape:export-ydpi="90"
         inkscape:export-xdpi="90"
         inkscape:export-filename="C:\Users\Andrew\Desktop\rabbits.png"
         sodipodi:nodetypes="cccccccccc"
         id="path3320"
         d="M 1000,560 L 994.74982,575.02482 L 985.59983,643.6498 L 1000,640 L 1000,780 L 920,955 L 1060,915 L 1090,870 L 1090,595 L 1020,520"
         style="opacity:1;fill:#1a1a1a;fill-opacity:1;fill-rule:evenodd;stroke:none;stroke-width:5;stroke-linecap:butt;stroke-linejoin:miter;stroke-miterlimit:4;stroke-dasharray:none;stroke-opacity:1;display:inline" />
      <path
         id="path3335"
         d="M 854.08238,330 C 847.65925,330 842.18328,337.98515 840,349.21875 L 851.56486,360 L 841.37677,376.1875 C 844.06428,384.48983 848.74696,390 854.08238,390 C 862.42041,390 869.1875,376.56 869.1875,360 C 869.1875,343.44 862.42041,330 854.08238,330 z"
         style="opacity:1;fill:#f9f9f9;fill-opacity:1;fill-rule:evenodd;stroke:none;stroke-width:1px;stroke-linecap:butt;stroke-linejoin:miter;stroke-opacity:1;display:inline" />
      <path
         sodipodi:nodetypes="csccccc"
         inkscape:export-ydpi="90"
         inkscape:export-xdpi="90"
         inkscape:export-filename="C:\Users\Andrew\Desktop\rabbits.png"
         id="path3341"
         d="M 900,460 L 900,440 L 900,460 L 858.64361,486.95609 L 897.7125,491.99375 L 942.13734,489.24359 L 900,460 z"
         style="opacity:1;fill:#f5f5f5;fill-opacity:1;fill-rule:evenodd;stroke:none;stroke-width:5;stroke-linecap:butt;stroke-linejoin:miter;stroke-miterlimit:4;stroke-dasharray:none;stroke-opacity:1;display:inline" />
      <path
         inkscape:export-ydpi="90"
         inkscape:export-xdpi="90"
         inkscape:export-filename="C:\Users\Andrew\Desktop\rabbits.png"
         sodipodi:nodetypes="cccc"
         id="path3339"
         d="M 880,400 L 900,440 L 920,400 L 880,400 z"
         style="opacity:1;fill:#ffaaaa;fill-opacity:1;fill-rule:evenodd;stroke:none;stroke-width:1px;stroke-linecap:butt;stroke-linejoin:miter;stroke-opacity:1;display:inline" />
      <path
         id="path13233"
         d="M 946.0123,330 C 938.70892,330 932.48249,337.98515 930,349.21875 L 943.14976,360 L 931.56545,376.1875 C 934.62127,384.48983 939.94569,390 946.0123,390 C 955.49301,390 963.1875,376.56 963.1875,360 C 963.1875,343.44 955.49301,330 946.0123,330 z"
         style="opacity:1;fill:#f9f9f9;fill-opacity:1;fill-rule:evenodd;stroke:none;stroke-width:1px;stroke-linecap:butt;stroke-linejoin:miter;stroke-opacity:1;display:inline" />
      <path
         sodipodi:nodetypes="cccccccccccccccccscccccccccccccccccccc"
         d="M 980,320 L 940,240 L 1026.9286,167.44639 L 1060,240 L 1020,320 L 1040,360 L 1110,440 L 1020,520 L 1090,595 L 1090,870 L 1060,915 L 920,955 L 1000,780 L 1000,640 L 1000,560 L 965,525 L 842.23159,519.97698 C 842.23159,519.97698 819.97698,555.34968 819.97698,560.80302 C 819.97698,621.79229 819.97698,780.52476 819.97698,780.52476 L 860,890 L 945.91033,898.32116 L 1000,780 M 969.73705,299.47411 L 880,300 L 900,240 L 863.66072,131.49997 L 780,240 L 820,320 L 800,360 L 730,430 L 820,520 L 820,560 L 720,660 L 820,640 L 820,780 L 740,940 L 860,920 L 894.63766,893.35496"
         style="opacity:1;fill:none;fill-opacity:1;fill-rule:evenodd;stroke:#000000;stroke-width:5;stroke-linecap:butt;stroke-linejoin:miter;stroke-miterlimit:4;stroke-dasharray:none;stroke-opacity:1;display:inline"
         id="path5430" />
      <path
         sodipodi:nodetypes="cccc"
         id="path5428"
         d="M 1145,735 C 1125,735 1090,759.74619 1090,759.74619 L 1090,850 L 1145,735 z"
         style="opacity:1;fill:none;fill-opacity:1;fill-rule:evenodd;stroke:#000000;stroke-width:5;stroke-linecap:butt;stroke-linejoin:miter;stroke-miterlimit:4;stroke-dasharray:none;stroke-opacity:1" />
      <path
         sodipodi:nodetypes="csccccc"
         inkscape:export-ydpi="90"
         inkscape:export-xdpi="90"
         inkscape:export-filename="C:\Users\Andrew\Desktop\rabbits.png"
         id="path5440"
         d="M 900,460 L 900,440 L 900,460 L 858.64361,486.95609 L 897.7125,491.99375 L 942.13734,489.24359 L 900,460 z"
         style="opacity:1;fill:none;fill-opacity:1;fill-rule:evenodd;stroke:#000000;stroke-width:5;stroke-linecap:butt;stroke-linejoin:miter;stroke-miterlimit:4;stroke-dasharray:none;stroke-opacity:1" />
    </g>
    <path
       id="path2383"
       style="fill:#294500;fill-opacity:1;stroke:#000000;stroke-width:1;stroke-linecap:round;stroke-linejoin:round;stroke-miterlimit:4;stroke-dasharray:none;stroke-opacity:1"
       d="M 746.03868,216.51521 L 821.7982,209.87085 C 823.17707,214.98644 822.60085,212.55731 822.49831,217.85364 L 746.7388,224.49801"
       sodipodi:nodetypes="cccc" />
    <path
       style="fill:#1a1a1a;fill-opacity:1;fill-rule:evenodd;stroke:#000000;stroke-width:1px;stroke-linecap:butt;stroke-linejoin:miter;stroke-opacity:1"
       d="M 782.70926,193 L 760.70926,225 L 782.70926,211"
       id="path3526"
       sodipodi:nodetypes="ccc" />
    <g
       id="g3558"
       transform="matrix(0.9961761,-8.736787e-2,8.736787e-2,0.9961761,650.05113,-314.2401)">
      <path
         transform="matrix(-0.2001514,0,0,0.2001514,67.207418,498.61412)"
         d="m 200,212.36218 c 0,88.36556 -35.81722,160 -80,160 -44.18278,0 -80,-71.63444 -80,-160 0,-88.36556 35.81722,-159.999997 80,-159.999997 44.18278,0 80,71.634437 80,159.999997 z"
         sodipodi:ry="160"
         sodipodi:rx="80"
         sodipodi:cy="212.36218"
         sodipodi:cx="120"
         id="path2387"
         style="fill:#c6c6c6;fill-opacity:1;stroke:#000000;stroke-width:4.99621773;stroke-linecap:round;stroke-linejoin:round;stroke-miterlimit:4;stroke-dasharray:none;stroke-opacity:1"
         sodipodi:type="arc" />
      <path
         id="path3190"
         d="M 41.043735,565.76845 C 44.051144,560.82269 46.023651,553.91607 46.683201,546.02217 C 46.864259,543.85518 46.890451,538.81872 46.731427,536.74904 C 46.143368,529.09552 44.355784,522.35676 41.60508,517.42393 C 40.723193,515.84244 40.841242,515.90056 40.377853,516.81978 C 38.483773,520.57706 34.879566,523.97876 30.146092,526.47665 C 25.970453,528.68016 20.327475,530.51947 14.227873,531.66514 C 13.449466,531.81134 12.741146,531.95169 12.653824,531.97702 C 12.512003,532.01817 12.508909,532.12807 12.624932,533.00767 C 13.24326,537.69526 13.270363,543.55509 12.697617,548.72104 C 12.623253,549.39184 12.441177,549.29437 14.365873,549.61417 C 20.624127,550.65405 26.295803,552.43085 30.366094,554.62667 C 32.735142,555.90471 34.480795,557.1939 36.186265,558.92494 C 38.123524,560.89126 39.364985,562.73815 40.514595,565.36409 L 40.839016,566.10512 L 41.043735,565.76845 z"
         style="fill:#cccccc;fill-opacity:1;stroke:#000000;stroke-width:0;stroke-linecap:round;stroke-linejoin:round;stroke-miterlimit:4;stroke-dasharray:none;stroke-opacity:1" />
      <path
         id="path3286"
         d="M 12.519174,549.27997 C 12.519174,549.25545 12.564314,548.85243 12.619488,548.38436 C 13.104787,544.26735 13.159605,539.53151 12.770639,535.32651 C 12.653602,534.06127 12.4162,532.13336 12.370884,532.08015 C 12.353695,532.05997 12.010409,532.09968 11.608031,532.16841 C 9.3833303,532.54837 6.0062798,532.97793 2.8207842,533.28612 L 0.83064079,533.47867 L 0.86182037,533.80868 C 0.87897335,533.99018 0.92615904,534.45712 0.96668169,534.84633 C 1.3598211,538.62234 1.3632036,543.4138 0.97547635,547.30588 C 0.93809007,547.68119 0.91006487,547.9918 0.91319924,547.99613 C 0.91633161,548.00046 1.7263683,548.07549 2.7132769,548.16286 C 5.1831972,548.38152 8.2932457,548.72612 10.522612,549.02815 C 11.55122,549.1675 12.42124,549.2912 12.455991,549.30303 C 12.490741,549.31487 12.519174,549.30448 12.519174,549.27997 L 12.519174,549.27997 z"
         style="fill:#ff7f2a;fill-opacity:1;stroke:#000000;stroke-width:0;stroke-linecap:round;stroke-linejoin:round;stroke-miterlimit:4;stroke-dasharray:none;stroke-opacity:1" />
      <path
         id="path3288"
         d="M -31.157348,545.70892 C -30.973385,543.21337 -30.956876,539.33004 -31.120624,537.07035 C -31.160915,536.51434 -31.21003,535.83622 -31.229771,535.56341 L -31.265662,535.0674 L -31.700252,535.09587 C -32.127534,535.12385 -33.492912,535.15838 -39.811426,535.30098 C -41.559326,535.34043 -42.994184,535.37937 -43.000002,535.38752 C -43.005818,535.39567 -42.982098,535.74352 -42.947286,536.16052 C -42.755279,538.46046 -42.726791,543.19849 -42.891974,545.35987 C -42.928096,545.83247 -42.954141,546.22509 -42.94986,546.23236 C -42.945579,546.23963 -40.953988,546.29044 -38.524104,546.34528 C -36.09422,546.40011 -33.455991,546.46025 -32.661373,546.47893 L -31.216613,546.51288 L -31.157348,545.70892 z"
         style="fill:#ff7f2a;fill-opacity:1;stroke:#000000;stroke-width:0;stroke-linecap:round;stroke-linejoin:round;stroke-miterlimit:4;stroke-dasharray:none;stroke-opacity:1" />
      <path
         id="path3290"
         d="M -75.167394,545.27626 C -74.98468,542.43938 -74.994684,539.01705 -75.192932,536.53962 C -75.222964,536.16431 -75.251438,535.85329 -75.256207,535.84846 C -75.266589,535.83794 -86.98875,535.94026 -86.995443,535.95093 C -86.997995,535.95501 -86.982441,536.17442 -86.960875,536.43852 C -86.764513,538.84307 -86.75381,543.47335 -86.940119,545.41693 L -86.964968,545.67619 L -82.984759,545.70742 C -80.795646,545.7246 -78.148769,545.75228 -77.102812,545.76893 L -75.201074,545.7992 L -75.167394,545.27626 z"
         style="fill:#ff7f2a;fill-opacity:1;stroke:#000000;stroke-width:0;stroke-linecap:round;stroke-linejoin:round;stroke-miterlimit:4;stroke-dasharray:none;stroke-opacity:1" />
      <path
         id="path3292"
         d="M -119.20779,545.34723 C -119.06247,544.58599 -119.04246,539.18942 -119.17729,537.12089 C -119.21172,536.59269 -119.24322,536.15603 -119.24728,536.15054 C -119.26738,536.12343 -130.94959,536.21615 -130.97709,536.24364 C -130.99464,536.2612 -130.9838,536.63636 -130.95299,537.07732 C -130.81533,539.04754 -130.80563,542.61145 -130.93187,544.84177 L -130.96835,545.48623 L -125.10134,545.48623 L -119.23433,545.48623 L -119.20779,545.34723 z"
         style="fill:#ff7f2a;fill-opacity:1;stroke:#000000;stroke-width:0;stroke-linecap:round;stroke-linejoin:round;stroke-miterlimit:4;stroke-dasharray:none;stroke-opacity:1" />
      <path
         id="path3294"
         d="M -163.19092,544.80386 C -163.17405,544.52586 -163.14689,543.14975 -163.13058,541.74584 C -163.10742,539.7526 -163.11807,538.90667 -163.17913,537.88535 C -163.22215,537.16599 -163.26614,536.56863 -163.27689,536.55788 C -163.31185,536.52292 -174.94305,536.73451 -174.98208,536.77081 C -174.99267,536.78067 -174.97287,537.307 -174.93811,537.94045 C -174.86049,539.35422 -174.85823,542.94811 -174.93412,544.24263 C -174.96493,544.76796 -174.98296,545.20494 -174.97421,545.21369 C -174.96545,545.22245 -172.31753,545.24755 -169.08994,545.26947 L -163.2216,545.30932 L -163.19092,544.80386 z"
         style="fill:#ff7f2a;fill-opacity:1;stroke:#000000;stroke-width:0;stroke-linecap:round;stroke-linejoin:round;stroke-miterlimit:4;stroke-dasharray:none;stroke-opacity:1" />
      <path
         id="path3296"
         d="M -190.81968,544.76595 C -190.75179,544.27655 -190.70609,540.99747 -190.74554,539.446 C -190.79546,537.48329 -190.81592,537.24664 -190.93537,537.24877 C -190.98202,537.24961 -194.50028,538.12105 -198.7537,539.18531 L -206.48723,541.12033 L -198.76647,543.05055 C -194.52006,544.11218 -191.00156,544.98077 -190.9476,544.98077 C -190.87054,544.98077 -190.84308,544.93467 -190.81968,544.76595 L -190.81968,544.76595 z"
         style="fill:#999999;fill-opacity:1;stroke:#000000;stroke-width:0;stroke-linecap:round;stroke-linejoin:round;stroke-miterlimit:4;stroke-dasharray:none;stroke-opacity:1" />
      <path
         id="path3298"
         d="M 0.66774357,547.88844 C 0.67953849,547.83214 0.72363985,547.39939 0.7657437,546.92679 C 1.1348629,542.78351 1.1064654,538.45646 0.68438616,534.53042 C 0.59284491,533.67892 0.56096079,533.50688 0.49470668,533.50695 C 0.45090354,533.50699 -0.26730373,533.5634 -1.1013106,533.63229 C -7.8662798,534.1911 -16.839511,534.63272 -29.964287,535.05281 L -31.027039,535.08682 L -30.990706,535.49731 C -30.816576,537.46416 -30.775355,538.54296 -30.776083,541.11402 C -30.776528,542.68704 -30.802175,544.1581 -30.83821,544.6775 C -30.871964,545.164 -30.913806,545.78022 -30.931183,546.04687 L -30.962791,546.53169 L -29.654157,546.56633 C -19.292533,546.84063 -7.8053737,547.3642 -0.87478124,547.87804 L 0.64629534,547.99082 L 0.66774357,547.88844 z"
         style="fill:#cccccc;fill-opacity:1;stroke:#000000;stroke-width:0;stroke-linecap:round;stroke-linejoin:round;stroke-miterlimit:4;stroke-dasharray:none;stroke-opacity:1" />
      <path
         id="path3300"
         d="M -43.191827,545.98558 C -43.041117,544.67467 -42.967467,540.54762 -43.058394,538.50846 C -43.123621,537.04562 -43.237395,535.43809 -43.278617,535.39687 C -43.292897,535.38259 -44.370344,535.39555 -45.672946,535.42567 C -49.326569,535.51014 -59.860297,535.66963 -67.804743,535.76074 C -71.752373,535.80602 -74.986373,535.84658 -74.991403,535.85088 C -74.996437,535.85518 -74.980783,536.0972 -74.956613,536.3887 C -74.783336,538.4786 -74.745377,542.43062 -74.877979,544.57501 C -74.91833,545.22755 -74.946923,545.76525 -74.941525,545.7699 C -74.936127,545.77455 -71.735947,545.81561 -67.830016,545.86115 C -57.829149,545.97775 -47.067945,546.14459 -44.292732,546.22607 L -43.223087,546.25747 L -43.191827,545.98558 z"
         style="fill:#cccccc;fill-opacity:1;stroke:#000000;stroke-width:0;stroke-linecap:round;stroke-linejoin:round;stroke-miterlimit:4;stroke-dasharray:none;stroke-opacity:1" />
      <path
         id="path3302"
         d="M -87.182116,545.35274 C -86.995341,543.28193 -87.021407,538.05744 -87.227795,536.19716 L -87.257375,535.93052 L -89.742962,535.9588 C -91.110038,535.97436 -98.244773,536.02233 -105.59793,536.0654 C -112.95109,536.10846 -118.97493,536.15131 -118.98424,536.16062 C -118.99356,536.16992 -118.9752,536.55716 -118.94345,537.02114 C -118.80181,539.09082 -118.79201,542.61085 -118.92162,544.86118 L -118.95695,545.47449 L -117.82485,545.50442 C -117.20219,545.52088 -111.01771,545.55759 -104.08156,545.58599 C -97.145399,545.6144 -90.512544,545.65154 -89.341874,545.66854 L -87.213386,545.69944 L -87.182116,545.35274 z"
         style="fill:#cccccc;fill-opacity:1;stroke:#000000;stroke-width:0;stroke-linecap:round;stroke-linejoin:round;stroke-miterlimit:4;stroke-dasharray:none;stroke-opacity:1" />
      <path
         id="path3304"
         d="M -131.14862,544.24356 C -131.06154,542.51148 -131.07171,539.37124 -131.16989,537.6769 C -131.215,536.89849 -131.26106,536.25184 -131.27225,536.2399 C -131.31827,536.19076 -157.75941,536.43524 -161.46187,536.51904 L -162.99822,536.55381 L -162.96531,537.19117 C -162.86233,539.18457 -162.83265,541.21747 -162.88217,542.88312 C -162.91109,543.85613 -162.94866,544.80199 -162.96563,544.98503 L -162.99649,545.31783 L -156.81078,545.3514 C -153.40864,545.36986 -146.25655,545.40013 -140.91723,545.41866 L -131.2094,545.45236 L -131.14862,544.24356 z"
         style="fill:#cccccc;fill-opacity:1;stroke:#000000;stroke-width:0;stroke-linecap:round;stroke-linejoin:round;stroke-miterlimit:4;stroke-dasharray:none;stroke-opacity:1" />
      <path
         id="path3306"
         d="M -175.22657,545.07025 C -175.22569,544.97934 -175.20297,544.54102 -175.17609,544.09622 C -175.10663,542.94751 -175.11112,539.36115 -175.18379,537.94132 L -175.24528,536.73992 L -175.83062,536.76676 C -176.15257,536.78152 -177.41678,536.81661 -178.63999,536.84473 C -182.81531,536.94071 -190.77397,537.20763 -190.8187,537.25318 C -190.82915,537.26382 -190.81424,537.54548 -190.78555,537.87908 C -190.71894,538.65363 -190.71993,543.89894 -190.7868,544.50059 C -190.8146,544.75079 -190.82677,544.96632 -190.81384,544.97953 C -190.78203,545.01205 -184.11969,545.11715 -179.72673,545.15445 C -177.76681,545.17109 -175.95286,545.19614 -175.6957,545.21012 L -175.22815,545.23554 L -175.22657,545.07025 z"
         style="fill:#b3b3b3;fill-opacity:1;stroke:#000000;stroke-width:0;stroke-linecap:round;stroke-linejoin:round;stroke-miterlimit:4;stroke-dasharray:none;stroke-opacity:1" />
      <path
         d="M 41.187736,515.09903 C 37.184708,525.1066 25.040722,530.72917 5.087817,532.936 C -32.493765,537.0926 -142.95155,535.11417 -190.98789,537.11568 L -207,541.11871 L -190.98789,545.12174 C -143.50007,546.05279 -31.581072,544.84324 5.0317666,548.49775 C 25.064126,550.49728 37.184708,555.12931 41.187736,567.13839 M -175.11346,545.33407 C -175.02263,543.95459 -174.97578,542.54753 -174.97578,541.11871 C -174.97578,539.59625 -175.02898,538.0985 -175.13187,536.63249 M -163.11154,545.44144 C -163.01603,544.02762 -162.96669,542.58461 -162.96669,541.11871 C -162.96669,539.52457 -163.02504,537.95752 -163.13766,536.42563 M -131.09857,545.60492 C -130.99567,544.13891 -130.94246,542.64116 -130.94246,541.11871 C -130.94246,539.41148 -131.00937,537.73531 -131.13822,536.10013 M -119.09346,545.66112 C -118.98796,544.1772 -118.93338,542.66062 -118.93338,541.11871 C -118.93338,539.38536 -119.00235,537.68404 -119.1351,536.02513 M -87.08059,545.81802 C -86.967654,544.28415 -86.90916,542.71501 -86.90916,541.11871 C -86.90916,539.30919 -86.984325,537.53457 -87.128748,535.80667 M -75.080404,545.93732 C -74.961645,544.36555 -74.900076,542.75642 -74.900076,541.11871 C -74.900076,539.26795 -74.978707,537.45369 -75.129648,535.68859 M -43.093373,546.40597 C -42.9503,544.68588 -42.875852,542.91958 -42.875852,541.11871 C -42.875852,539.10263 -42.969157,537.12987 -43.147598,535.21677 M -31.106039,546.66106 C -30.94877,544.86066 -30.866768,543.00872 -30.866768,541.11871 C -30.866768,539.00916 -30.968925,536.94704 -31.163881,534.95107 M 0.76860386,548.16026 C 1.0231344,545.89426 1.157456,543.53766 1.157456,541.11871 C 1.157456,538.42888 0.99136837,535.81616 0.67859578,533.31937 M 12.61651,549.46545 C 12.975199,546.80404 13.16654,544.00579 13.16654,541.11871 C 13.16654,537.91016 12.930215,534.81134 12.490505,531.88811"
         style="fill:none;fill-rule:evenodd;stroke:#000000;stroke-width:1;stroke-linecap:butt;stroke-linejoin:miter;stroke-miterlimit:4;stroke-dasharray:none;stroke-opacity:1"
         id="path2389" />
    </g>
    <path
       sodipodi:type="arc"
       style="opacity:1;fill:#333333;fill-opacity:1;stroke:#000000;stroke-width:1;stroke-linecap:round;stroke-linejoin:round;stroke-miterlimit:4;stroke-dasharray:none;stroke-opacity:1"
       id="path3217"
       sodipodi:cx="-5"
       sodipodi:cy="704.09448"
       sodipodi:rx="10"
       sodipodi:ry="10"
       d="m 5,704.09448 c 0,5.52285 -4.4771525,10 -10,10 -5.522847,0 -10,-4.47715 -10,-10 0,-5.52285 4.477153,-10 10,-10 5.5228475,0 10,4.47715 10,10 z"
       transform="translate(790.70926,-309.09448)" />
    <path
       sodipodi:type="arc"
       style="opacity:1;fill:#333333;fill-opacity:1;stroke:#000000;stroke-width:1;stroke-linecap:round;stroke-linejoin:round;stroke-miterlimit:4;stroke-dasharray:none;stroke-opacity:1"
       id="path3219"
       sodipodi:cx="-5"
       sodipodi:cy="704.09448"
       sodipodi:rx="10"
       sodipodi:ry="10"
       d="m 5,704.09448 c 0,5.52285 -4.4771525,10 -10,10 -5.522847,0 -10,-4.47715 -10,-10 0,-5.52285 4.477153,-10 10,-10 5.5228475,0 10,4.47715 10,10 z"
       transform="translate(820.70926,-354.09448)" />
    <path
       style="fill:#808080;fill-rule:evenodd;stroke:#000000;stroke-width:1px;stroke-linecap:butt;stroke-linejoin:miter;stroke-opacity:1"
       d="M 725.71428,134.64696 L 860,163.21839 L 859.28571,156.07553 L 805,144.64696 L 811.42857,106.07552 L 741.42857,89.646954 L 725.71428,134.64696 z"
       id="path3394" />
  </g>
  <g
     inkscape:groupmode="layer"
     id="layer2"
     style="display:inline"
     transform="translate(1.5,3.5000058)">
    <path
       style="fill:#333333;fill-rule:evenodd;stroke:#000000;stroke-width:1px;stroke-linecap:butt;stroke-linejoin:miter;stroke-opacity:1"
       d="M 159.29074,335 L 139.29074,335 L 84.29074,340 L 84.29074,350 L 139.29074,345 L 114.29074,385 L 114.29074,395 L 149.29074,345 L 159.29074,345 L 204.29074,380 L 204.29074,370 L 159.29074,335 z"
       id="path2628"
       sodipodi:nodetypes="cccccccccccc" />
    <path
       sodipodi:type="arc"
       style="opacity:1;fill:#333333;fill-opacity:1;stroke:#000000;stroke-width:1;stroke-linecap:round;stroke-linejoin:round;stroke-miterlimit:4;stroke-dasharray:none;stroke-opacity:1"
       id="path2630"
       sodipodi:cx="-5"
       sodipodi:cy="704.09448"
       sodipodi:rx="10"
       sodipodi:ry="10"
       d="m 5,704.09448 c 0,5.52285 -4.4771525,10 -10,10 -5.522847,0 -10,-4.47715 -10,-10 0,-5.52285 4.477153,-10 10,-10 5.5228475,0 10,4.47715 10,10 z"
       transform="matrix(-1,0,0,1,199.29074,-324.09448)" />
    <path
       style="fill:#cccccc;fill-rule:evenodd;stroke:#000000;stroke-width:1px;stroke-linecap:butt;stroke-linejoin:miter;stroke-opacity:1"
       d="M 154.29074,275 L 154.29074,340 L 144.29074,340 L 144.29074,275 L 154.29074,275 z"
       id="path2632"
       sodipodi:nodetypes="ccccc" />
    <path
       style="fill:#cccccc;fill-rule:evenodd;stroke:#000000;stroke-width:1px;stroke-linecap:butt;stroke-linejoin:miter;stroke-opacity:1"
       d="M 194.29074,235 L 194.29074,295 L 159.29074,295 L 154.29074,285 L 189.29074,285 L 189.29074,235 L 194.29074,235 z"
       id="path2634"
       sodipodi:nodetypes="ccccccc" />
    <path
       style="fill:#4d4d4d;fill-opacity:1;fill-rule:evenodd;stroke:#000000;stroke-width:1px;stroke-linecap:butt;stroke-linejoin:round;stroke-opacity:1"
       d="M 204.29074,270 L 214.29074,270 L 214.29074,245 L 179.29074,185 L 169.29074,185 L 169.29074,210 L 204.29074,270 z"
       id="path2636"
       sodipodi:nodetypes="ccccccc" />
    <path
       style="fill:#cccccc;fill-rule:evenodd;stroke:#000000;stroke-width:1px;stroke-linecap:butt;stroke-linejoin:miter;stroke-opacity:1"
       d="M 180.23008,208.18198 L 181.29074,265 L 146.29074,265 L 141.29074,255 L 176.29074,255 L 176.29074,205 L 180.23008,208.18198 z"
       id="path2638"
       sodipodi:nodetypes="ccccccc" />
    <path
       style="fill:#333333;fill-opacity:1;fill-rule:evenodd;stroke:#000000;stroke-width:1px;stroke-linecap:butt;stroke-linejoin:round;stroke-opacity:1"
       d="M 204.29074,270 L 169.29074,210 L 169.29074,185 L 204.29074,245 L 204.29074,270 z"
       id="path2640"
       sodipodi:nodetypes="ccccc" />
    <g
       id="g2642"
       transform="matrix(-1,0,0,1,195.29074,-334.09448)">
      <path
         sodipodi:nodetypes="ccccccc"
         id="path2644"
         d="M 26,579.09448 L 106,579.09448 L 106,589.09448 L 86,634.09448 L 6,634.09448 L 6,624.09448 L 26,579.09448 z"
         style="fill:#4d4d4d;fill-rule:evenodd;stroke:#000000;stroke-width:1.24224746px;stroke-linecap:butt;stroke-linejoin:round;stroke-opacity:1" />
      <path
         sodipodi:nodetypes="ccccc"
         id="path2646"
         d="M 26,579.09448 L 106,579.09448 L 86,624.09448 L 6,624.09448 L 26,579.09448 z"
         style="fill:#333333;fill-rule:evenodd;stroke:#000000;stroke-width:1.24224746px;stroke-linecap:butt;stroke-linejoin:round;stroke-opacity:1" />
    </g>
    <g
       style="display:inline"
       id="g2424"
       transform="matrix(-0.2282609,0,0,0.2282609,347.93482,65.869534)">
      <g
         style="opacity:1;stroke:none;display:inline"
         id="g23094">
        <path
           style="fill:#c87615;fill-opacity:1;fill-rule:evenodd;stroke:none;stroke-width:5;stroke-linecap:butt;stroke-linejoin:miter;stroke-miterlimit:4;stroke-dasharray:none;stroke-opacity:1"
           d="M 1130,730 C 1110,730 1030,790 1030,790 L 1030,890 L 1070,850 L 1130,730 z"
           id="path2777"
           sodipodi:nodetypes="ccccc" />
        <path
           style="fill:#c87615;fill-opacity:1;fill-rule:evenodd;stroke:none;stroke-width:5;stroke-linecap:butt;stroke-linejoin:miter;stroke-miterlimit:4;stroke-dasharray:none;stroke-opacity:1;display:inline"
           d="M 1020,520 L 1100,440 L 1040,360 L 1020,320 L 1000,280 L 890,280 L 900,240 L 866.0599,140.67852 L 780,240 L 820,320 L 800,360 L 740,430 L 820,520 L 820,560 L 720,660 L 820,640 L 820,780 L 740,940 L 870,900 L 1020,860"
           id="path2779"
           sodipodi:nodetypes="cccccccccccccccccccc"
           inkscape:export-filename="C:\Users\Andrew\Desktop\rabbits.png"
           inkscape:export-xdpi="90"
           inkscape:export-ydpi="90" />
        <path
           style="fill:#c87615;fill-opacity:1;fill-rule:evenodd;stroke:none;stroke-width:5;stroke-linecap:butt;stroke-linejoin:miter;stroke-miterlimit:4;stroke-dasharray:none;stroke-opacity:1;display:inline"
           d="M 970,300 L 940,240 L 1016.7665,176.30323 L 1060,240 L 1020,320"
           id="path2781"
           sodipodi:nodetypes="ccccc"
           inkscape:export-filename="C:\Users\Andrew\Desktop\rabbits.png"
           inkscape:export-xdpi="90"
           inkscape:export-ydpi="90" />
        <path
           style="fill:#d38d5f;fill-opacity:1;fill-rule:evenodd;stroke:none;stroke-width:5;stroke-linecap:butt;stroke-linejoin:miter;stroke-miterlimit:4;stroke-dasharray:none;stroke-opacity:1;display:inline"
           d="M 840,520 C 840,520 820,554.513 820,560 C 820,621.36574 820,780 820,780 L 870,900 L 950,910 L 1000,800 L 1000,580 L 970,530 L 840,520 z"
           id="path2783"
           sodipodi:nodetypes="csccccccc"
           inkscape:export-filename="C:\Users\Andrew\Desktop\rabbits.png"
           inkscape:export-xdpi="90"
           inkscape:export-ydpi="90" />
        <path
           style="fill:#c87615;fill-opacity:1;fill-rule:evenodd;stroke:none;stroke-width:5;stroke-linecap:butt;stroke-linejoin:miter;stroke-miterlimit:4;stroke-dasharray:none;stroke-opacity:1;display:inline"
           d="M 1000,580 L 910,670 L 1000,650 L 1000,800 L 920,960 L 1070,890 L 1070,600 L 1020,520"
           id="path2785"
           sodipodi:nodetypes="cccccccc"
           inkscape:export-filename="C:\Users\Andrew\Desktop\rabbits.png"
           inkscape:export-xdpi="90"
           inkscape:export-ydpi="90" />
        <path
           sodipodi:type="arc"
           style="fill:#000000;fill-opacity:1;fill-rule:evenodd;stroke:none;stroke-width:1px;stroke-linecap:butt;stroke-linejoin:miter;stroke-opacity:1;display:inline"
           id="path2787"
           sodipodi:cx="230"
           sodipodi:cy="262.36218"
           sodipodi:rx="12"
           sodipodi:ry="30"
           d="m 242,262.36218 c 0,16.56855 -5.37258,30 -12,30 -6.62742,0 -12,-13.43145 -12,-30 0,-16.56854 5.37258,-30 12,-30 6.62742,0 12,13.43146 12,30 z"
           transform="matrix(0.8164868,0,0,1.0015947,662.45804,96.719429)"
           inkscape:export-filename="C:\Users\Andrew\Desktop\rabbits.png"
           inkscape:export-xdpi="90"
           inkscape:export-ydpi="90" />
        <path
           sodipodi:type="arc"
           style="fill:#000000;fill-opacity:1;fill-rule:evenodd;stroke:none;stroke-width:1px;stroke-linecap:butt;stroke-linejoin:miter;stroke-opacity:1;display:inline"
           id="path3337"
           sodipodi:cx="230"
           sodipodi:cy="262.36218"
           sodipodi:rx="12"
           sodipodi:ry="30"
           d="m 242,262.36218 c 0,16.56855 -5.37258,30 -12,30 -6.62742,0 -12,-13.43145 -12,-30 0,-16.56854 5.37258,-30 12,-30 6.62742,0 12,13.43146 12,30 z"
           transform="matrix(0.8164868,0,0,1.0015947,761.95804,97.719428)"
           inkscape:export-filename="C:\Users\Andrew\Desktop\rabbits.png"
           inkscape:export-xdpi="90"
           inkscape:export-ydpi="90" />
        <path
           style="fill:#000000;fill-opacity:1;fill-rule:evenodd;stroke:none;stroke-width:5;stroke-linecap:butt;stroke-linejoin:miter;stroke-miterlimit:4;stroke-dasharray:none;stroke-opacity:1"
           d="M 880,410 L 900,440 L 920,410"
           id="path2790"
           sodipodi:nodetypes="ccc"
           inkscape:export-filename="C:\Users\Andrew\Desktop\rabbits.png"
           inkscape:export-xdpi="90"
           inkscape:export-ydpi="90" />
        <path
           style="fill:none;fill-rule:evenodd;stroke:none;stroke-width:1px;stroke-linecap:butt;stroke-linejoin:miter;stroke-opacity:1"
           d="M 820,620 L 820,780 L 820,780"
           id="path3195"
           inkscape:export-filename="C:\Users\Andrew\Desktop\rabbits.png"
           inkscape:export-xdpi="90"
           inkscape:export-ydpi="90" />
      </g>
      <path
         sodipodi:nodetypes="ccccccccccccccccccccccccccccccccccccscccccccccc"
         d="M 1130,730 C 1110,730 1070,765.71429 1070,765.71429 L 1070,850 L 1130,730 z M 960.12998,280 L 890,280 L 900,240 L 866.0599,140.67852 L 795.489,247.7445 L 820,320 L 800,360 L 740,430 L 820,520 L 820,560 L 720,660 L 820,640 L 820,780 L 740,940 L 870,900 M 970,300 L 940,240 L 1016.7665,176.30323 L 1060,240 L 1020,320 L 1040,360 L 1100,440 L 1020,520 L 1070,600 L 1070,890 L 920,960 L 1000,800 L 1000,650 L 932.85718,675.23813 L 1000,580 L 970,530 L 840,520 C 840,520 820,554.513 820,560 C 820,621.36574 820,780 820,780 L 870,900 L 945,910 M 920,410 L 880,410 L 900,440 L 920,410 z M 900,440 L 900,460 L 900,460"
         style="opacity:1;fill:none;fill-opacity:1;fill-rule:evenodd;stroke:#000000;stroke-width:5;stroke-linecap:butt;stroke-linejoin:miter;stroke-miterlimit:4;stroke-dasharray:none;stroke-opacity:1"
         id="path5408" />
    </g>
    <path
       id="path2674"
       style="fill:#294500;fill-opacity:1;stroke:#000000;stroke-width:1;stroke-linecap:round;stroke-linejoin:round;stroke-miterlimit:4;stroke-dasharray:none;stroke-opacity:1"
       d="M 138.3448,214.18822 L 62.593316,207.45298 C 61.208299,212.56691 61.787434,210.13848 61.883622,215.43493 L 137.63511,222.17017"
       sodipodi:nodetypes="cccc"
       inkscape:transform-center-x="24.986645"
       inkscape:transform-center-y="-2.2126551" />
    <path
       style="fill:#c87615;fill-opacity:1;fill-rule:evenodd;stroke:#000000;stroke-width:1px;stroke-linecap:butt;stroke-linejoin:miter;stroke-opacity:1"
       d="M 119.11612,194.82322 L 139.29074,225 L 117.29074,211"
       id="path2676"
       sodipodi:nodetypes="ccc" />
    <g
       id="g2678"
       transform="matrix(-0.9960706,-8.8562996e-2,-8.8562996e-2,0.9960706,234.96907,-316.45154)"
       inkscape:transform-center-x="-135.52862"
       inkscape:transform-center-y="1.6916988">
      <path
         transform="matrix(-0.2001514,0,0,0.2001514,67.207418,498.61412)"
         d="m 200,212.36218 c 0,88.36556 -35.81722,160 -80,160 -44.18278,0 -80,-71.63444 -80,-160 0,-88.36556 35.81722,-159.999997 80,-159.999997 44.18278,0 80,71.634437 80,159.999997 z"
         sodipodi:ry="160"
         sodipodi:rx="80"
         sodipodi:cy="212.36218"
         sodipodi:cx="120"
         id="path2680"
         style="fill:#c6c6c6;fill-opacity:1;stroke:#000000;stroke-width:4.99621773;stroke-linecap:round;stroke-linejoin:round;stroke-miterlimit:4;stroke-dasharray:none;stroke-opacity:1"
         sodipodi:type="arc" />
      <path
         id="path2682"
         d="M 41.043735,565.76845 C 44.051144,560.82269 46.023651,553.91607 46.683201,546.02217 C 46.864259,543.85518 46.890451,538.81872 46.731427,536.74904 C 46.143368,529.09552 44.355784,522.35676 41.60508,517.42393 C 40.723193,515.84244 40.841242,515.90056 40.377853,516.81978 C 38.483773,520.57706 34.879566,523.97876 30.146092,526.47665 C 25.970453,528.68016 20.327475,530.51947 14.227873,531.66514 C 13.449466,531.81134 12.741146,531.95169 12.653824,531.97702 C 12.512003,532.01817 12.508909,532.12807 12.624932,533.00767 C 13.24326,537.69526 13.270363,543.55509 12.697617,548.72104 C 12.623253,549.39184 12.441177,549.29437 14.365873,549.61417 C 20.624127,550.65405 26.295803,552.43085 30.366094,554.62667 C 32.735142,555.90471 34.480795,557.1939 36.186265,558.92494 C 38.123524,560.89126 39.364985,562.73815 40.514595,565.36409 L 40.839016,566.10512 L 41.043735,565.76845 z"
         style="fill:#cccccc;fill-opacity:1;stroke:#000000;stroke-width:0;stroke-linecap:round;stroke-linejoin:round;stroke-miterlimit:4;stroke-dasharray:none;stroke-opacity:1" />
      <path
         id="path2684"
         d="M 12.519174,549.27997 C 12.519174,549.25545 12.564314,548.85243 12.619488,548.38436 C 13.104787,544.26735 13.159605,539.53151 12.770639,535.32651 C 12.653602,534.06127 12.4162,532.13336 12.370884,532.08015 C 12.353695,532.05997 12.010409,532.09968 11.608031,532.16841 C 9.3833303,532.54837 6.0062798,532.97793 2.8207842,533.28612 L 0.83064079,533.47867 L 0.86182037,533.80868 C 0.87897335,533.99018 0.92615904,534.45712 0.96668169,534.84633 C 1.3598211,538.62234 1.3632036,543.4138 0.97547635,547.30588 C 0.93809007,547.68119 0.91006487,547.9918 0.91319924,547.99613 C 0.91633161,548.00046 1.7263683,548.07549 2.7132769,548.16286 C 5.1831972,548.38152 8.2932457,548.72612 10.522612,549.02815 C 11.55122,549.1675 12.42124,549.2912 12.455991,549.30303 C 12.490741,549.31487 12.519174,549.30448 12.519174,549.27997 L 12.519174,549.27997 z"
         style="fill:#ff7f2a;fill-opacity:1;stroke:#000000;stroke-width:0;stroke-linecap:round;stroke-linejoin:round;stroke-miterlimit:4;stroke-dasharray:none;stroke-opacity:1" />
      <path
         id="path2686"
         d="M -31.157348,545.70892 C -30.973385,543.21337 -30.956876,539.33004 -31.120624,537.07035 C -31.160915,536.51434 -31.21003,535.83622 -31.229771,535.56341 L -31.265662,535.0674 L -31.700252,535.09587 C -32.127534,535.12385 -33.492912,535.15838 -39.811426,535.30098 C -41.559326,535.34043 -42.994184,535.37937 -43.000002,535.38752 C -43.005818,535.39567 -42.982098,535.74352 -42.947286,536.16052 C -42.755279,538.46046 -42.726791,543.19849 -42.891974,545.35987 C -42.928096,545.83247 -42.954141,546.22509 -42.94986,546.23236 C -42.945579,546.23963 -40.953988,546.29044 -38.524104,546.34528 C -36.09422,546.40011 -33.455991,546.46025 -32.661373,546.47893 L -31.216613,546.51288 L -31.157348,545.70892 z"
         style="fill:#ff7f2a;fill-opacity:1;stroke:#000000;stroke-width:0;stroke-linecap:round;stroke-linejoin:round;stroke-miterlimit:4;stroke-dasharray:none;stroke-opacity:1" />
      <path
         id="path2688"
         d="M -75.167394,545.27626 C -74.98468,542.43938 -74.994684,539.01705 -75.192932,536.53962 C -75.222964,536.16431 -75.251438,535.85329 -75.256207,535.84846 C -75.266589,535.83794 -86.98875,535.94026 -86.995443,535.95093 C -86.997995,535.95501 -86.982441,536.17442 -86.960875,536.43852 C -86.764513,538.84307 -86.75381,543.47335 -86.940119,545.41693 L -86.964968,545.67619 L -82.984759,545.70742 C -80.795646,545.7246 -78.148769,545.75228 -77.102812,545.76893 L -75.201074,545.7992 L -75.167394,545.27626 z"
         style="fill:#ff7f2a;fill-opacity:1;stroke:#000000;stroke-width:0;stroke-linecap:round;stroke-linejoin:round;stroke-miterlimit:4;stroke-dasharray:none;stroke-opacity:1" />
      <path
         id="path2690"
         d="M -119.20779,545.34723 C -119.06247,544.58599 -119.04246,539.18942 -119.17729,537.12089 C -119.21172,536.59269 -119.24322,536.15603 -119.24728,536.15054 C -119.26738,536.12343 -130.94959,536.21615 -130.97709,536.24364 C -130.99464,536.2612 -130.9838,536.63636 -130.95299,537.07732 C -130.81533,539.04754 -130.80563,542.61145 -130.93187,544.84177 L -130.96835,545.48623 L -125.10134,545.48623 L -119.23433,545.48623 L -119.20779,545.34723 z"
         style="fill:#ff7f2a;fill-opacity:1;stroke:#000000;stroke-width:0;stroke-linecap:round;stroke-linejoin:round;stroke-miterlimit:4;stroke-dasharray:none;stroke-opacity:1" />
      <path
         id="path2692"
         d="M -163.19092,544.80386 C -163.17405,544.52586 -163.14689,543.14975 -163.13058,541.74584 C -163.10742,539.7526 -163.11807,538.90667 -163.17913,537.88535 C -163.22215,537.16599 -163.26614,536.56863 -163.27689,536.55788 C -163.31185,536.52292 -174.94305,536.73451 -174.98208,536.77081 C -174.99267,536.78067 -174.97287,537.307 -174.93811,537.94045 C -174.86049,539.35422 -174.85823,542.94811 -174.93412,544.24263 C -174.96493,544.76796 -174.98296,545.20494 -174.97421,545.21369 C -174.96545,545.22245 -172.31753,545.24755 -169.08994,545.26947 L -163.2216,545.30932 L -163.19092,544.80386 z"
         style="fill:#ff7f2a;fill-opacity:1;stroke:#000000;stroke-width:0;stroke-linecap:round;stroke-linejoin:round;stroke-miterlimit:4;stroke-dasharray:none;stroke-opacity:1" />
      <path
         id="path2694"
         d="M -190.81968,544.76595 C -190.75179,544.27655 -190.70609,540.99747 -190.74554,539.446 C -190.79546,537.48329 -190.81592,537.24664 -190.93537,537.24877 C -190.98202,537.24961 -194.50028,538.12105 -198.7537,539.18531 L -206.48723,541.12033 L -198.76647,543.05055 C -194.52006,544.11218 -191.00156,544.98077 -190.9476,544.98077 C -190.87054,544.98077 -190.84308,544.93467 -190.81968,544.76595 L -190.81968,544.76595 z"
         style="fill:#999999;fill-opacity:1;stroke:#000000;stroke-width:0;stroke-linecap:round;stroke-linejoin:round;stroke-miterlimit:4;stroke-dasharray:none;stroke-opacity:1" />
      <path
         id="path2696"
         d="M 0.66774357,547.88844 C 0.67953849,547.83214 0.72363985,547.39939 0.7657437,546.92679 C 1.1348629,542.78351 1.1064654,538.45646 0.68438616,534.53042 C 0.59284491,533.67892 0.56096079,533.50688 0.49470668,533.50695 C 0.45090354,533.50699 -0.26730373,533.5634 -1.1013106,533.63229 C -7.8662798,534.1911 -16.839511,534.63272 -29.964287,535.05281 L -31.027039,535.08682 L -30.990706,535.49731 C -30.816576,537.46416 -30.775355,538.54296 -30.776083,541.11402 C -30.776528,542.68704 -30.802175,544.1581 -30.83821,544.6775 C -30.871964,545.164 -30.913806,545.78022 -30.931183,546.04687 L -30.962791,546.53169 L -29.654157,546.56633 C -19.292533,546.84063 -7.8053737,547.3642 -0.87478124,547.87804 L 0.64629534,547.99082 L 0.66774357,547.88844 z"
         style="fill:#cccccc;fill-opacity:1;stroke:#000000;stroke-width:0;stroke-linecap:round;stroke-linejoin:round;stroke-miterlimit:4;stroke-dasharray:none;stroke-opacity:1" />
      <path
         id="path2698"
         d="M -43.191827,545.98558 C -43.041117,544.67467 -42.967467,540.54762 -43.058394,538.50846 C -43.123621,537.04562 -43.237395,535.43809 -43.278617,535.39687 C -43.292897,535.38259 -44.370344,535.39555 -45.672946,535.42567 C -49.326569,535.51014 -59.860297,535.66963 -67.804743,535.76074 C -71.752373,535.80602 -74.986373,535.84658 -74.991403,535.85088 C -74.996437,535.85518 -74.980783,536.0972 -74.956613,536.3887 C -74.783336,538.4786 -74.745377,542.43062 -74.877979,544.57501 C -74.91833,545.22755 -74.946923,545.76525 -74.941525,545.7699 C -74.936127,545.77455 -71.735947,545.81561 -67.830016,545.86115 C -57.829149,545.97775 -47.067945,546.14459 -44.292732,546.22607 L -43.223087,546.25747 L -43.191827,545.98558 z"
         style="fill:#cccccc;fill-opacity:1;stroke:#000000;stroke-width:0;stroke-linecap:round;stroke-linejoin:round;stroke-miterlimit:4;stroke-dasharray:none;stroke-opacity:1" />
      <path
         id="path2700"
         d="M -87.182116,545.35274 C -86.995341,543.28193 -87.021407,538.05744 -87.227795,536.19716 L -87.257375,535.93052 L -89.742962,535.9588 C -91.110038,535.97436 -98.244773,536.02233 -105.59793,536.0654 C -112.95109,536.10846 -118.97493,536.15131 -118.98424,536.16062 C -118.99356,536.16992 -118.9752,536.55716 -118.94345,537.02114 C -118.80181,539.09082 -118.79201,542.61085 -118.92162,544.86118 L -118.95695,545.47449 L -117.82485,545.50442 C -117.20219,545.52088 -111.01771,545.55759 -104.08156,545.58599 C -97.145399,545.6144 -90.512544,545.65154 -89.341874,545.66854 L -87.213386,545.69944 L -87.182116,545.35274 z"
         style="fill:#cccccc;fill-opacity:1;stroke:#000000;stroke-width:0;stroke-linecap:round;stroke-linejoin:round;stroke-miterlimit:4;stroke-dasharray:none;stroke-opacity:1" />
      <path
         id="path2702"
         d="M -131.14862,544.24356 C -131.06154,542.51148 -131.07171,539.37124 -131.16989,537.6769 C -131.215,536.89849 -131.26106,536.25184 -131.27225,536.2399 C -131.31827,536.19076 -157.75941,536.43524 -161.46187,536.51904 L -162.99822,536.55381 L -162.96531,537.19117 C -162.86233,539.18457 -162.83265,541.21747 -162.88217,542.88312 C -162.91109,543.85613 -162.94866,544.80199 -162.96563,544.98503 L -162.99649,545.31783 L -156.81078,545.3514 C -153.40864,545.36986 -146.25655,545.40013 -140.91723,545.41866 L -131.2094,545.45236 L -131.14862,544.24356 z"
         style="fill:#cccccc;fill-opacity:1;stroke:#000000;stroke-width:0;stroke-linecap:round;stroke-linejoin:round;stroke-miterlimit:4;stroke-dasharray:none;stroke-opacity:1" />
      <path
         id="path2704"
         d="M -175.22657,545.07025 C -175.22569,544.97934 -175.20297,544.54102 -175.17609,544.09622 C -175.10663,542.94751 -175.11112,539.36115 -175.18379,537.94132 L -175.24528,536.73992 L -175.83062,536.76676 C -176.15257,536.78152 -177.41678,536.81661 -178.63999,536.84473 C -182.81531,536.94071 -190.77397,537.20763 -190.8187,537.25318 C -190.82915,537.26382 -190.81424,537.54548 -190.78555,537.87908 C -190.71894,538.65363 -190.71993,543.89894 -190.7868,544.50059 C -190.8146,544.75079 -190.82677,544.96632 -190.81384,544.97953 C -190.78203,545.01205 -184.11969,545.11715 -179.72673,545.15445 C -177.76681,545.17109 -175.95286,545.19614 -175.6957,545.21012 L -175.22815,545.23554 L -175.22657,545.07025 z"
         style="fill:#b3b3b3;fill-opacity:1;stroke:#000000;stroke-width:0;stroke-linecap:round;stroke-linejoin:round;stroke-miterlimit:4;stroke-dasharray:none;stroke-opacity:1" />
      <path
         d="M 41.187736,515.09903 C 37.184708,525.1066 25.040722,530.72917 5.087817,532.936 C -32.493765,537.0926 -142.95155,535.11417 -190.98789,537.11568 L -207,541.11871 L -190.98789,545.12174 C -143.50007,546.05279 -31.581072,544.84324 5.0317666,548.49775 C 25.064126,550.49728 37.184708,555.12931 41.187736,567.13839 M -175.11346,545.33407 C -175.02263,543.95459 -174.97578,542.54753 -174.97578,541.11871 C -174.97578,539.59625 -175.02898,538.0985 -175.13187,536.63249 M -163.11154,545.44144 C -163.01603,544.02762 -162.96669,542.58461 -162.96669,541.11871 C -162.96669,539.52457 -163.02504,537.95752 -163.13766,536.42563 M -131.09857,545.60492 C -130.99567,544.13891 -130.94246,542.64116 -130.94246,541.11871 C -130.94246,539.41148 -131.00937,537.73531 -131.13822,536.10013 M -119.09346,545.66112 C -118.98796,544.1772 -118.93338,542.66062 -118.93338,541.11871 C -118.93338,539.38536 -119.00235,537.68404 -119.1351,536.02513 M -87.08059,545.81802 C -86.967654,544.28415 -86.90916,542.71501 -86.90916,541.11871 C -86.90916,539.30919 -86.984325,537.53457 -87.128748,535.80667 M -75.080404,545.93732 C -74.961645,544.36555 -74.900076,542.75642 -74.900076,541.11871 C -74.900076,539.26795 -74.978707,537.45369 -75.129648,535.68859 M -43.093373,546.40597 C -42.9503,544.68588 -42.875852,542.91958 -42.875852,541.11871 C -42.875852,539.10263 -42.969157,537.12987 -43.147598,535.21677 M -31.106039,546.66106 C -30.94877,544.86066 -30.866768,543.00872 -30.866768,541.11871 C -30.866768,539.00916 -30.968925,536.94704 -31.163881,534.95107 M 0.76860386,548.16026 C 1.0231344,545.89426 1.157456,543.53766 1.157456,541.11871 C 1.157456,538.42888 0.99136837,535.81616 0.67859578,533.31937 M 12.61651,549.46545 C 12.975199,546.80404 13.16654,544.00579 13.16654,541.11871 C 13.16654,537.91016 12.930215,534.81134 12.490505,531.88811"
         style="fill:none;fill-rule:evenodd;stroke:#000000;stroke-width:1;stroke-linecap:butt;stroke-linejoin:miter;stroke-miterlimit:4;stroke-dasharray:none;stroke-opacity:1"
         id="path2706" />
    </g>
    <path
       sodipodi:type="arc"
       style="opacity:1;fill:#333333;fill-opacity:1;stroke:#000000;stroke-width:1;stroke-linecap:round;stroke-linejoin:round;stroke-miterlimit:4;stroke-dasharray:none;stroke-opacity:1"
       id="path2708"
       sodipodi:cx="-5"
       sodipodi:cy="704.09448"
       sodipodi:rx="10"
       sodipodi:ry="10"
       d="m 5,704.09448 c 0,5.52285 -4.4771525,10 -10,10 -5.522847,0 -10,-4.47715 -10,-10 0,-5.52285 4.477153,-10 10,-10 5.5228475,0 10,4.47715 10,10 z"
       transform="matrix(-1,0,0,1,109.29074,-309.09448)" />
    <path
       sodipodi:type="arc"
       style="opacity:1;fill:#333333;fill-opacity:1;stroke:#000000;stroke-width:1;stroke-linecap:round;stroke-linejoin:round;stroke-miterlimit:4;stroke-dasharray:none;stroke-opacity:1"
       id="path2710"
       sodipodi:cx="-5"
       sodipodi:cy="704.09448"
       sodipodi:rx="10"
       sodipodi:ry="10"
       d="m 5,704.09448 c 0,5.52285 -4.4771525,10 -10,10 -5.522847,0 -10,-4.47715 -10,-10 0,-5.52285 4.477153,-10 10,-10 5.5228475,0 10,4.47715 10,10 z"
       transform="matrix(-1,0,0,1,79.29074,-354.09448)" />
    <path
       style="fill:#808080;fill-rule:evenodd;stroke:#000000;stroke-width:0.96990758px;stroke-linecap:butt;stroke-linejoin:miter;stroke-opacity:1"
       d="M 176.82723,134.65387 L 42.62107,150.41047 L 43.94829,143.67427 L 98.19117,137.42027 L 95.27051,100.16926 L 165.3637,90.495085 L 176.82723,134.65387 z"
       id="path2712" />
    <path
       sodipodi:nodetypes="ccccc"
       id="path3667"
       d="M 151.06373,175.1514 L 142.5755,174.34026 L 133.67242,175.1514 L 142.50001,170.86955 L 151.06373,175.1514 z"
       style="fill:#550000;fill-rule:evenodd;stroke:#000000;stroke-width:1.09000003;stroke-linecap:butt;stroke-linejoin:miter;stroke-miterlimit:4;stroke-dasharray:none;stroke-opacity:1;display:inline" />
  </g>
  <g
     inkscape:groupmode="layer"
     id="layer7"
     transform="translate(1.5,3.5000058)" />
  <g
     inkscape:groupmode="layer"
     id="layer4"
     style="display:inline"
     transform="translate(1.5,3.5000058)">
    <g
       id="g4452"
       transform="translate(7,-4)">
      <path
         style="fill:#ffffff;fill-opacity:1;stroke:#000000;stroke-width:1;stroke-miterlimit:4;stroke-dasharray:none"
         d="M 199.5,69.499994 L 199.5,100.49999 L 309.5,100.49999 L 324.34375,176.03125 L 287.03125,176.03125 L 287.03125,189.5625 L 185,175 L 287.03125,199.28125 L 287.03125,209.96875 L 437.96875,209.96875 L 437.96875,176.03125 L 334.34375,176.03125 L 319.5,100.49999 L 431.5,100.49999 L 431.5,69.499994 L 199.5,69.499994 z"
         transform="translate(-7,4)"
         id="rect4424"
         sodipodi:nodetypes="cccccccccccccccc" />
      <text
         sodipodi:linespacing="125%"
         id="text3841"
         y="94"
         x="203"
         style="font-size:40px;font-style:italic;font-weight:bold;line-height:125%;fill:#000000;fill-opacity:1;stroke:none;stroke-width:1px;stroke-linecap:butt;stroke-linejoin:miter;stroke-opacity:1;font-family:Bitstream Vera Sans"
         xml:space="preserve"><tspan
           style="font-size:16px;font-style:normal;font-variant:normal;font-weight:normal;font-stretch:normal;text-align:start;line-height:125%;writing-mode:lr-tb;text-anchor:start;font-family:Cambria;-inkscape-font-specification:Cambria"
           y="94"
           x="203"
           id="tspan3843"
           sodipodi:role="line">I don't think this is a good idea.</tspan></text>
    </g>
    <g
       id="g4446"
       transform="translate(-15,13)">
      <text
         sodipodi:linespacing="125%"
         id="text3849"
         y="183.87891"
         x="310.90625"
         style="font-size:40px;font-style:italic;font-weight:bold;line-height:125%;fill:#000000;fill-opacity:1;stroke:none;stroke-width:1px;stroke-linecap:butt;stroke-linejoin:miter;stroke-opacity:1;font-family:Bitstream Vera Sans"
         xml:space="preserve"><tspan
           style="font-size:16px;font-style:normal;font-variant:normal;font-weight:normal;font-stretch:normal;text-align:start;line-height:125%;writing-mode:lr-tb;text-anchor:start;font-family:Cambria;-inkscape-font-specification:Cambria"
           y="183.87891"
           x="310.90625"
           id="tspan3851"
           sodipodi:role="line">Well that's hardly--</tspan></text>
    </g>
    <g
       id="g4439"
       transform="translate(-31.141613,16.717435)">
      <path
         style="fill:#ffffff;fill-opacity:1;stroke:#000000;stroke-width:1;stroke-miterlimit:4;stroke-dasharray:none"
         d="M 380,114 L 380,163.28125 L 505,163 L 492.25,199.375 L 420.375,199.375 L 420.375,230 L 612.5,229.49999 L 612.5,218.49999 L 720,180 C 720,180 621.82113,207.16523 612.5,209.09374 L 612.5,199.49999 L 502.25,199.375 L 515,163 L 680,163 L 680,114 L 380,114 z"
         transform="translate(31.141613,-16.717435)"
         id="rect4426"
         sodipodi:nodetypes="cccccccccccccccc" />
      <text
         sodipodi:linespacing="125%"
         id="text3853"
         y="115.86328"
         x="421.59375"
         style="font-size:40px;font-style:italic;font-weight:bold;line-height:125%;fill:#000000;fill-opacity:1;stroke:none;stroke-width:1px;stroke-linecap:butt;stroke-linejoin:miter;stroke-opacity:1;font-family:Bitstream Vera Sans"
         xml:space="preserve"><tspan
           id="tspan4261"
           style="font-size:16px;font-style:italic;font-variant:normal;font-weight:normal;font-stretch:normal;text-align:start;line-height:125%;writing-mode:lr-tb;text-anchor:start;font-family:Cambria;-inkscape-font-specification:Cambria Italic"
           y="115.86328"
           x="421.59375"
           sodipodi:role="line">But you've estopped me from finding some</tspan><tspan
           id="tspan4265"
           style="font-size:16px;font-style:italic;font-variant:normal;font-weight:normal;font-stretch:normal;text-align:start;line-height:125%;writing-mode:lr-tb;text-anchor:start;font-family:Cambria;-inkscape-font-specification:Cambria Italic"
           y="135.86328"
           x="421.59375"
           sodipodi:role="line">other way of hurting you this week!</tspan></text>
    </g>
    <text
       xml:space="preserve"
       style="font-size:40px;font-style:italic;font-weight:bold;line-height:125%;fill:#000000;fill-opacity:1;stroke:none;stroke-width:1px;stroke-linecap:butt;stroke-linejoin:miter;stroke-opacity:1;font-family:Bitstream Vera Sans"
       x="430"
       y="220"
       id="text3857"
       sodipodi:linespacing="125%"><tspan
         sodipodi:role="line"
         id="tspan3859"
         x="430"
         y="220"
         style="font-size:16px;font-style:italic;font-variant:normal;font-weight:bold;font-stretch:normal;text-align:start;line-height:125%;writing-mode:lr-tb;text-anchor:start;font-family:Cambria;-inkscape-font-specification:Cambria Bold Italic">NO TAKESIES BACKSIES!</tspan></text>
  </g>
  <g
     inkscape:groupmode="layer"
     id="layer6"
     style="display:inline"
     transform="translate(1.5,3.5000058)">
    <rect
       style="opacity:1;fill:none;fill-opacity:1;stroke:#000000;stroke-width:3;stroke-miterlimit:4;stroke-dasharray:none"
       id="rect4281"
       width="840"
       height="360"
       x="28.5"
       y="56.499992"
       clip-path="none" />
    <text
       xml:space="preserve"
       style="font-size:18.09523773px;font-style:italic;font-variant:normal;font-weight:normal;font-stretch:normal;text-align:start;line-height:100%;writing-mode:lr-tb;text-anchor:start;fill:#000000;fill-opacity:1;stroke:none;display:inline;font-family:Cambria;-inkscape-font-specification:Cambria Italic"
       x="228.3223"
       y="451"
       id="text2589"
       sodipodi:linespacing="100%"><tspan
         sodipodi:role="line"
         id="tspan2591"
         x="228.3223"
         y="451"
         style="font-size:24px">Cite to http://tortbunnies.com/6.html</tspan></text>
    <text
       xml:space="preserve"
       style="font-size:36.19047546px;font-style:normal;font-weight:bold;line-height:125%;fill:#000000;fill-opacity:1;stroke:none;stroke-width:1px;stroke-linecap:butt;stroke-linejoin:miter;stroke-opacity:1;display:inline;font-family:Bitstream Vera Sans"
       x="688.5"
       y="36.499992"
       id="text2585"
       sodipodi:linespacing="125%"><tspan
         sodipodi:role="line"
         id="tspan2587"
         x="688.5"
         y="36.499992"
         style="font-size:24px;font-style:italic;font-variant:normal;font-weight:normal;font-stretch:normal;text-align:start;line-height:125%;writing-mode:lr-tb;text-anchor:start;font-family:Georgia;-inkscape-font-specification:Georgia Italic">by Andrew Fong</tspan></text>
  </g>
  <text
     xml:space="preserve"
     style="font-size:28.43883514px;font-style:normal;font-weight:bold;line-height:125%;fill:#000000;fill-opacity:1;stroke:none;stroke-width:1px;stroke-linecap:butt;stroke-linejoin:miter;stroke-opacity:1;display:inline;font-family:Bitstream Vera Sans"
     x="30"
     y="40"
     id="text2579"
     sodipodi:linespacing="125%"><tspan
       sodipodi:role="line"
       id="tspan2581"
       x="30"
       y="40"
       style="font-size:24px;font-style:normal;font-variant:normal;font-weight:bold;font-stretch:normal;text-align:start;line-height:125%;writing-mode:lr-tb;text-anchor:start;font-family:Georgia;-inkscape-font-specification:Georgia Bold">Tort Bunnies: Estoppel</tspan></text>
</svg>
