<?xml version="1.0" encoding="UTF-8" standalone="no"?>
<!-- Created with Inkscape (http://www.inkscape.org/) -->
<svg
   xmlns:dc="http://purl.org/dc/elements/1.1/"
   xmlns:cc="http://creativecommons.org/ns#"
   xmlns:rdf="http://www.w3.org/1999/02/22-rdf-syntax-ns#"
   xmlns:svg="http://www.w3.org/2000/svg"
   xmlns="http://www.w3.org/2000/svg"
   xmlns:sodipodi="http://sodipodi.sourceforge.net/DTD/sodipodi-0.dtd"
   xmlns:inkscape="http://www.inkscape.org/namespaces/inkscape"
   width="744.09448819"
   height="1052.3622047"
   id="svg2"
   sodipodi:version="0.32"
   inkscape:version="0.46"
   sodipodi:docname="carrot.svg"
   inkscape:output_extension="org.inkscape.output.svg.inkscape">
  <defs
     id="defs4">
    <inkscape:perspective
       sodipodi:type="inkscape:persp3d"
       inkscape:vp_x="0 : 526.18109 : 1"
       inkscape:vp_y="0 : 1000 : 0"
       inkscape:vp_z="744.09448 : 526.18109 : 1"
       inkscape:persp3d-origin="372.04724 : 350.78739 : 1"
       id="perspective10" />
  </defs>
  <sodipodi:namedview
     id="base"
     pagecolor="#ffffff"
     bordercolor="#666666"
     borderopacity="1.0"
     gridtolerance="10000"
     guidetolerance="10"
     objecttolerance="10"
     inkscape:pageopacity="0.0"
     inkscape:pageshadow="2"
     inkscape:zoom="1.4"
     inkscape:cx="170.47491"
     inkscape:cy="483.54298"
     inkscape:document-units="px"
     inkscape:current-layer="layer1"
     showgrid="true"
     showguides="false"
     inkscape:guide-bbox="true"
     inkscape:window-width="704"
     inkscape:window-height="822"
     inkscape:window-x="0"
     inkscape:window-y="0">
    <inkscape:grid
       type="xygrid"
       id="grid2383" />
    <sodipodi:guide
       orientation="0.70710678,0.70710678"
       position="507.60165,421.99123"
       id="guide3183" />
  </sodipodi:namedview>
  <metadata
     id="metadata7">
    <rdf:RDF>
      <cc:Work
         rdf:about="">
        <dc:format>image/svg+xml</dc:format>
        <dc:type
           rdf:resource="http://purl.org/dc/dcmitype/StillImage" />
      </cc:Work>
    </rdf:RDF>
  </metadata>
  <g
     inkscape:label="Layer 1"
     inkscape:groupmode="layer"
     id="layer1"
     style="display:inline">
    <g
       id="g2383">
      <path
         sodipodi:nodetypes="ccccccccccccc"
         id="path3185"
         d="M 240,552.36218 L 200,642.36218 L 40,712.36218 L 120,652.36218 L 20,652.36218 L 120,592.36218 L -20,572.36218 L 120,552.36218 L 0,492.36218 L 120,492.36218 L 40,412.36218 L 200,512.36218 L 240,552.36218 z"
         style="fill:#008000;fill-rule:evenodd;stroke:#000000;stroke-width:3;stroke-linecap:butt;stroke-linejoin:miter;stroke-opacity:1;stroke-miterlimit:4;stroke-dasharray:none" />
      <path
         sodipodi:nodetypes="cccccssssssscccccsssssssscccsssssssssssscccsssssssssssscccssssssscc"
         id="path3181"
         d="M 162.30906,534.07196 C 167.90157,521.36337 171.0616,502.92964 185.5308,497.64591 C 198.63527,493.22124 218.08142,498.57375 232.76372,500.3047 L 240,502.36218 L 235,507.36218 C 220.13656,526.3583 212.43317,550.88921 215,577.36218 C 215.67148,584.28737 215.05013,594.18938 216.41536,599.44391 C 219.74352,612.25326 224.81582,625.2285 226.28326,624.68651 C 227.68453,624.16897 227.92104,625.16756 223.0108,610.87028 C 217.28439,594.19649 215.45988,583.6639 215.39907,566.92864 C 215.30914,542.18461 220.84065,526.01435 235.7114,507.54952 C 240.81687,501.2101 237.02694,501.88406 240,502.36218 C 241.76721,502.64636 258.37463,502.71771 271.47619,503.92277 L 300,507.36218 C 300,512.36218 284.53254,531.6365 281.87688,545.37433 C 278.76855,564.99962 281.98136,614.91089 286.35299,614.91089 C 285,602.36218 283.62825,584.56917 283.43283,570.42349 C 280,547.36218 285,547.36218 285,542.36218 C 285,533.41498 302.9978,508.13049 305,507.36218 C 306.6774,506.7185 348.66676,510.93659 350.18668,511.87597 C 350.7358,512.21533 351.63092,513.33584 350,517.36218 C 341.42299,538.53654 337.74948,570.49938 343.22587,596.22307 C 344.91668,604.16511 345.18016,604.80936 346.73744,604.80936 C 348.24062,604.80936 348.22107,604.52946 346.10258,595.71799 C 344.08157,587.31192 342.87053,570.22907 343.41714,557.83727 C 344.07221,542.98722 347.19596,528.83057 352.15697,518.22914 L 355.16713,511.79657 L 360,512.36218 C 368.93191,513.40753 405.15855,516.92609 406.98949,516.92609 C 408.66757,516.92609 411.36447,519.09655 410,522.36218 C 407.08993,529.32697 401.72233,538.81676 400.73651,548.32631 C 399.04699,564.6241 402.7461,594.70784 406.4396,594.70784 C 407.62106,594.70784 407.81804,594.05589 407.27889,591.92992 C 403.27118,576.12672 402.05811,558.13572 404.09469,544.70529 C 405.60834,534.72344 409.73582,520.61148 411.72284,518.62446 C 412.70505,517.64225 463.82555,521.18773 465,522.36218 C 465.26791,522.6301 465.58611,524.61152 465,527.36218 C 461.02982,545.99442 461.02982,550.99442 461.6102,557.89457 C 462.84824,572.61371 464.52881,586.76742 466.9734,584.32283 C 467.33303,583.96322 466.81988,580.58425 465.83309,576.81404 C 462.03567,562.3055 462.93885,538.1649 467.70592,526.75569 L 465,522.36218 L 494.75844,526.15918 C 508.8593,527.69325 521.14354,528.97078 522.05675,528.99815 C 523.49974,529.0414 523.57929,529.61011 522.6644,533.34107 C 521.15057,539.51459 523.04259,558.46752 524.59288,567.36218 C 526.3803,577.61743 524.84428,584.60631 526.59343,584.60631 C 527.56472,584.60631 527.91864,583.97171 527.57934,582.83855 C 524.73062,573.32471 523.49656,548.25347 525.26728,535.86645 C 526.0406,530.45664 526.28321,530.05648 528.80281,530.03487 C 531.86494,530.00862 582.40476,535.11865 584.17353,535.63335 C 585.01238,535.87747 584.94867,537.55078 583.93677,541.85154 C 581.35228,552.83608 582.90575,574.50479 586.27774,574.50479 C 587.43006,574.50479 585.48937,564.45535 585,562.36218 C 582.71101,552.57128 585.80121,538.34248 588.54426,536.64719 C 589.40299,536.11648 613.7113,539.11127 631.49158,541.93832 L 642.58167,543.70164 L 642.84228,555.31515 C 643.14579,568.84267 644.07532,573.86231 646.35823,574.30196 C 647.78179,574.57612 647.86008,574.05916 646.96936,570.26744 C 645.88906,565.6686 645.28,545.75946 646.19166,544.84437 C 646.9874,544.04563 677.51824,550.98779 688.58676,554.48429 C 707.55818,560.47726 719.90149,568.16908 719.90149,573.99824 C 719.90149,575.34935 718.46237,578.09387 716.70344,580.09718 C 706.44861,591.77675 665.26304,602.9205 603.22887,610.80043 C 550.63411,617.48132 220,652.36218 190.19875,652.28653 C 160,652.36218 154.0543,564.89832 162.30906,534.07196 z"
         style="opacity:1;fill:#ff6600;fill-opacity:1;stroke:#000000;stroke-width:3;stroke-linecap:round;stroke-linejoin:round;stroke-miterlimit:4;stroke-dasharray:none;stroke-opacity:1" />
    </g>
  </g>
</svg>
