<?xml version="1.0" encoding="UTF-8" standalone="no"?>
<!-- Created with Inkscape (http://www.inkscape.org/) -->

<svg
   xmlns:dc="http://purl.org/dc/elements/1.1/"
   xmlns:cc="http://creativecommons.org/ns#"
   xmlns:rdf="http://www.w3.org/1999/02/22-rdf-syntax-ns#"
   xmlns:svg="http://www.w3.org/2000/svg"
   xmlns="http://www.w3.org/2000/svg"
   xmlns:sodipodi="http://sodipodi.sourceforge.net/DTD/sodipodi-0.dtd"
   xmlns:inkscape="http://www.inkscape.org/namespaces/inkscape"
   width="744.09448819"
   height="1052.3622047"
   id="svg2"
   version="1.1"
   inkscape:version="0.48.2 r9819"
   sodipodi:docname="clippy.svg">
  <defs
     id="defs4" />
  <sodipodi:namedview
     id="base"
     pagecolor="#ffffff"
     bordercolor="#666666"
     borderopacity="1.0"
     inkscape:pageopacity="0.0"
     inkscape:pageshadow="2"
     inkscape:zoom="3.959798"
     inkscape:cx="309.82512"
     inkscape:cy="491.71129"
     inkscape:document-units="px"
     inkscape:current-layer="layer1"
     showgrid="false"
     inkscape:window-width="1440"
     inkscape:window-height="838"
     inkscape:window-x="-8"
     inkscape:window-y="-8"
     inkscape:window-maximized="1" />
  <metadata
     id="metadata7">
    <rdf:RDF>
      <cc:Work
         rdf:about="">
        <dc:format>image/svg+xml</dc:format>
        <dc:type
           rdf:resource="http://purl.org/dc/dcmitype/StillImage" />
        <dc:title></dc:title>
      </cc:Work>
    </rdf:RDF>
  </metadata>
  <g
     inkscape:label="Layer 1"
     inkscape:groupmode="layer"
     id="layer1">
    <g
       id="g3086"
       transform="translate(18.435284,6.8185297)">
      <path
         sodipodi:nodetypes="ccsscccc"
         inkscape:connector-curvature="0"
         id="path3024"
         d="m 327.54196,580.87348 60.10408,12.37437 c 0,0 9.84899,-4.04061 15.65737,-14.89975 5.80837,-10.85914 13.39698,-54.19584 18.43528,-54.04317 l -25.00128,-0.75761 c 0,0 -13.8896,3.283 -24.74874,10.85914 -12.88667,8.40281 -8.40708,13.97163 -17.9302,26.5165 -7.07107,8.83884 -10.35407,16.92007 -26.51651,19.95052 z"
         style="fill:#ffeeaa;stroke:#4d4d4d" />
      <path
         sodipodi:nodetypes="cssc"
         inkscape:connector-curvature="0"
         id="path3028"
         d="m 338.90618,582.38871 c 0,0 14.64721,-8.83884 17.42513,-14.64722 2.77792,-5.80837 7.32361,-20.70812 10.85914,-25.25381 3.53554,-4.54569 28.28427,-17.9302 31.81981,-17.9302"
         style="opacity:0.5;fill:none;stroke:#b3b3b3;stroke-width:1;stroke-linecap:butt;stroke-linejoin:bevel;stroke-miterlimit:4;stroke-opacity:1;stroke-dasharray:none" />
      <path
         inkscape:connector-curvature="0"
         id="path3034"
         d="m 338.4011,579.10571 51.77032,9.59645"
         style="opacity:0.5;fill:none;stroke:#b3b3b3;stroke-width:1;stroke-linecap:butt;stroke-linejoin:bevel;stroke-miterlimit:4;stroke-opacity:1;stroke-dasharray:none" />
      <path
         inkscape:connector-curvature="0"
         id="path3036"
         d="m 343.7044,576.07525 52.52794,7.07107"
         style="opacity:0.5;fill:none;stroke:#b3b3b3;stroke-width:1;stroke-linecap:butt;stroke-linejoin:bevel;stroke-miterlimit:4;stroke-opacity:1;stroke-dasharray:none" />
      <path
         inkscape:connector-curvature="0"
         id="path3038"
         d="m 399.51533,578.09556 c -1.26269,-0.25254 -51.51778,-5.55584 -51.51778,-5.55584"
         style="opacity:0.5;fill:none;stroke:#b3b3b3;stroke-width:1;stroke-linecap:butt;stroke-linejoin:bevel;stroke-miterlimit:4;stroke-opacity:1;stroke-dasharray:none" />
      <path
         inkscape:connector-curvature="0"
         id="path3040"
         d="m 350.52293,568.24657 52.52794,5.80838"
         style="opacity:0.5;fill:none;stroke:#b3b3b3;stroke-width:1;stroke-linecap:butt;stroke-linejoin:bevel;stroke-miterlimit:4;stroke-opacity:1;stroke-dasharray:none" />
      <path
         inkscape:connector-curvature="0"
         id="path3042"
         d="m 353.04832,564.71104 50.50762,4.04061"
         style="opacity:0.5;fill:none;stroke:#b3b3b3;stroke-width:1;stroke-linecap:butt;stroke-linejoin:bevel;stroke-miterlimit:4;stroke-opacity:1;stroke-dasharray:none" />
      <path
         inkscape:connector-curvature="0"
         id="path3044"
         d="m 356.33131,560.67043 47.98225,2.0203"
         style="opacity:0.5;fill:none;stroke:#b3b3b3;stroke-width:1;stroke-linecap:butt;stroke-linejoin:bevel;stroke-miterlimit:4;stroke-opacity:1;stroke-dasharray:none" />
      <path
         inkscape:connector-curvature="0"
         id="path3046"
         d="m 404.31356,557.13489 -44.95179,-1.01015"
         style="opacity:0.5;fill:none;stroke:#b3b3b3;stroke-width:1;stroke-linecap:butt;stroke-linejoin:bevel;stroke-miterlimit:4;stroke-opacity:1;stroke-dasharray:none" />
      <path
         inkscape:connector-curvature="0"
         id="path3048"
         d="m 406.5864,553.8519 -45.45686,-1.76777"
         style="opacity:0.5;fill:none;stroke:#b3b3b3;stroke-width:1;stroke-linecap:butt;stroke-linejoin:bevel;stroke-miterlimit:4;stroke-opacity:1;stroke-dasharray:none" />
      <path
         inkscape:connector-curvature="0"
         id="path3050"
         d="m 362.39223,547.53844 47.22463,0.75762"
         style="opacity:0.5;fill:none;stroke:#b3b3b3;stroke-width:1;stroke-linecap:butt;stroke-linejoin:bevel;stroke-miterlimit:4;stroke-opacity:1;stroke-dasharray:none" />
      <path
         inkscape:connector-curvature="0"
         id="path3052"
         d="m 412.64732,543.75037 -47.72971,-0.50508"
         style="opacity:0.5;fill:none;stroke:#b3b3b3;stroke-width:1;stroke-linecap:butt;stroke-linejoin:bevel;stroke-miterlimit:4;stroke-opacity:1;stroke-dasharray:none" />
      <path
         inkscape:connector-curvature="0"
         id="path3054"
         d="m 368.45314,538.69961 43.6891,2.0203"
         style="opacity:0.5;fill:none;stroke:#b3b3b3;stroke-width:1;stroke-linecap:butt;stroke-linejoin:bevel;stroke-miterlimit:4;stroke-opacity:1;stroke-dasharray:none" />
      <path
         inkscape:connector-curvature="0"
         id="path3056"
         d="m 413.65747,536.93184 -40.4061,-2.0203"
         style="opacity:0.5;fill:none;stroke:#b3b3b3;stroke-width:1;stroke-linecap:butt;stroke-linejoin:bevel;stroke-miterlimit:4;stroke-opacity:1;stroke-dasharray:none" />
      <path
         inkscape:connector-curvature="0"
         id="path3058"
         d="m 377.03944,532.13362 35.1028,2.0203"
         style="opacity:0.5;fill:none;stroke:#b3b3b3;stroke-width:1;stroke-linecap:butt;stroke-linejoin:bevel;stroke-miterlimit:4;stroke-opacity:1;stroke-dasharray:none" />
      <path
         inkscape:connector-curvature="0"
         id="path3060"
         d="m 414.66762,532.89123 -32.32488,-2.77792"
         style="opacity:0.5;fill:none;stroke:#b3b3b3;stroke-width:1;stroke-linecap:butt;stroke-linejoin:bevel;stroke-miterlimit:4;stroke-opacity:1;stroke-dasharray:none" />
      <path
         inkscape:connector-curvature="0"
         id="path3062"
         d="m 386.88843,528.09301 29.04188,2.0203"
         style="opacity:0.5;fill:none;stroke:#b3b3b3;stroke-width:1;stroke-linecap:butt;stroke-linejoin:bevel;stroke-miterlimit:4;stroke-opacity:1;stroke-dasharray:none" />
      <path
         inkscape:connector-curvature="0"
         id="path3064"
         d="m 416.43539,526.57778 -23.23351,-1.26269"
         style="opacity:0.5;fill:none;stroke:#b3b3b3;stroke-width:1;stroke-linecap:butt;stroke-linejoin:bevel;stroke-miterlimit:4;stroke-opacity:1;stroke-dasharray:none"
         sodipodi:nodetypes="cc" />
    </g>
    <path
       style="fill:none;stroke:#808080;stroke-width:3"
       d="m 401.48443,549.64246 c 0,0 -3.57143,25 0,27.14285 3.57143,2.14286 -9.28571,23.57143 -19.28571,8.57143 -10,-15 -7.85715,-55.71428 -6.42857,-61.42857 1.42857,-5.71428 15,-11.42857 16.42857,-2.85714 1.42857,8.57143 0,32.14286 0,37.14286 0,5 4.26928,15.57931 -2.14286,16.42857 -9.20649,1.21936 -10.62763,-18.10969 -10.62763,-24.53826"
       id="path2996"
       inkscape:connector-curvature="0"
       sodipodi:nodetypes="cssssssc" />
    <path
       sodipodi:type="arc"
       style="fill:#ffffff;stroke:#000000;stroke-width:2;stroke-linecap:butt;stroke-linejoin:bevel;stroke-miterlimit:4;stroke-opacity:1;stroke-dasharray:none"
       id="path2998"
       sodipodi:cx="268.57431"
       sodipodi:cy="530.23956"
       sodipodi:rx="6.6922607"
       sodipodi:ry="5.177032"
       d="m 275.26657,530.23956 a 6.6922607,5.177032 0 1 1 -13.38452,0 6.6922607,5.177032 0 1 1 13.38452,0 z"
       transform="translate(105.05586,6.5659916)" />
    <path
       transform="matrix(0.97841265,0.20666078,-0.20666078,0.97841265,238.99494,-33.071881)"
       sodipodi:type="arc"
       style="fill:#ffffff;stroke:#000000;stroke-width:2;stroke-linecap:butt;stroke-linejoin:bevel;stroke-miterlimit:4;stroke-opacity:1;stroke-dasharray:none"
       id="path2998-1"
       sodipodi:cx="268.57431"
       sodipodi:cy="530.23956"
       sodipodi:rx="6.6922607"
       sodipodi:ry="5.177032"
       d="m 275.26657,530.23956 a 6.6922607,5.177032 0 1 1 -13.38452,0 6.6922607,5.177032 0 1 1 13.38452,0 z" />
    <path
       style="fill:#000000;fill-opacity:1;stroke:none"
       d="m 380.57497,527.3354 c 0,0 -9.09138,0.25253 -10.85914,1.01015 -1.76777,0.75761 4.04061,-4.79823 6.56599,-4.04061 2.52538,0.75761 4.29315,3.03046 4.29315,3.03046 z"
       id="path3018"
       inkscape:connector-curvature="0" />
    <path
       style="fill:#000000;fill-opacity:1;stroke:none"
       d="m 400.77802,536.67931 c 0,0 -6.81853,-6.566 -9.84899,-7.32361 -3.03046,-0.75761 -1.01015,2.27284 -1.01015,2.27284 0,0 9.59645,1.51523 10.85914,5.05077 z"
       id="path3020"
       inkscape:connector-curvature="0" />
    <path
       sodipodi:type="arc"
       style="fill:#000000;fill-opacity:1;stroke:#000000;stroke-width:1;stroke-linecap:butt;stroke-linejoin:bevel;stroke-miterlimit:4;stroke-opacity:1;stroke-dasharray:none"
       id="path3106"
       sodipodi:cx="372.99884"
       sodipodi:cy="537.31067"
       sodipodi:rx="2.5253813"
       sodipodi:ry="1.8940361"
       d="m 375.52422,537.31067 a 2.5253813,1.8940361 0 1 1 -5.05076,0 2.5253813,1.8940361 0 1 1 5.05076,0 z"
       transform="translate(0.50507627,-0.50507627)" />
    <path
       transform="matrix(0.97881597,0.20474202,-0.20474202,0.97881597,137.10458,-61.071806)"
       sodipodi:type="arc"
       style="fill:#000000;fill-opacity:1;stroke:#000000;stroke-width:1;stroke-linecap:butt;stroke-linejoin:bevel;stroke-miterlimit:4;stroke-opacity:1;stroke-dasharray:none"
       id="path3106-7"
       sodipodi:cx="372.99884"
       sodipodi:cy="537.31067"
       sodipodi:rx="2.5253813"
       sodipodi:ry="1.8940361"
       d="m 375.52422,537.31067 a 2.5253813,1.8940361 0 1 1 -5.05076,0 2.5253813,1.8940361 0 1 1 5.05076,0 z"
       inkscape:transform-center-y="2.4251541" />
  </g>
</svg>
