<?xml version="1.0" encoding="UTF-8" standalone="no"?>
<!-- Created with Inkscape (http://www.inkscape.org/) -->
<svg
   xmlns:dc="http://purl.org/dc/elements/1.1/"
   xmlns:cc="http://creativecommons.org/ns#"
   xmlns:rdf="http://www.w3.org/1999/02/22-rdf-syntax-ns#"
   xmlns:svg="http://www.w3.org/2000/svg"
   xmlns="http://www.w3.org/2000/svg"
   xmlns:sodipodi="http://sodipodi.sourceforge.net/DTD/sodipodi-0.dtd"
   xmlns:inkscape="http://www.inkscape.org/namespaces/inkscape"
   width="744.09448819"
   height="1052.3622047"
   id="svg3292"
   sodipodi:version="0.32"
   inkscape:version="0.46"
   sodipodi:docname="eating.svg"
   inkscape:output_extension="org.inkscape.output.svg.inkscape">
  <defs
     id="defs3294">
    <inkscape:perspective
       sodipodi:type="inkscape:persp3d"
       inkscape:vp_x="0 : 526.18109 : 1"
       inkscape:vp_y="0 : 1000 : 0"
       inkscape:vp_z="744.09448 : 526.18109 : 1"
       inkscape:persp3d-origin="372.04724 : 350.78739 : 1"
       id="perspective3300" />
  </defs>
  <sodipodi:namedview
     id="base"
     pagecolor="#ffffff"
     bordercolor="#666666"
     borderopacity="1.0"
     gridtolerance="10000"
     guidetolerance="10"
     objecttolerance="10"
     inkscape:pageopacity="0.0"
     inkscape:pageshadow="2"
     inkscape:zoom="0.5"
     inkscape:cx="91.037562"
     inkscape:cy="736.21328"
     inkscape:document-units="px"
     inkscape:current-layer="layer1"
     showgrid="true"
     inkscape:window-width="1440"
     inkscape:window-height="838"
     inkscape:window-x="-8"
     inkscape:window-y="-8">
    <inkscape:grid
       type="xygrid"
       id="grid3336" />
  </sodipodi:namedview>
  <metadata
     id="metadata3297">
    <rdf:RDF>
      <cc:Work
         rdf:about="">
        <dc:format>image/svg+xml</dc:format>
        <dc:type
           rdf:resource="http://purl.org/dc/dcmitype/StillImage" />
      </cc:Work>
    </rdf:RDF>
  </metadata>
  <g
     inkscape:label="Layer 1"
     inkscape:groupmode="layer"
     id="layer1">
    <rect
       style="opacity:1;fill:#ffccaa;fill-opacity:1;stroke:#808080;stroke-width:0;stroke-miterlimit:0;stroke-dasharray:none"
       id="rect4058"
       width="700"
       height="540"
       x="20"
       y="92.362183"
       inkscape:export-filename="C:\Users\Andrew\Desktop\eat.png"
       inkscape:export-xdpi="90"
       inkscape:export-ydpi="90" />
    <path
       style="opacity:1;fill:#1a1a1a;fill-opacity:1;fill-rule:evenodd;stroke:none;stroke-width:5;stroke-linecap:butt;stroke-linejoin:miter;stroke-miterlimit:4;stroke-dasharray:none;stroke-opacity:1;display:inline"
       d="M 20,523.6063 C 31.70508,523.6063 72.67286,552.869 72.67286,552.869 L 75.59913,608.46813 L 52.18897,590.91051 L 20,523.6063 z"
       id="path4587"
       sodipodi:nodetypes="ccccc" />
    <path
       style="opacity:1;fill:#1a1a1a;fill-opacity:1;fill-rule:evenodd;stroke:none;stroke-width:5;stroke-linecap:butt;stroke-linejoin:miter;stroke-miterlimit:4;stroke-dasharray:none;stroke-opacity:1;display:inline"
       d="M 93.15675,397.77667 L 40.48389,350.95635 L 81.45167,304.13604 L 93.15675,280.72588 L 104.86183,269.0208 L 175.09232,269.0208 L 163.38724,233.90556 L 175.09232,116.85477 L 233.61771,233.90556 L 210.20756,280.72588 L 221.91263,304.13604 L 262.88041,345.10381 L 210.20756,397.77667 L 210.20756,421.18683 L 268.73295,479.71223 L 210.20756,468.00715 L 210.20756,549.94273 L 257.02787,643.58337 L 186.7974,631.87829 L 81.45167,549.94273"
       id="path4589"
       sodipodi:nodetypes="cccccccccccccccccccc"
       inkscape:export-filename="C:\Users\Andrew\Desktop\rabbits.png"
       inkscape:export-xdpi="90"
       inkscape:export-ydpi="90" />
    <path
       style="opacity:1;fill:#1a1a1a;fill-opacity:1;fill-rule:evenodd;stroke:none;stroke-width:5;stroke-linecap:butt;stroke-linejoin:miter;stroke-miterlimit:4;stroke-dasharray:none;stroke-opacity:1;display:inline"
       d="M 116.56691,280.72588 L 139.97707,233.90556 L 81.45167,116.85477 L 69.74659,233.90556 L 93.15675,280.72588"
       id="path4591"
       sodipodi:nodetypes="ccccc"
       inkscape:export-filename="C:\Users\Andrew\Desktop\rabbits.png"
       inkscape:export-xdpi="90"
       inkscape:export-ydpi="90" />
    <path
       style="opacity:1;fill:#f9f9f9;fill-opacity:1;fill-rule:evenodd;stroke:none;stroke-width:4.95396423;stroke-linecap:butt;stroke-linejoin:miter;stroke-miterlimit:4;stroke-dasharray:none;stroke-opacity:1;display:inline"
       d="M 197.19642,397.7632 C 197.19642,397.7632 208.75788,417.83815 208.75788,421.02974 C 208.75788,456.72395 208.75788,548.99573 208.75788,548.99573 L 186.7974,614.32067 L 128.27199,620.17321 L 104.86183,549.94273 L 104.86183,421.18683 L 125.34572,400.70294 L 197.19642,397.7632 z"
       id="path4593"
       sodipodi:nodetypes="csccccccc"
       inkscape:export-filename="C:\Users\Andrew\Desktop\rabbits.png"
       inkscape:export-xdpi="90"
       inkscape:export-ydpi="90" />
    <path
       style="opacity:1;fill:#1a1a1a;fill-opacity:1;fill-rule:evenodd;stroke:none;stroke-width:5;stroke-linecap:butt;stroke-linejoin:miter;stroke-miterlimit:4;stroke-dasharray:none;stroke-opacity:1;display:inline"
       d="M 104.86183,421.18683 L 165,482.36218 L 104.86183,468.00715 L 104.86183,549.94273 L 151.68215,652.36218 L 69.74659,628.95202 L 52.18897,602.61559 L 52.18897,441.67072 L 93.15675,397.77667"
       id="path4595"
       sodipodi:nodetypes="ccccccccc"
       inkscape:export-filename="C:\Users\Andrew\Desktop\rabbits.png"
       inkscape:export-xdpi="90"
       inkscape:export-ydpi="90" />
    <g
       id="g4597"
       style="opacity:1;stroke:#f9f9f9;stroke-width:2.5;stroke-linejoin:round;stroke-miterlimit:4;stroke-dasharray:none;stroke-opacity:1;display:inline"
       transform="matrix(-0.585254,0,0,0.585254,690.11581,94.615123)">
      <path
         sodipodi:nodetypes="cs"
         id="path4599"
         d="M 855,350 C 855,350 863,330 853,320"
         style="fill:none;fill-rule:evenodd;stroke:#f9f9f9;stroke-width:2.5;stroke-linecap:butt;stroke-linejoin:round;stroke-miterlimit:4;stroke-dasharray:none;stroke-opacity:1" />
      <path
         sodipodi:nodetypes="cs"
         id="path4601"
         d="M 855,350 C 855,350 855,333 845,323"
         style="fill:none;fill-rule:evenodd;stroke:#f9f9f9;stroke-width:2.5;stroke-linecap:butt;stroke-linejoin:round;stroke-miterlimit:4;stroke-dasharray:none;stroke-opacity:1" />
      <path
         sodipodi:nodetypes="cs"
         id="path4603"
         d="M 840,328 C 840,328 850,335 855,350"
         style="fill:none;fill-rule:evenodd;stroke:#f9f9f9;stroke-width:2.5;stroke-linecap:butt;stroke-linejoin:round;stroke-miterlimit:4;stroke-dasharray:none;stroke-opacity:1" />
      <path
         sodipodi:nodetypes="cs"
         id="path4605"
         d="M 837,336 C 837,336 845,335 855,350"
         style="fill:none;fill-rule:evenodd;stroke:#f9f9f9;stroke-width:2.5;stroke-linecap:butt;stroke-linejoin:round;stroke-miterlimit:4;stroke-dasharray:none;stroke-opacity:1" />
    </g>
    <path
       style="opacity:1;fill:#f9f9f9;fill-opacity:1;fill-rule:evenodd;stroke:none;stroke-width:1px;stroke-linecap:butt;stroke-linejoin:miter;stroke-opacity:1;display:inline"
       d="M 190.26069,286.57842 C 194.0199,286.57842 197.22469,291.25176 198.50248,297.82627 L 191.73407,304.13604 L 197.6967,313.60984 C 196.12383,318.46881 193.38326,321.69366 190.26069,321.69366 C 185.38085,321.69366 181.42038,313.82784 181.42038,304.13604 C 181.42038,294.44423 185.38085,286.57842 190.26069,286.57842 z"
       id="path4607" />
    <path
       style="opacity:1;fill:#f5f5f5;fill-opacity:1;fill-rule:evenodd;stroke:none;stroke-width:5;stroke-linecap:butt;stroke-linejoin:miter;stroke-miterlimit:4;stroke-dasharray:none;stroke-opacity:1;display:inline"
       d="M 163.38724,362.66143 L 163.38724,350.95635 L 163.38724,362.66143 L 186.7974,362.66143 L 163.38724,386.07159 L 139.97707,362.66143 L 163.38724,362.66143 z"
       id="path4609"
       inkscape:export-filename="C:\Users\Andrew\Desktop\rabbits.png"
       inkscape:export-xdpi="90"
       inkscape:export-ydpi="90"
       sodipodi:nodetypes="csccccc" />
    <path
       style="opacity:1;fill:#ffaaaa;fill-opacity:1;fill-rule:evenodd;stroke:none;stroke-width:1px;stroke-linecap:butt;stroke-linejoin:miter;stroke-opacity:1;display:inline"
       d="M 175.09232,336.32501 L 163.38724,350.95635 L 151.68215,336.32501 L 175.09232,336.32501 z"
       id="path4611"
       sodipodi:nodetypes="cccc"
       inkscape:export-filename="C:\Users\Andrew\Desktop\rabbits.png"
       inkscape:export-xdpi="90"
       inkscape:export-ydpi="90" />
    <g
       id="g4613"
       style="opacity:1;stroke:#f9f9f9;stroke-width:2.5;stroke-linejoin:round;stroke-miterlimit:4;stroke-dasharray:none;stroke-opacity:1;display:inline"
       transform="matrix(0.585254,0,0,0.585254,-364.51185,94.615123)">
      <path
         sodipodi:nodetypes="cs"
         id="path4615"
         d="M 855,350 C 855,350 863,330 853,320"
         style="fill:none;fill-rule:evenodd;stroke:#f9f9f9;stroke-width:2.5;stroke-linecap:butt;stroke-linejoin:round;stroke-miterlimit:4;stroke-dasharray:none;stroke-opacity:1" />
      <path
         sodipodi:nodetypes="cs"
         id="path4617"
         d="M 855,350 C 855,350 855,333 845,323"
         style="fill:none;fill-rule:evenodd;stroke:#f9f9f9;stroke-width:2.5;stroke-linecap:butt;stroke-linejoin:round;stroke-miterlimit:4;stroke-dasharray:none;stroke-opacity:1" />
      <path
         sodipodi:nodetypes="cs"
         id="path4619"
         d="M 840,328 C 840,328 850,335 855,350"
         style="fill:none;fill-rule:evenodd;stroke:#f9f9f9;stroke-width:2.5;stroke-linecap:butt;stroke-linejoin:round;stroke-miterlimit:4;stroke-dasharray:none;stroke-opacity:1" />
      <path
         sodipodi:nodetypes="cs"
         id="path4621"
         d="M 837,336 C 837,336 845,335 855,350"
         style="fill:none;fill-rule:evenodd;stroke:#f9f9f9;stroke-width:2.5;stroke-linecap:butt;stroke-linejoin:round;stroke-miterlimit:4;stroke-dasharray:none;stroke-opacity:1" />
    </g>
    <path
       style="opacity:1;fill:#f9f9f9;fill-opacity:1;fill-rule:evenodd;stroke:none;stroke-width:1px;stroke-linecap:butt;stroke-linejoin:miter;stroke-opacity:1;display:inline"
       d="M 136.45835,286.57842 C 140.73269,286.57842 144.37671,291.25176 145.82961,297.82627 L 138.13363,304.13604 L 144.91345,313.60984 C 143.12497,318.46881 140.00885,321.69366 136.45835,321.69366 C 130.90973,321.69366 126.40649,313.82784 126.40649,304.13604 C 126.40649,294.44423 130.90973,286.57842 136.45835,286.57842 z"
       id="path4623" />
    <path
       id="path4625"
       style="opacity:1;fill:none;fill-opacity:1;fill-rule:evenodd;stroke:#000000;stroke-width:3.125;stroke-linecap:butt;stroke-linejoin:miter;stroke-miterlimit:4;stroke-dasharray:none;stroke-opacity:1;display:inline"
       d="M 116.56691,280.72588 L 139.97707,233.90556 L 81.45167,116.85477 L 69.74659,233.90556 L 93.15675,280.72588 L 81.45167,304.13604 L 40.48389,350.95635 L 93.15675,397.77667 L 52.18897,441.67072 L 52.18897,602.61559 L 69.74659,628.95202 L 151.68215,652.36218 L 104.86183,549.94273 L 104.86183,468.00715 L 165,482.36218 L 104.86183,421.18683 L 125.34572,400.70294 L 197.19642,397.7632 C 197.19642,397.7632 210.22102,418.46521 210.22102,421.6568 C 210.22102,457.35101 210.22102,550.24981 210.22102,550.24981 L 186.7974,614.32067 L 136.51804,619.19062 L 104.86183,549.94273 M 122.57337,268.71302 L 175.09232,269.0208 L 163.38724,233.90556 L 175.09232,116.85477 L 233.61771,233.90556 L 210.20756,280.72588 L 221.91263,304.13604 L 262.88041,345.10381 L 210.20756,397.77667 L 210.20756,421.18683 L 268.73295,479.71223 L 210.20756,468.00715 L 210.20756,549.94273 L 257.02787,643.58337 L 186.7974,631.87829 L 166.52554,616.28414"
       sodipodi:nodetypes="ccccccccccccccccccscccccccccccccccccccc" />
    <path
       style="opacity:1;fill:none;fill-opacity:1;fill-rule:evenodd;stroke:#000000;stroke-width:2.92626977;stroke-linecap:butt;stroke-linejoin:miter;stroke-miterlimit:4;stroke-dasharray:none;stroke-opacity:1;display:inline"
       d="M 20,523.6063 C 31.70508,523.6063 52.18897,538.08906 52.18897,538.08906 L 52.18897,590.91051 L 20,523.6063 z"
       id="path4627"
       sodipodi:nodetypes="cccc" />
    <path
       style="opacity:1;fill:none;fill-opacity:1;fill-rule:evenodd;stroke:#000000;stroke-width:2.92626977;stroke-linecap:butt;stroke-linejoin:miter;stroke-miterlimit:4;stroke-dasharray:none;stroke-opacity:1;display:inline"
       d="M 163.38724,362.66143 L 163.38724,350.95635 L 163.38724,362.66143 L 186.7974,362.66143 L 163.38724,386.07159 L 139.97707,362.66143 L 163.38724,362.66143 z"
       id="path4629"
       inkscape:export-filename="C:\Users\Andrew\Desktop\rabbits.png"
       inkscape:export-xdpi="90"
       inkscape:export-ydpi="90"
       sodipodi:nodetypes="csccccc" />
    <rect
       style="opacity:1;fill:#f9f9f9;fill-opacity:1;stroke:#000000;stroke-width:5;stroke-miterlimit:4;stroke-dasharray:none"
       id="rect3338"
       width="740"
       height="140"
       x="0"
       y="512.36218" />
    <g
       id="g4018">
      <path
         transform="matrix(0.4685097,0,0,0.4685097,-25.437569,-219.77256)"
         d="M 1620,1690 A 490,110 0 1 1 640,1690 A 490,110 0 1 1 1620,1690 z"
         sodipodi:ry="110"
         sodipodi:rx="490"
         sodipodi:cy="1690"
         sodipodi:cx="1130"
         id="path3290"
         style="fill:#b3b3b3;fill-opacity:1;stroke:#000000;stroke-width:6.67008602;stroke-miterlimit:4;stroke-dasharray:none;display:inline"
         sodipodi:type="arc" />
      <path
         sodipodi:nodetypes="cccccc"
         id="path2496"
         d="M 574.02059,516.02192 L 517.79943,590.98348 L 602.13117,572.24309 L 648.98214,497.28154 L 592.76098,497.28154 L 592.76098,497.28154"
         style="fill:#c87615;fill-opacity:1;fill-rule:evenodd;stroke:#000000;stroke-width:3.125;stroke-miterlimit:4;stroke-dasharray:none;display:inline" />
      <path
         sodipodi:nodetypes="cccccccccccc"
         id="path2490"
         d="M 461.81252,450.19631 L 489.9231,468.9367 L 611.73562,468.9367 L 649.2164,450.19631 L 705.43756,506.41748 L 658.58659,562.63864 L 574.25485,562.63864 L 480.55291,562.63864 L 396.22116,562.63864 L 321.25961,590.74922 L 377.48077,525.15786 L 461.81252,450.19631 z"
         style="fill:#c87615;fill-opacity:1;fill-rule:evenodd;stroke:#000000;stroke-width:3.125;stroke-miterlimit:4;stroke-dasharray:none;display:inline" />
      <path
         sodipodi:nodetypes="cccc"
         id="path2492"
         d="M 405.59136,600.11942 L 461.81252,534.52806 L 499.2933,562.63864 L 405.59136,600.11942 z"
         style="fill:#c87615;fill-opacity:1;fill-rule:evenodd;stroke:#000000;stroke-width:0;stroke-miterlimit:4;stroke-dasharray:none;display:inline" />
      <path
         inkscape:export-ydpi="90"
         inkscape:export-xdpi="90"
         inkscape:export-filename="C:\Users\Andrew\Desktop\rabbits.png"
         sodipodi:nodetypes="ccccccccccccc"
         id="path2432"
         d="M 471.18271,534.52806 L 508.66349,497.04728 L 480.55291,459.56651 L 471.18271,440.82612 L 461.81252,422.08573 L 410.27645,422.08573 L 414.96155,403.34534 L 405.59136,309.6434 L 358.74039,403.34534 L 377.48077,440.82612 L 368.11058,459.56651 L 340,492.36218 L 373.4886,529.81541"
         style="fill:#c87615;fill-opacity:1;fill-rule:evenodd;stroke:#000000;stroke-width:3.125;stroke-linecap:butt;stroke-linejoin:miter;stroke-miterlimit:4;stroke-dasharray:none;stroke-opacity:1;display:inline" />
      <path
         sodipodi:nodetypes="cccccc"
         id="path2494"
         d="M 630.47601,525.15786 L 574.25485,600.11942 L 658.58659,581.37903 L 705.43756,506.41748 L 649.2164,506.41748 L 649.2164,506.41748"
         style="fill:#c87615;fill-opacity:1;fill-rule:evenodd;stroke:#000000;stroke-width:0;stroke-miterlimit:4;stroke-dasharray:none;display:inline" />
      <path
         inkscape:export-ydpi="90"
         inkscape:export-xdpi="90"
         inkscape:export-filename="C:\Users\Andrew\Desktop\rabbits.png"
         transform="matrix(0.382532,0,0,0.4692568,303.64842,336.45125)"
         d="M 242,262.36218 A 12,30 0 1 1 218,262.36218 A 12,30 0 1 1 242,262.36218 z"
         sodipodi:ry="30"
         sodipodi:rx="12"
         sodipodi:cy="262.36218"
         sodipodi:cx="230"
         id="path2498"
         style="fill:#000000;fill-opacity:1;fill-rule:evenodd;stroke:none;stroke-width:7.37582916;stroke-linecap:butt;stroke-linejoin:miter;stroke-miterlimit:4;stroke-dasharray:none;stroke-opacity:1;display:inline"
         sodipodi:type="arc" />
      <path
         inkscape:export-ydpi="90"
         inkscape:export-xdpi="90"
         inkscape:export-filename="C:\Users\Andrew\Desktop\rabbits.png"
         transform="matrix(0.382532,0,0,0.4692568,350.26513,336.91976)"
         d="M 242,262.36218 A 12,30 0 1 1 218,262.36218 A 12,30 0 1 1 242,262.36218 z"
         sodipodi:ry="30"
         sodipodi:rx="12"
         sodipodi:cy="262.36218"
         sodipodi:cx="230"
         id="path2500"
         style="fill:#000000;fill-opacity:1;fill-rule:evenodd;stroke:none;stroke-width:7.37582916;stroke-linecap:butt;stroke-linejoin:miter;stroke-miterlimit:4;stroke-dasharray:none;stroke-opacity:1;display:inline"
         sodipodi:type="arc" />
      <path
         inkscape:export-ydpi="90"
         inkscape:export-xdpi="90"
         inkscape:export-filename="C:\Users\Andrew\Desktop\rabbits.png"
         sodipodi:nodetypes="ccccc"
         id="path2502"
         d="M 446.58595,432.6272 L 432.53066,404.51662 L 479.38163,310.81468 L 488.75183,404.51662 L 470.01144,441.99739"
         style="fill:#c87615;fill-opacity:1;fill-rule:evenodd;stroke:#000000;stroke-width:3.125;stroke-linecap:butt;stroke-linejoin:miter;stroke-miterlimit:4;stroke-dasharray:none;stroke-opacity:1;display:inline" />
      <path
         inkscape:export-ydpi="90"
         inkscape:export-xdpi="90"
         inkscape:export-filename="C:\Users\Andrew\Desktop\rabbits.png"
         sodipodi:nodetypes="ccc"
         id="path2504"
         d="M 405.59136,482.99199 L 414.96155,497.04728 L 424.33174,482.99199"
         style="fill:#000000;fill-opacity:1;fill-rule:evenodd;stroke:none;stroke-width:3.125;stroke-linecap:butt;stroke-linejoin:miter;stroke-miterlimit:4;stroke-dasharray:none;stroke-opacity:1;display:inline" />
      <path
         sodipodi:nodetypes="cccc"
         id="path2507"
         d="M 374.28594,528.88519 L 321.25961,590.74922 L 396.22116,562.63864 L 438.36337,562.63864"
         style="fill:none;fill-rule:evenodd;stroke:#000000;stroke-width:3.125;stroke-linecap:butt;stroke-linejoin:miter;stroke-miterlimit:4;stroke-dasharray:none;stroke-opacity:1;display:inline" />
      <path
         sodipodi:nodetypes="cccc"
         id="path3279"
         d="M 459.66904,537.02878 L 405.59136,600.11942 L 499.88797,562.63864 L 602.59411,562.33373"
         style="fill:none;fill-rule:evenodd;stroke:#000000;stroke-width:3.125;stroke-linecap:butt;stroke-linejoin:miter;stroke-miterlimit:4;stroke-dasharray:none;stroke-opacity:1;display:inline" />
      <path
         id="path3281"
         d="M 486.17502,467.06266 L 490.86012,468.9367 L 611.73562,468.9367 L 649.2164,450.19631 L 705.22702,506.75438 L 658.58659,581.37903 L 574.25485,600.11942 L 630.47601,525.15786"
         style="fill:none;fill-rule:evenodd;stroke:#000000;stroke-width:3.125;stroke-linecap:butt;stroke-linejoin:miter;stroke-miterlimit:4;stroke-dasharray:none;stroke-opacity:1;display:inline" />
      <path
         sodipodi:nodetypes="cs"
         id="path3286"
         d="M 413.935,532.03165 C 413.935,532.03165 420.93702,539.55112 420,542.36218"
         style="fill:none;fill-rule:evenodd;stroke:#000000;stroke-width:3.125;stroke-linecap:butt;stroke-linejoin:miter;stroke-miterlimit:4;stroke-dasharray:none;stroke-opacity:1;display:inline" />
      <path
         sodipodi:nodetypes="cc"
         id="path3288"
         d="M 414.96155,492.36218 L 414.96155,506.41748"
         style="fill:none;fill-rule:evenodd;stroke:#000000;stroke-width:3.125;stroke-linecap:butt;stroke-linejoin:miter;stroke-miterlimit:4;stroke-dasharray:none;stroke-opacity:1;display:inline" />
      <path
         sodipodi:nodetypes="ccssc"
         id="path3283"
         d="M 428.60524,518.84336 C 428.60524,527.13445 421.75714,534.33198 413.78781,531.98942 C 406.28699,534.8005 398.03337,527.13445 398.03337,518.84336 C 398.03337,510.55227 404.88146,503.82327 413.3193,503.82327 C 421.75714,503.82327 428.60524,510.55227 428.60524,518.84336 z"
         style="fill:#d40000;fill-opacity:1;stroke:#000000;stroke-width:3.125;stroke-miterlimit:4;stroke-dasharray:none;display:inline" />
    </g>
    <g
       style="display:inline"
       id="g4631"
       transform="matrix(0.7029519,4.3854948e-2,-4.2854033e-2,0.7193704,-452.99387,9.7912526)">
      <path
         id="path4633"
         d="M 849.15015,287.46633 C 849.15015,287.46633 840.25097,309.03983 845.33851,315.11476 C 850.42606,321.1897 946.6918,280.36118 954.85623,283.3221 C 963.02066,286.28301 971.64948,313.23691 961.16664,313.77355 C 957.88081,313.94176 920.31365,304.99134 903.4144,298.58767 C 866.39971,284.56159 838.25075,268.59624 849.15015,287.46633 z"
         style="fill:#ffaaaa;fill-rule:evenodd;stroke:#000000;stroke-width:4.10742617;stroke-linecap:butt;stroke-linejoin:round;stroke-miterlimit:4;stroke-dasharray:none;stroke-opacity:1;display:inline"
         sodipodi:nodetypes="cssssc" />
      <path
         transform="matrix(0.6988555,-3.5775819e-2,5.9627377e-2,0.4193062,501.01555,220.39395)"
         d="M 586.66634,234.06189 A 32.67318,28.672729 0 1 1 521.31998,234.06189 A 32.67318,28.672729 0 1 1 586.66634,234.06189 z"
         sodipodi:ry="28.672729"
         sodipodi:rx="32.67318"
         sodipodi:cy="234.06189"
         sodipodi:cx="553.99316"
         id="path4635"
         style="fill:#ffaaaa;fill-opacity:1;stroke:#000000;stroke-width:7.56023645;stroke-linejoin:round;stroke-miterlimit:4;stroke-dasharray:none;stroke-opacity:1;display:inline"
         sodipodi:type="arc" />
    </g>
    <path
       style="opacity:1;fill:#1a1a1a;fill-opacity:1;fill-rule:evenodd;stroke:none;stroke-width:5;stroke-linecap:butt;stroke-linejoin:miter;stroke-miterlimit:4;stroke-dasharray:none;stroke-opacity:1;display:inline"
       d="M 116.17028,280.00994 L 139.58044,233.18962 L 81.05504,116.13883 L 69.34997,233.18962 L 106.83057,299.87412"
       id="path4637"
       sodipodi:nodetypes="ccccc"
       inkscape:export-filename="C:\Users\Andrew\Desktop\rabbits.png"
       inkscape:export-xdpi="90"
       inkscape:export-ydpi="90" />
    <path
       style="fill:none;fill-rule:evenodd;stroke:#000000;stroke-width:2.92626977;stroke-linecap:butt;stroke-linejoin:miter;stroke-miterlimit:4;stroke-dasharray:none;stroke-opacity:1;display:inline"
       d="M 92.84282,281.35372 L 69.34997,233.18962 L 81.05504,116.13883 L 139.97707,233.90556 L 116.56691,280.72588"
       id="path4639"
       sodipodi:nodetypes="ccccc" />
    <path
       style="fill:#999999;fill-rule:evenodd;stroke:#000000;stroke-width:3;stroke-linecap:butt;stroke-linejoin:miter;stroke-miterlimit:4;stroke-dasharray:none;stroke-opacity:1"
       d="M 248.75,373.61218 L 248.75,493.61218 L 248.75,448.61218 L 263.75,418.61218 L 248.75,373.61218 z"
       id="path3964"
       sodipodi:nodetypes="ccccc" />
    <path
       style="fill:#999999;fill-opacity:1;fill-rule:evenodd;stroke:#000000;stroke-width:2.83333325;stroke-linecap:butt;stroke-linejoin:miter;stroke-miterlimit:4;stroke-dasharray:none;stroke-opacity:1"
       d="M 131.5,379.02885 L 135.75,407.36219 L 140,379.02885 L 144.25,407.36219 L 148.5,379.02885 L 154.16667,407.36219 L 140,428.61219 L 140,492.36218 L 140,428.61219 L 125.83334,407.36219 L 131.5,379.02885 z"
       id="path3966"
       sodipodi:nodetypes="ccccccccccc" />
    <path
       style="fill:#1a1a1a;fill-rule:evenodd;stroke:#000000;stroke-width:3.12500000000000000;stroke-linecap:butt;stroke-linejoin:miter;stroke-opacity:1;stroke-miterlimit:4;stroke-dasharray:none;fill-opacity:1"
       d="M 105,422.36218 L 165,482.36218 L 105,467.36218"
       id="path4036"
       sodipodi:nodetypes="ccc" />
  </g>
</svg>
