<?xml version="1.0" encoding="UTF-8" standalone="no"?>
<!-- Created with Inkscape (http://www.inkscape.org/) -->
<svg
   xmlns:dc="http://purl.org/dc/elements/1.1/"
   xmlns:cc="http://creativecommons.org/ns#"
   xmlns:rdf="http://www.w3.org/1999/02/22-rdf-syntax-ns#"
   xmlns:svg="http://www.w3.org/2000/svg"
   xmlns="http://www.w3.org/2000/svg"
   xmlns:sodipodi="http://sodipodi.sourceforge.net/DTD/sodipodi-0.dtd"
   xmlns:inkscape="http://www.inkscape.org/namespaces/inkscape"
   width="744.09448819"
   height="1052.3622047"
   id="svg2851"
   sodipodi:version="0.32"
   inkscape:version="0.46"
   sodipodi:docname="egg.svg"
   inkscape:output_extension="org.inkscape.output.svg.inkscape">
  <defs
     id="defs2853">
    <inkscape:perspective
       sodipodi:type="inkscape:persp3d"
       inkscape:vp_x="0 : 526.18109 : 1"
       inkscape:vp_y="0 : 1000 : 0"
       inkscape:vp_z="744.09448 : 526.18109 : 1"
       inkscape:persp3d-origin="372.04724 : 350.78739 : 1"
       id="perspective2859" />
  </defs>
  <sodipodi:namedview
     id="base"
     pagecolor="#ffffff"
     bordercolor="#666666"
     borderopacity="1.0"
     gridtolerance="10000"
     guidetolerance="10"
     objecttolerance="10"
     inkscape:pageopacity="0.0"
     inkscape:pageshadow="2"
     inkscape:zoom="1.979899"
     inkscape:cx="400.80015"
     inkscape:cy="836.09151"
     inkscape:document-units="px"
     inkscape:current-layer="layer1"
     showgrid="false"
     inkscape:snap-nodes="true"
     inkscape:object-nodes="true"
     inkscape:snap-global="true"
     inkscape:object-paths="false"
     inkscape:window-width="1440"
     inkscape:window-height="838"
     inkscape:window-x="-8"
     inkscape:window-y="-8" />
  <metadata
     id="metadata2856">
    <rdf:RDF>
      <cc:Work
         rdf:about="">
        <dc:format>image/svg+xml</dc:format>
        <dc:type
           rdf:resource="http://purl.org/dc/dcmitype/StillImage" />
      </cc:Work>
    </rdf:RDF>
  </metadata>
  <g
     inkscape:label="Layer 1"
     inkscape:groupmode="layer"
     id="layer1">
    <path
       style="opacity:1;fill:#c87615;fill-opacity:1;fill-rule:evenodd;stroke:none;stroke-width:5;stroke-linecap:butt;stroke-linejoin:miter;stroke-miterlimit:4;stroke-dasharray:none;stroke-opacity:1"
       d="M 436.96775,245.99314 C 432.55974,245.99314 414.92772,259.21715 414.92772,259.21715 L 414.92772,281.25718 L 423.74373,272.44117 L 436.96775,245.99314 z"
       id="path2824"
       sodipodi:nodetypes="ccccc" />
    <path
       style="opacity:1;fill:#c87615;fill-opacity:1;fill-rule:evenodd;stroke:none;stroke-width:5;stroke-linecap:butt;stroke-linejoin:miter;stroke-miterlimit:4;stroke-dasharray:none;stroke-opacity:1;display:inline"
       d="M 412.72372,199.70907 L 430.35574,182.07705 L 417.13172,164.44502 L 412.72372,155.62901 L 408.31571,146.813 L 384.07168,146.813 L 386.27568,137.99699 L 381.86767,93.916929 L 359.82764,137.99699 L 368.64366,155.62901 L 364.23565,164.44502 L 351.01163,179.87305 L 368.64366,199.70907 L 368.64366,208.52508 L 346.60363,230.56511 L 368.64366,226.15711 L 368.64366,257.01315 L 351.01163,292.2772 L 379.66367,283.46119 L 412.72372,274.64517"
       id="path3314"
       sodipodi:nodetypes="cccccccccccccccccccc"
       inkscape:export-filename="C:\Users\Andrew\Desktop\rabbits.png"
       inkscape:export-xdpi="90"
       inkscape:export-ydpi="90" />
    <path
       style="opacity:1;fill:#c87615;fill-opacity:1;fill-rule:evenodd;stroke:none;stroke-width:5;stroke-linecap:butt;stroke-linejoin:miter;stroke-miterlimit:4;stroke-dasharray:none;stroke-opacity:1;display:inline"
       d="M 401.7037,151.22101 L 395.09169,137.99699 L 417.13172,93.916929 L 421.53973,137.99699 L 412.72372,155.62901"
       id="path3316"
       sodipodi:nodetypes="ccccc"
       inkscape:export-filename="C:\Users\Andrew\Desktop\rabbits.png"
       inkscape:export-xdpi="90"
       inkscape:export-ydpi="90" />
    <path
       style="opacity:1;fill:#d38d5f;fill-opacity:1;fill-rule:evenodd;stroke:none;stroke-width:5;stroke-linecap:butt;stroke-linejoin:miter;stroke-miterlimit:4;stroke-dasharray:none;stroke-opacity:1;display:inline"
       d="M 373.05166,199.70907 C 373.05166,199.70907 368.64366,207.31575 368.64366,208.52508 C 368.64366,222.05011 368.64366,257.01315 368.64366,257.01315 L 379.66367,283.46119 L 397.2957,285.66519 L 408.31571,261.42116 L 408.31571,212.93309 L 401.7037,201.91308 L 373.05166,199.70907 z"
       id="path2828"
       sodipodi:nodetypes="csccccccc"
       inkscape:export-filename="C:\Users\Andrew\Desktop\rabbits.png"
       inkscape:export-xdpi="90"
       inkscape:export-ydpi="90" />
    <path
       sodipodi:type="arc"
       style="opacity:1;fill:#000000;fill-opacity:1;fill-rule:evenodd;stroke:none;stroke-width:1px;stroke-linecap:butt;stroke-linejoin:miter;stroke-opacity:1;display:inline"
       id="path3335"
       sodipodi:cx="230"
       sodipodi:cy="262.36218"
       sodipodi:rx="12"
       sodipodi:ry="30"
       d="M 242,262.36218 A 12,30 0 1 1 218,262.36218 A 12,30 0 1 1 242,262.36218 z"
       transform="matrix(0.1799539,0,0,0.2207518,333.92136,106.41791)"
       inkscape:export-filename="C:\Users\Andrew\Desktop\rabbits.png"
       inkscape:export-xdpi="90"
       inkscape:export-ydpi="90" />
    <path
       sodipodi:type="arc"
       style="opacity:1;fill:#000000;fill-opacity:1;fill-rule:evenodd;stroke:none;stroke-width:1px;stroke-linecap:butt;stroke-linejoin:miter;stroke-opacity:1;display:inline"
       id="path3337"
       sodipodi:cx="230"
       sodipodi:cy="262.36218"
       sodipodi:rx="12"
       sodipodi:ry="30"
       d="M 242,262.36218 A 12,30 0 1 1 218,262.36218 A 12,30 0 1 1 242,262.36218 z"
       transform="matrix(0.1799539,0,0,0.2207518,355.85119,106.63831)"
       inkscape:export-filename="C:\Users\Andrew\Desktop\rabbits.png"
       inkscape:export-xdpi="90"
       inkscape:export-ydpi="90" />
    <path
       style="opacity:1;fill:#000000;fill-opacity:1;fill-rule:evenodd;stroke:none;stroke-width:5;stroke-linecap:butt;stroke-linejoin:miter;stroke-miterlimit:4;stroke-dasharray:none;stroke-opacity:1"
       d="M 381.86767,175.46504 L 386.27568,182.07705 L 390.68369,175.46504"
       id="path3339"
       sodipodi:nodetypes="ccc"
       inkscape:export-filename="C:\Users\Andrew\Desktop\rabbits.png"
       inkscape:export-xdpi="90"
       inkscape:export-ydpi="90" />
    <path
       style="opacity:1;fill:none;fill-rule:evenodd;stroke:none;stroke-width:1px;stroke-linecap:butt;stroke-linejoin:miter;stroke-opacity:1"
       d="M 368.64366,221.7491 L 368.64366,257.01315 L 368.64366,257.01315"
       id="path2835"
       inkscape:export-filename="C:\Users\Andrew\Desktop\rabbits.png"
       inkscape:export-xdpi="90"
       inkscape:export-ydpi="90" />
    <path
       style="opacity:1;fill:#c87615;fill-opacity:1;fill-rule:evenodd;stroke:none;stroke-width:5;stroke-linecap:butt;stroke-linejoin:miter;stroke-miterlimit:4;stroke-dasharray:none;stroke-opacity:1;display:inline"
       d="M 408.31571,212.93309 L 388.47968,232.76912 L 408.31571,228.36111 L 408.31571,261.42116 L 390.68369,296.6852 L 423.74373,281.25718 L 423.74373,217.3411 L 412.72372,199.70907"
       id="path2830"
       sodipodi:nodetypes="cccccccc"
       inkscape:export-filename="C:\Users\Andrew\Desktop\rabbits.png"
       inkscape:export-xdpi="90"
       inkscape:export-ydpi="90" />
    <path
       id="path5408"
       style="opacity:1;fill:none;fill-opacity:1;fill-rule:evenodd;stroke:#000000;stroke-width:1.10200155;stroke-linecap:butt;stroke-linejoin:miter;stroke-miterlimit:4;stroke-dasharray:none;stroke-opacity:1"
       d="M 436.96775,245.99314 C 432.55974,245.99314 423.74373,253.86458 423.74373,253.86458 L 423.74373,272.44117 L 436.96775,245.99314 z M 399.52835,146.813 L 384.07168,146.813 L 386.27568,137.99699 L 381.86767,93.916929 L 359.82764,137.99699 L 368.64366,155.62901 L 364.23565,164.44502 L 351.01163,179.87305 L 368.64366,199.70907 L 368.64366,208.52508 L 346.60363,230.56511 L 368.64366,226.15711 L 368.64366,257.01315 L 351.01163,292.2772 L 379.66367,283.46119 M 401.7037,151.22101 L 395.09169,137.99699 L 417.13172,93.916929 L 421.53973,137.99699 L 412.72372,155.62901 L 417.13172,164.44502 L 430.35574,182.07705 L 412.72372,199.70907 L 423.74373,217.3411 L 423.74373,281.25718 L 390.68369,296.6852 L 408.31571,261.42116 L 408.31571,228.36111 L 388.47968,232.76912 L 408.31571,212.93309 L 401.7037,201.91308 L 373.05166,199.70907 C 373.05166,199.70907 368.64366,207.31575 368.64366,208.52508 C 368.64366,222.05011 368.64366,257.01315 368.64366,257.01315 L 379.66367,283.46119 L 396.19369,285.66519 M 390.68369,175.46504 L 381.86767,175.46504 L 386.27568,182.07705 L 390.68369,175.46504 z M 386.27568,182.07705 L 386.27568,186.48505 L 377.45967,190.89306 L 386.27568,186.48505 L 395.09169,190.89306 L 395.09169,190.89306"
       sodipodi:nodetypes="ccccccccccccccccccccccccccccccccccccsccccccccccccc" />
    <path
       sodipodi:type="arc"
       style="opacity:1;fill:#ececec;fill-opacity:1;stroke:#000000;stroke-width:1.66999996;stroke-miterlimit:4;stroke-dasharray:none;stroke-opacity:1"
       id="path3669"
       sodipodi:cx="299.25769"
       sodipodi:cy="196.00536"
       sodipodi:rx="30.557114"
       sodipodi:ry="39.14341"
       d="M 329.8148,196.00536 A 30.557114,39.14341 0 1 1 268.70058,196.00536 A 30.557114,39.14341 0 1 1 329.8148,196.00536 z"
       transform="translate(73.006622,33.576709)" />
    <path
       style="fill:#550000;fill-rule:evenodd;stroke:#000000;stroke-width:1px;stroke-linecap:butt;stroke-linejoin:miter;stroke-opacity:1"
       d="M 395.09171,190.89307 L 386.50962,194.86894 L 377.50293,190.87143 L 386.08923,186.57828 L 395.09171,190.89307 z"
       id="path3667"
       sodipodi:nodetypes="ccccc" />
    <path
       style="fill:#c87615;fill-rule:evenodd;stroke:#000000;stroke-width:1.1;stroke-linecap:butt;stroke-linejoin:miter;stroke-opacity:1;fill-opacity:1;stroke-miterlimit:4;stroke-dasharray:none"
       d="M 408.31571,228.36111 L 388.47968,232.76912 L 408.31571,212.93309"
       id="path3693"
       sodipodi:nodetypes="ccc" />
  </g>
</svg>
