<?xml version="1.0" encoding="UTF-8" standalone="no"?>
<!-- Created with Inkscape (http://www.inkscape.org/) -->

<svg
   xmlns:dc="http://purl.org/dc/elements/1.1/"
   xmlns:cc="http://creativecommons.org/ns#"
   xmlns:rdf="http://www.w3.org/1999/02/22-rdf-syntax-ns#"
   xmlns:svg="http://www.w3.org/2000/svg"
   xmlns="http://www.w3.org/2000/svg"
   xmlns:sodipodi="http://sodipodi.sourceforge.net/DTD/sodipodi-0.dtd"
   xmlns:inkscape="http://www.inkscape.org/namespaces/inkscape"
   width="744.09448819"
   height="1052.3622047"
   id="svg7785"
   version="1.1"
   inkscape:version="0.47 r22583"
   sodipodi:docname="madison.svg">
  <defs
     id="defs7787">
    <inkscape:perspective
       sodipodi:type="inkscape:persp3d"
       inkscape:vp_x="0 : 526.18109 : 1"
       inkscape:vp_y="0 : 1000 : 0"
       inkscape:vp_z="744.09448 : 526.18109 : 1"
       inkscape:persp3d-origin="372.04724 : 350.78739 : 1"
       id="perspective7793" />
    <inkscape:perspective
       id="perspective7764"
       inkscape:persp3d-origin="0.5 : 0.33333333 : 1"
       inkscape:vp_z="1 : 0.5 : 1"
       inkscape:vp_y="0 : 1000 : 0"
       inkscape:vp_x="0 : 0.5 : 1"
       sodipodi:type="inkscape:persp3d" />
    <inkscape:perspective
       id="perspective8681"
       inkscape:persp3d-origin="0.5 : 0.33333333 : 1"
       inkscape:vp_z="1 : 0.5 : 1"
       inkscape:vp_y="0 : 1000 : 0"
       inkscape:vp_x="0 : 0.5 : 1"
       sodipodi:type="inkscape:persp3d" />
    <inkscape:perspective
       id="perspective8705"
       inkscape:persp3d-origin="0.5 : 0.33333333 : 1"
       inkscape:vp_z="1 : 0.5 : 1"
       inkscape:vp_y="0 : 1000 : 0"
       inkscape:vp_x="0 : 0.5 : 1"
       sodipodi:type="inkscape:persp3d" />
  </defs>
  <sodipodi:namedview
     id="base"
     pagecolor="#ffffff"
     bordercolor="#666666"
     borderopacity="1.0"
     inkscape:pageopacity="0.0"
     inkscape:pageshadow="2"
     inkscape:zoom="0.98994949"
     inkscape:cx="366.83297"
     inkscape:cy="561.76362"
     inkscape:document-units="px"
     inkscape:current-layer="layer1"
     showgrid="false"
     inkscape:window-width="1440"
     inkscape:window-height="838"
     inkscape:window-x="-8"
     inkscape:window-y="-8"
     inkscape:window-maximized="1"
     inkscape:object-paths="true"
     inkscape:snap-global="true" />
  <metadata
     id="metadata7790">
    <rdf:RDF>
      <cc:Work
         rdf:about="">
        <dc:format>image/svg+xml</dc:format>
        <dc:type
           rdf:resource="http://purl.org/dc/dcmitype/StillImage" />
        <dc:title></dc:title>
      </cc:Work>
    </rdf:RDF>
  </metadata>
  <g
     inkscape:label="Layer 1"
     inkscape:groupmode="layer"
     id="layer1">
    <g
       id="g8730">
      <path
         sodipodi:nodetypes="ccc"
         id="path2913-1-7"
         d="m 362.60618,518.81006 -26.75676,26.75676 26.75676,-4.86487"
         style="fill:#f2f2f2;fill-opacity:1;stroke:#000000;stroke-width:1.5;stroke-miterlimit:4;stroke-opacity:1;stroke-dasharray:none;display:inline" />
      <path
         sodipodi:nodetypes="ccccc"
         id="path3204-4"
         d="m 435.57915,562.59385 c -4.86486,0 -24.32432,14.59459 -24.32432,14.59459 l 0,24.32432 9.72973,-9.72973 14.59459,-29.18918 z"
         style="fill:#f2f2f2;fill-opacity:1;fill-rule:evenodd;stroke:none" />
      <path
         inkscape:export-ydpi="90"
         inkscape:export-xdpi="90"
         inkscape:export-filename="C:\Users\Andrew\Desktop\rabbits.png"
         sodipodi:nodetypes="ccccccccccccccccccc"
         id="path3314-8"
         d="m 408.82239,511.51276 19.45946,-19.45945 -14.59459,-19.45946 -4.86487,-9.72973 -4.86486,-9.72973 -26.75676,0 2.43244,-9.72973 -4.86487,-48.64865 -24.32432,48.64865 9.72973,19.45946 -4.86487,9.72973 -14.59459,17.02702 19.45946,21.89189 0,9.72973 0,19.45946 0,34.05406 -19.45946,38.91892 31.62162,-9.72973 36.48648,-9.72973"
         style="fill:#f2f2f2;fill-opacity:1;fill-rule:evenodd;stroke:none;display:inline" />
      <path
         inkscape:export-ydpi="90"
         inkscape:export-xdpi="90"
         inkscape:export-filename="C:\Users\Andrew\Desktop\rabbits.png"
         sodipodi:nodetypes="csccccccc"
         id="path3318-2"
         d="m 365.03861,511.51276 c 0,0 -4.86486,8.39506 -4.86486,9.72973 0,14.92681 0,53.51352 0,53.51352 l 12.16216,29.18919 19.45946,2.43243 12.16216,-26.75676 0,-53.51351 -7.2973,-12.16216 -31.62162,-2.43244 z"
         style="fill:#4d4d4d;fill-opacity:1;fill-rule:evenodd;stroke:none;display:inline" />
      <path
         inkscape:export-ydpi="90"
         inkscape:export-xdpi="90"
         inkscape:export-filename="C:\Users\Andrew\Desktop\rabbits.png"
         sodipodi:nodetypes="ccccccc"
         id="path3320-4"
         d="m 403.95753,526.10736 0,17.02703 0,36.48648 -19.45946,38.91892 36.48649,-17.02703 0,-70.54054 -12.16217,-19.45946"
         style="fill:#f2f2f2;fill-opacity:1;fill-rule:evenodd;stroke:none;display:inline" />
      <path
         inkscape:export-ydpi="90"
         inkscape:export-xdpi="90"
         inkscape:export-filename="C:\Users\Andrew\Desktop\rabbits.png"
         transform="matrix(0.19860489,0,0,0.24363114,321.85273,408.55263)"
         d="m 242,262.36218 a 12,30 0 1 1 -24,0 12,30 0 1 1 24,0 z"
         sodipodi:ry="30"
         sodipodi:rx="12"
         sodipodi:cy="262.36218"
         sodipodi:cx="230"
         id="path3335-5"
         style="fill:#000000;fill-opacity:1;fill-rule:evenodd;stroke:none;display:inline"
         sodipodi:type="arc" />
      <path
         inkscape:export-ydpi="90"
         inkscape:export-xdpi="90"
         inkscape:export-filename="C:\Users\Andrew\Desktop\rabbits.png"
         transform="matrix(0.19860489,0,0,0.24363114,346.05543,408.79587)"
         d="m 242,262.36218 a 12,30 0 1 1 -24,0 12,30 0 1 1 24,0 z"
         sodipodi:ry="30"
         sodipodi:rx="12"
         sodipodi:cy="262.36218"
         sodipodi:cx="230"
         id="path3337-5"
         style="fill:#000000;fill-opacity:1;fill-rule:evenodd;stroke:none;display:inline"
         sodipodi:type="arc" />
      <path
         inkscape:export-ydpi="90"
         inkscape:export-xdpi="90"
         inkscape:export-filename="C:\Users\Andrew\Desktop\rabbits.png"
         sodipodi:nodetypes="ccc"
         id="path3339-1"
         d="m 374.76834,484.75601 4.86487,7.2973 4.86486,-7.2973"
         style="fill:#000000;fill-opacity:1;fill-rule:evenodd;stroke:none" />
      <path
         inkscape:export-ydpi="90"
         inkscape:export-xdpi="90"
         inkscape:export-filename="C:\Users\Andrew\Desktop\rabbits.png"
         id="path3195-7"
         d="m 360.17375,535.83709 0,38.91892 0,0"
         style="fill:none;stroke:none" />
      <path
         sodipodi:nodetypes="ccccccccccccccccccccccccccccccccccsccccccccccccc"
         d="m 435.57915,562.59385 c -4.86486,0 -14.59459,8.68725 -14.59459,8.68725 l 0,20.50193 14.59459,-29.18918 z m -41.31973,-109.45946 -17.05865,0 2.43244,-9.72973 -4.86487,-48.64865 -24.32432,48.64865 9.72973,19.45946 -4.86487,9.72973 -14.59459,17.02702 19.45946,21.89189 0,9.72973 0,19.45946 0,34.05406 -19.45946,38.91892 31.62162,-9.72973 m 24.32432,-145.94595 -7.29729,-14.59459 24.32432,-48.64865 4.86486,48.64865 -9.72973,19.45946 4.86487,9.72973 14.59459,19.45946 -19.45946,19.45945 12.16217,19.45946 0,70.54054 -36.48649,17.02703 19.45946,-38.91892 0,-36.48648 0,-17.02703 -7.2973,-12.16216 -31.62162,-2.43244 c 0,0 -4.86486,8.39506 -4.86486,9.72973 0,14.92681 0,53.51352 0,53.51352 l 12.16216,29.18919 18.24324,2.43243 m -6.08108,-121.62162 -9.72973,0 4.86487,7.2973 4.86486,-7.2973 z m -4.86486,7.2973 0,4.86486 -9.72973,4.86487 9.72973,-4.86487 9.72973,4.86487 0,0"
         style="fill:none;stroke:#000000;stroke-width:1.5;stroke-linecap:butt;stroke-linejoin:miter;stroke-miterlimit:4;stroke-opacity:1;stroke-dasharray:none"
         id="path5408-1" />
      <g
         id="g8725">
        <path
           style="fill:#ffffff;fill-opacity:1;stroke:#000000;stroke-width:1.5;stroke-linecap:butt;stroke-linejoin:miter;stroke-miterlimit:4;stroke-opacity:1;stroke-dasharray:none"
           d="m 358.82879,460.1742 c 0,0 -5.52794,13.6231 -8.55839,15.39087 -3.03046,1.76777 -8.83884,4.5457 -11.11167,6.06092 -6.63474,4.42317 -7.11559,14.85514 2.52537,13.8896 4.73647,-0.47436 10.26987,-13.98593 13.52413,-21.65907 3.3697,-7.94534 4.38687,-10.06831 4.96552,-10.9924 1.13747,-1.81651 -0.76147,-3.10794 -1.34496,-2.68992 z"
           id="path7889"
           sodipodi:nodetypes="csssssc" />
        <path
           style="fill:#ffffff;fill-opacity:1;stroke:#000000;stroke-width:1.5;stroke-linecap:butt;stroke-linejoin:miter;stroke-miterlimit:4;stroke-opacity:1;stroke-dasharray:none"
           d="m 346.50849,483.30608 c 0,0 -6.11374,3.63265 -8.59803,12.33781"
           id="path8695-2"
           sodipodi:nodetypes="cs" />
        <path
           style="fill:#ffffff;fill-opacity:1;stroke:#000000;stroke-width:1.5;stroke-linecap:butt;stroke-linejoin:miter;stroke-miterlimit:4;stroke-opacity:1;stroke-dasharray:none"
           d="m 345.7044,481.626 c 0,0 -6.81853,2.0203 -11.36421,9.84899"
           id="path8695"
           sodipodi:nodetypes="cs" />
      </g>
      <path
         sodipodi:nodetypes="cssssc"
         id="path7838"
         d="m 409.0765,461.90044 c 0,0 -8.45272,8.70779 0.15845,18.06634 4.32161,4.6967 9.74003,24.50236 24.33648,12.3954 7.63777,-6.33512 -6.23423,-13.75833 -14.80566,-16.61547 -8.57143,-2.85714 -11.62291,-27.67024 -13.05148,-23.38453 -1.42858,4.28572 -3.16045,8.98985 3.36221,9.53826 z"
         style="fill:#ffffff;fill-opacity:1;stroke:#000000;stroke-width:1.50000000000000000;stroke-linecap:butt;stroke-linejoin:miter;stroke-miterlimit:4;stroke-opacity:1;stroke-dasharray:none" />
      <path
         sodipodi:nodetypes="ccccccc"
         style="fill:#550000;fill-opacity:1;fill-rule:evenodd;stroke:#000000;stroke-width:1.5;stroke-linecap:butt;stroke-linejoin:miter;stroke-miterlimit:4;stroke-opacity:1;stroke-dasharray:none;display:inline"
         d="m 379.63321,490.10736 0,6.81081 -9.72973,4.86487 9.72973,4.86486 9.72973,-4.86486 -9.72973,-4.86487 0,0"
         id="path3168-7-1"
         inkscape:export-filename="C:\Users\Andrew\Desktop\rabbits.png"
         inkscape:export-xdpi="90"
         inkscape:export-ydpi="90" />
      <path
         sodipodi:nodetypes="ccc"
         id="path2913-5"
         d="m 408.82239,521.24249 -26.75675,26.75676 26.75675,-4.86486"
         style="fill:#f2f2f2;fill-opacity:1;stroke:#000000;stroke-width:1.5;stroke-miterlimit:4;stroke-opacity:1;stroke-dasharray:none" />
      <path
         sodipodi:nodetypes="cccsc"
         id="path7836"
         d="m 378.28566,451.06767 -1.08489,2.06672 c -0.015,4.08767 -1.00371,0.18718 3.79452,8.01586 9.09137,-6.81853 17.69358,-3.54486 15.4124,-7.44415 -2.3595,-4.03317 -7.83725,-6.58313 -18.12203,-2.63843 z"
         style="fill:#ffffff;fill-opacity:1;stroke:#000000;stroke-width:1.5;stroke-linecap:butt;stroke-linejoin:miter;stroke-miterlimit:4;stroke-opacity:1;stroke-dasharray:none" />
      <path
         inkscape:export-ydpi="90"
         inkscape:export-xdpi="90"
         inkscape:export-filename="C:\Users\Andrew\Desktop\rabbits.png"
         sodipodi:nodetypes="ccccc"
         id="path3316-8"
         d="m 396.66023,457.99925 -7.29729,-14.59459 24.32432,-48.64865 4.86486,48.64865 -10.91984,20.39232"
         style="fill:#f2f2f2;fill-opacity:1;fill-rule:evenodd;stroke:#000000;display:inline;stroke-width:1.5" />
      <path
         sodipodi:nodetypes="cs"
         id="path8671"
         d="m 420.72854,483.39376 c 0,0 8.5863,5.3033 9.59644,11.11168"
         style="fill:#ffffff;fill-opacity:1;stroke:#000000;stroke-width:1.5;stroke-linecap:butt;stroke-linejoin:miter;stroke-miterlimit:4;stroke-opacity:1;stroke-dasharray:none" />
      <path
         sodipodi:nodetypes="cs"
         id="path8671-5"
         d="m 422.87511,480.61583 c 0,0 8.5863,3.53554 11.11167,10.85915"
         style="fill:#ffffff;fill-opacity:1;stroke:#000000;stroke-width:1.5;stroke-linecap:butt;stroke-linejoin:miter;stroke-miterlimit:4;stroke-opacity:1;stroke-dasharray:none" />
      <path
         sodipodi:nodetypes="cs"
         id="path8719"
         d="m 385.62573,452.58411 c 0,0 -3.53553,2.0203 -4.29314,7.82868"
         style="fill:#ffffff;fill-opacity:1;stroke:#000000;stroke-width:1.5;stroke-linecap:butt;stroke-linejoin:miter;stroke-miterlimit:4;stroke-opacity:1;stroke-dasharray:none" />
      <path
         sodipodi:nodetypes="cs"
         id="path8721"
         d="m 388.38336,456.64502 c 0,0 -0.75762,-2.52538 1.26269,-4.54568"
         style="fill:#ffffff;fill-opacity:1;stroke:#000000;stroke-width:1.5;stroke-linecap:butt;stroke-linejoin:miter;stroke-miterlimit:4;stroke-opacity:1;stroke-dasharray:none" />
      <path
         sodipodi:nodetypes="cs"
         id="path8723"
         d="m 377.54452,455.61456 c 0,0 1.26269,-2.27284 3.53553,-3.78807"
         style="fill:#ffffff;fill-opacity:1;stroke:#000000;stroke-width:1.5;stroke-linecap:butt;stroke-linejoin:miter;stroke-miterlimit:4;stroke-opacity:1;stroke-dasharray:none" />
    </g>
  </g>
</svg>
