<?xml version="1.0" encoding="UTF-8" standalone="no"?>
<!-- Created with Inkscape (http://www.inkscape.org/) -->

<svg
   xmlns:dc="http://purl.org/dc/elements/1.1/"
   xmlns:cc="http://creativecommons.org/ns#"
   xmlns:rdf="http://www.w3.org/1999/02/22-rdf-syntax-ns#"
   xmlns:svg="http://www.w3.org/2000/svg"
   xmlns="http://www.w3.org/2000/svg"
   xmlns:sodipodi="http://sodipodi.sourceforge.net/DTD/sodipodi-0.dtd"
   xmlns:inkscape="http://www.inkscape.org/namespaces/inkscape"
   width="744.09448819"
   height="1052.3622047"
   id="svg2"
   version="1.1"
   inkscape:version="0.47 r22583"
   sodipodi:docname="politician.svg">
  <defs
     id="defs4">
    <inkscape:perspective
       sodipodi:type="inkscape:persp3d"
       inkscape:vp_x="0 : 526.18109 : 1"
       inkscape:vp_y="0 : 1000 : 0"
       inkscape:vp_z="744.09448 : 526.18109 : 1"
       inkscape:persp3d-origin="372.04724 : 350.78739 : 1"
       id="perspective10" />
    <inkscape:perspective
       id="perspective2828"
       inkscape:persp3d-origin="0.5 : 0.33333333 : 1"
       inkscape:vp_z="1 : 0.5 : 1"
       inkscape:vp_y="0 : 1000 : 0"
       inkscape:vp_x="0 : 0.5 : 1"
       sodipodi:type="inkscape:persp3d" />
    <inkscape:perspective
       id="perspective3215"
       inkscape:persp3d-origin="0.5 : 0.33333333 : 1"
       inkscape:vp_z="1 : 0.5 : 1"
       inkscape:vp_y="0 : 1000 : 0"
       inkscape:vp_x="0 : 0.5 : 1"
       sodipodi:type="inkscape:persp3d" />
    <inkscape:perspective
       id="perspective3291"
       inkscape:persp3d-origin="0.5 : 0.33333333 : 1"
       inkscape:vp_z="1 : 0.5 : 1"
       inkscape:vp_y="0 : 1000 : 0"
       inkscape:vp_x="0 : 0.5 : 1"
       sodipodi:type="inkscape:persp3d" />
    <inkscape:perspective
       id="perspective3320"
       inkscape:persp3d-origin="0.5 : 0.33333333 : 1"
       inkscape:vp_z="1 : 0.5 : 1"
       inkscape:vp_y="0 : 1000 : 0"
       inkscape:vp_x="0 : 0.5 : 1"
       sodipodi:type="inkscape:persp3d" />
    <inkscape:perspective
       id="perspective3356"
       inkscape:persp3d-origin="0.5 : 0.33333333 : 1"
       inkscape:vp_z="1 : 0.5 : 1"
       inkscape:vp_y="0 : 1000 : 0"
       inkscape:vp_x="0 : 0.5 : 1"
       sodipodi:type="inkscape:persp3d" />
    <inkscape:perspective
       id="perspective3380"
       inkscape:persp3d-origin="0.5 : 0.33333333 : 1"
       inkscape:vp_z="1 : 0.5 : 1"
       inkscape:vp_y="0 : 1000 : 0"
       inkscape:vp_x="0 : 0.5 : 1"
       sodipodi:type="inkscape:persp3d" />
    <clipPath
       clipPathUnits="userSpaceOnUse"
       id="clipPath3416">
      <path
         style="fill:#ffffff;fill-opacity:1;stroke:#000000;stroke-width:2;stroke-linecap:butt;stroke-linejoin:miter;stroke-miterlimit:4;stroke-opacity:1;stroke-dasharray:none"
         d="m 235.75,236.09375 c -11.74957,26.0581 -26.63543,68.06633 -10.15625,92.28125 -0.69621,9.56009 -2.29607,27.60449 -3.375,39.65625 -8.16133,6.872 -17.66098,16.82955 -23.09375,29.28125 l 10.90625,0 -5.46875,10 10.90625,0 -5.4375,15 c 0,0 16.36932,-20 38.1875,-20 l 21.8125,0 c 21.81818,0 38.1875,20 38.1875,20 l -5.46875,-15 10.90625,0 -5.4375,-10 10.90625,0 c -5.57594,-12.77982 -15.4182,-22.92743 -23.71875,-29.8125 -1.16653,-10.61727 -4.46875,-41.03187 -4.46875,-45.1875 0,-2.5 -16.25,-3.75 -32.5,-3.75 -4.01933,0 -8.03907,0.0971 -11.8125,0.25 L 251,302.375 c 0,0 -3.86816,-26.6523 -15.25,-66.28125 z"
         id="path3418" />
    </clipPath>
    <inkscape:perspective
       id="perspective3411"
       inkscape:persp3d-origin="0.5 : 0.33333333 : 1"
       inkscape:vp_z="1 : 0.5 : 1"
       inkscape:vp_y="0 : 1000 : 0"
       inkscape:vp_x="0 : 0.5 : 1"
       sodipodi:type="inkscape:persp3d" />
    <inkscape:perspective
       id="perspective3449"
       inkscape:persp3d-origin="0.5 : 0.33333333 : 1"
       inkscape:vp_z="1 : 0.5 : 1"
       inkscape:vp_y="0 : 1000 : 0"
       inkscape:vp_x="0 : 0.5 : 1"
       sodipodi:type="inkscape:persp3d" />
    <inkscape:perspective
       id="perspective4243"
       inkscape:persp3d-origin="0.5 : 0.33333333 : 1"
       inkscape:vp_z="1 : 0.5 : 1"
       inkscape:vp_y="0 : 1000 : 0"
       inkscape:vp_x="0 : 0.5 : 1"
       sodipodi:type="inkscape:persp3d" />
    <clipPath
       clipPathUnits="userSpaceOnUse"
       id="clipPath2889">
      <path
         style="fill:#ffffff;fill-opacity:1;stroke:#000000;stroke-width:2"
         d="M 229.16637,402.53896 220,422.36218 l 10,100 45,0 24,-10 2,-85 -16,-30 -55.83363,5.17678 z"
         id="path2891"
         sodipodi:nodetypes="cccccccc" />
    </clipPath>
    <inkscape:perspective
       id="perspective2880"
       inkscape:persp3d-origin="0.5 : 0.33333333 : 1"
       inkscape:vp_z="1 : 0.5 : 1"
       inkscape:vp_y="0 : 1000 : 0"
       inkscape:vp_x="0 : 0.5 : 1"
       sodipodi:type="inkscape:persp3d" />
    <inkscape:perspective
       id="perspective4208"
       inkscape:persp3d-origin="0.5 : 0.33333333 : 1"
       inkscape:vp_z="1 : 0.5 : 1"
       inkscape:vp_y="0 : 1000 : 0"
       inkscape:vp_x="0 : 0.5 : 1"
       sodipodi:type="inkscape:persp3d" />
    <clipPath
       clipPathUnits="userSpaceOnUse"
       id="clipPath5719-31">
      <path
         sodipodi:nodetypes="csscsscc"
         id="use5721-9"
         d="m 71.003638,419.51443 c 0,0 -9.308573,14.65965 -9.308573,17.13452 0,2.47487 1.06066,32.52691 1.06066,34.29468 0,1.76777 5.656856,8.13173 5.656856,8.13173 0,0 7.77818,-7.07107 7.42463,-9.19239 -0.35356,-2.12132 1.414213,-31.11271 0.707103,-33.94113 -0.70711,-2.82843 0.353557,-16.26345 0.353557,-16.26345 l -5.894233,-0.16396 z"
         style="fill:none;stroke:#000000;stroke-width:2;stroke-linecap:butt;stroke-linejoin:miter;stroke-miterlimit:4;stroke-opacity:1;stroke-dasharray:none" />
    </clipPath>
  </defs>
  <sodipodi:namedview
     id="base"
     pagecolor="#ffffff"
     bordercolor="#666666"
     borderopacity="1.0"
     inkscape:pageopacity="0.0"
     inkscape:pageshadow="2"
     inkscape:zoom="0.70710678"
     inkscape:cx="226.43484"
     inkscape:cy="702.67094"
     inkscape:document-units="px"
     inkscape:current-layer="layer1"
     showgrid="true"
     inkscape:window-width="1440"
     inkscape:window-height="838"
     inkscape:window-x="-8"
     inkscape:window-y="-8"
     inkscape:window-maximized="1"
     inkscape:object-nodes="false"
     inkscape:snap-global="true"
     inkscape:snap-grids="false">
    <inkscape:grid
       type="xygrid"
       id="grid2816" />
  </sodipodi:namedview>
  <metadata
     id="metadata7">
    <rdf:RDF>
      <cc:Work
         rdf:about="">
        <dc:format>image/svg+xml</dc:format>
        <dc:type
           rdf:resource="http://purl.org/dc/dcmitype/StillImage" />
        <dc:title></dc:title>
      </cc:Work>
    </rdf:RDF>
  </metadata>
  <g
     inkscape:label="Layer 1"
     inkscape:groupmode="layer"
     id="layer1">
    <g
       transform="matrix(0.32391578,0,0,0.32391578,130.86738,225.7525)"
       style="stroke-width:6.16666698;stroke-miterlimit:4;stroke-dasharray:none;display:inline"
       id="g3361-1-4">
      <path
         sodipodi:nodetypes="ccc"
         id="path2913-1-7-2"
         d="M 830,550 720,660 830,640"
         style="fill:#c87615;fill-opacity:1;stroke:#000000;stroke-width:6.16666698;stroke-miterlimit:4;stroke-opacity:1;stroke-dasharray:none;display:inline" />
      <g
         id="g5866-4-3"
         style="stroke-width:6.16666698;stroke-miterlimit:4;stroke-dasharray:none">
        <g
           id="g2424-0-2"
           style="stroke-width:6.16666698;stroke-miterlimit:4;stroke-dasharray:none">
          <g
             style="stroke:none;display:inline"
             id="g23094-9-21">
            <path
               style="fill:#c87615;fill-opacity:1;fill-rule:evenodd;stroke:none"
               d="m 1130,730 c -20,0 -100,60 -100,60 l 0,100 40,-40 60,-120 z"
               id="path3204-4-6"
               sodipodi:nodetypes="ccccc" />
            <path
               style="fill:#c87615;fill-opacity:1;fill-rule:evenodd;stroke:none;display:inline"
               d="m 1020,520 80,-80 -60,-80 -20,-40 -20,-40 -110,0 10,-40 -20,-200 -100,200 40,80 -20,40 -60,70 80,90 0,40 0,80 0,140 -80,160 130,-40 150,-40"
               id="path3314-8-85"
               sodipodi:nodetypes="ccccccccccccccccccc"
               inkscape:export-filename="C:\Users\Andrew\Desktop\rabbits.png"
               inkscape:export-xdpi="90"
               inkscape:export-ydpi="90" />
            <path
               style="fill:#c87615;fill-opacity:1;fill-rule:evenodd;stroke:none;display:inline"
               d="m 970,300 -30,-60 100,-200 20,200 -40,80"
               id="path3316-8-7"
               sodipodi:nodetypes="ccccc"
               inkscape:export-filename="C:\Users\Andrew\Desktop\rabbits.png"
               inkscape:export-xdpi="90"
               inkscape:export-ydpi="90" />
            <path
               style="fill:#d38d5f;fill-opacity:1;fill-rule:evenodd;stroke:none;display:inline"
               d="m 840,520 c 0,0 -20,34.513 -20,40 0,61.36574 0,220 0,220 l 50,120 80,10 50,-110 0,-220 -30,-50 -130,-10 z"
               id="path3318-2-6"
               sodipodi:nodetypes="csccccccc"
               inkscape:export-filename="C:\Users\Andrew\Desktop\rabbits.png"
               inkscape:export-xdpi="90"
               inkscape:export-ydpi="90" />
            <path
               style="fill:#c87615;fill-opacity:1;fill-rule:evenodd;stroke:none;display:inline"
               d="m 1000,580 0,70 0,150 -80,160 150,-70 0,-290 -50,-80"
               id="path3320-4-1"
               sodipodi:nodetypes="ccccccc"
               inkscape:export-filename="C:\Users\Andrew\Desktop\rabbits.png"
               inkscape:export-xdpi="90"
               inkscape:export-ydpi="90" />
            <path
               sodipodi:type="arc"
               style="fill:#000000;fill-opacity:1;fill-rule:evenodd;stroke:none;display:inline"
               id="path3335-5-89"
               sodipodi:cx="230"
               sodipodi:cy="262.36218"
               sodipodi:rx="12"
               sodipodi:ry="30"
               d="m 242,262.36218 c 0,16.56855 -5.37258,30 -12,30 -6.62742,0 -12,-13.43145 -12,-30 0,-16.56854 5.37258,-30 12,-30 6.62742,0 12,13.43146 12,30 z"
               transform="matrix(0.8164868,0,0,1.0015947,662.45804,96.719429)"
               inkscape:export-filename="C:\Users\Andrew\Desktop\rabbits.png"
               inkscape:export-xdpi="90"
               inkscape:export-ydpi="90" />
            <path
               sodipodi:type="arc"
               style="fill:#000000;fill-opacity:1;fill-rule:evenodd;stroke:none;display:inline"
               id="path3337-5-2"
               sodipodi:cx="230"
               sodipodi:cy="262.36218"
               sodipodi:rx="12"
               sodipodi:ry="30"
               d="m 242,262.36218 c 0,16.56855 -5.37258,30 -12,30 -6.62742,0 -12,-13.43145 -12,-30 0,-16.56854 5.37258,-30 12,-30 6.62742,0 12,13.43146 12,30 z"
               transform="matrix(0.8164868,0,0,1.0015947,761.95804,97.719428)"
               inkscape:export-filename="C:\Users\Andrew\Desktop\rabbits.png"
               inkscape:export-xdpi="90"
               inkscape:export-ydpi="90" />
            <path
               style="fill:#000000;fill-opacity:1;fill-rule:evenodd;stroke:none"
               d="m 880,410 20,30 20,-30"
               id="path3339-1-7"
               sodipodi:nodetypes="ccc"
               inkscape:export-filename="C:\Users\Andrew\Desktop\rabbits.png"
               inkscape:export-xdpi="90"
               inkscape:export-ydpi="90" />
            <path
               style="fill:none;stroke:none"
               d="m 820,620 0,160 0,0"
               id="path3195-7-9"
               inkscape:export-filename="C:\Users\Andrew\Desktop\rabbits.png"
               inkscape:export-xdpi="90"
               inkscape:export-ydpi="90" />
          </g>
          <path
             sodipodi:nodetypes="ccccccccccccccccccccccccccccccccccsccccccccccccc"
             d="m 1130,730 c -20,0 -60,35.71429 -60,35.71429 L 1070,850 1130,730 z M 960.12998,280 890,280 900,240 880,40 780,240 l 40,80 -20,40 -60,70 80,90 0,40 0,80 0,140 -80,160 130,-40 m 100,-600 -30,-60 100,-200 20,200 -40,80 20,40 60,80 -80,80 50,80 0,290 -150,70 80,-160 0,-150 0,-70 -30,-50 -130,-10 c 0,0 -20,34.513 -20,40 0,61.36574 0,220 0,220 l 50,120 75,10 m -25,-500 -40,0 20,30 20,-30 z m -20,30 0,20 -40,20 40,-20 40,20 0,0"
             style="fill:none;stroke:#000000;stroke-width:6.16666698;stroke-linecap:butt;stroke-linejoin:miter;stroke-miterlimit:4;stroke-opacity:1;stroke-dasharray:none"
             id="path5408-1-5" />
        </g>
        <path
           inkscape:export-ydpi="90"
           inkscape:export-xdpi="90"
           inkscape:export-filename="C:\Users\Andrew\Desktop\rabbits.png"
           id="path3168-7-1-4"
           d="m 900,432 0,28 -40,20 40,20 40,-20 -40,-20 0,0"
           style="fill:#550000;fill-opacity:1;fill-rule:evenodd;stroke:#000000;stroke-width:6.16666698;stroke-linecap:butt;stroke-linejoin:miter;stroke-miterlimit:4;stroke-opacity:1;stroke-dasharray:none;display:inline"
           sodipodi:nodetypes="ccccccc" />
      </g>
      <path
         sodipodi:nodetypes="ccc"
         id="path2913-5-3"
         d="M 1020,560 910,670 1020,650"
         style="fill:#c87615;fill-opacity:1;stroke:#000000;stroke-width:6.16666698;stroke-miterlimit:4;stroke-opacity:1;stroke-dasharray:none" />
    </g>
    <g
       id="g4276">
      <path
         id="path3435"
         d="m 230,492.36218 -30,50 40,-10 10,-20 -20,-20 z"
         style="fill:#f2f2f2;fill-opacity:1;stroke:#000000;stroke-width:2;stroke-linecap:butt;stroke-linejoin:miter;stroke-miterlimit:4;stroke-opacity:1;stroke-dasharray:none" />
      <path
         style="fill:#f2f2f2;fill-opacity:1;stroke:#000000;stroke-width:1.99748075000000000;stroke-miterlimit:4;stroke-opacity:1;stroke-dasharray:none;display:inline"
         d="m 222,417.20976 -42,-14.84758 42,44"
         id="path2913-5-3-8-8"
         sodipodi:nodetypes="ccc" />
      <g
         clip-path="url(#clipPath2889)"
         id="g2867">
        <path
           style="fill:#ffffff;fill-opacity:1;stroke:none"
           d="m 235,397.36218 c 0,0 -20,25 -20,25 l 15,100 c 0,0 75,5 75,0 0,-5 0,-95 0,-95 l -20,-30 -50,0 z"
           id="path2865" />
        <path
           style="fill:#f2f2f2;fill-opacity:1;stroke:none;stroke-width:2;stroke-linecap:butt;stroke-linejoin:miter;stroke-miterlimit:4;stroke-opacity:1;stroke-dasharray:none"
           d="m 230,397.36218 -5,25 5,105 -15,-105 15,-25 z"
           id="path2863"
           sodipodi:nodetypes="ccccc" />
        <path
           style="fill:#f2f2f2;fill-opacity:1;stroke:none;stroke-width:2;stroke-linecap:butt;stroke-linejoin:miter;stroke-miterlimit:4;stroke-opacity:1;stroke-dasharray:none"
           d="m 255,397.36218 c 0,0 6.66902,7.52624 15,20 10,15 5,70 5,70 l -15,45 40,0 5,-105 -20,-30 -30,0 z"
           id="path4261"
           sodipodi:nodetypes="cscccccc" />
      </g>
      <path
         sodipodi:nodetypes="cccccccc"
         id="path3433"
         d="M 229.16637,402.53896 220,422.36218 l 10,100 45,0 24,-10 2,-85 -16,-30 -55.83363,5.17678 z"
         style="fill:none;stroke:#000000;stroke-width:2" />
      <g
         clip-path="url(#clipPath3416)"
         id="g3396">
        <path
           style="fill:#ffffff;fill-opacity:1;stroke:none"
           d="m 238,231.86218 20,66.5 -3,16 c 0,0 17.5,-4 21.5,-1.5 4,2.5 25.5,18.5 25.5,18.5 0,0 -2,31 1,35 3,4 28,30.5 28,30.5 0,0 -17,36 -19.5,35.5 -2.5,-0.5 -45.5,-23 -45.5,-23 l -32,3.5 c 0,0 -21.5,21.5 -23.5,21 -2,-0.5 -14.5,-11 -14.5,-11 l -8,-34 c 0,0 29,-24 29,-27.5 0,-3.5 1.5,-30.5 1.5,-30.5 l -9.5,-37 c 0,0 10,-64.5 12.5,-64 2.5,0.5 16.5,1 16.5,2 z"
           id="path3394" />
        <path
           style="fill:#f9f9f9;fill-opacity:1;stroke:none"
           d="m 235.5,233.86218 c 0,0 10,5 -1,20 -4.50369,6.1414 -16.42319,58.12699 -8.90625,74.51282 -16.32633,12.76703 -6.75104,15.90097 -8.09375,19.98718 -3.18963,9.70688 33.92932,72.7284 -6.5,99 -8.07739,5.24882 -3.81037,-147.29303 -2,-153.5 3.5,-12 10.5,-53 26.5,-60 z"
           id="path3344"
           sodipodi:nodetypes="cscsssc" />
        <path
           style="fill:#e6e6e6;fill-opacity:1;stroke:none"
           d="m 202.5,384.36218 18,6 -3,9 8,2 0,19 c 0,0 -17.5,11 -20,7 -2.5,-4 -12,-34.5 -12,-34.5 l 9,-8.5 z"
           id="path3346" />
        <path
           sodipodi:nodetypes="csscc"
           style="fill:#f9f9f9;fill-opacity:1;stroke:none"
           d="m 293.5,334.36218 c 0,0 0.5,-0.5 -6,5 -6.5,5.5 -21.5,82.56213 5,79.06213 20.37784,-2.69141 13.5,-76.56213 13.5,-76.56213 l -12.5,-7.5 z"
           id="path3370" />
        <path
           style="fill:#e6e6e6;fill-opacity:1;stroke:none"
           d="m 315.5,382.42431 -18,6 3,9 -8,2 0,19 c 0,0 17.5,11 20,7 2.5,-4 12,-34.5 12,-34.5 l -9,-8.5 z"
           id="path3346-9" />
      </g>
      <path
         inkscape:export-ydpi="90"
         inkscape:export-xdpi="90"
         inkscape:export-filename="C:\Users\Andrew\Desktop\rabbits.png"
         transform="matrix(0.26447296,0,0,0.32443233,172.34489,257.24341)"
         d="m 242,262.36218 a 12,30 0 1 1 -24,0 12,30 0 1 1 24,0 z"
         sodipodi:ry="30"
         sodipodi:rx="12"
         sodipodi:cy="262.36218"
         sodipodi:cx="230"
         id="path3335-5-89-7"
         style="fill:#000000;fill-opacity:1;fill-rule:evenodd;stroke:none;display:inline"
         sodipodi:type="arc" />
      <path
         inkscape:export-ydpi="90"
         inkscape:export-xdpi="90"
         inkscape:export-filename="C:\Users\Andrew\Desktop\rabbits.png"
         transform="matrix(0.26447296,0,0,0.33287038,204.17122,254.02959)"
         d="m 242,262.36218 a 12,33.045887 0 1 1 -24,0 12,33.045887 0 1 1 24,0 z"
         sodipodi:ry="33.045887"
         sodipodi:rx="12"
         sodipodi:cy="262.36218"
         sodipodi:cx="230"
         id="path3337-5-2-4"
         style="fill:#000000;fill-opacity:1;fill-rule:evenodd;stroke:none;display:inline"
         sodipodi:type="arc" />
      <path
         id="path3336"
         d="m 240,357.36218 10,0 -5,10 -5,-10 z"
         style="fill:#000000;fill-opacity:1;stroke:#000000;stroke-width:2;stroke-linecap:butt;stroke-linejoin:miter;stroke-miterlimit:4;stroke-opacity:1;stroke-dasharray:none" />
      <path
         sodipodi:nodetypes="ccccccc"
         id="path3338"
         d="m 245,367.36218 0,18 -7,7 7,5 7,-5 -7,-7 0,-18 z"
         style="fill:#550000;fill-opacity:1;stroke:#000000;stroke-width:2;stroke-linecap:butt;stroke-linejoin:miter;stroke-miterlimit:4;stroke-opacity:1;stroke-dasharray:none" />
      <path
         sodipodi:nodetypes="cccccccssccccccccccc"
         id="path3277"
         d="m 260,402.36218 c 35,0 48.21875,19.95032 48.21875,19.95032 l -5.46875,-15 10.90625,0 -5.4375,-10 10.90625,0 c -5.57594,-12.77982 -15.4182,-22.92743 -23.71875,-29.8125 -1.16653,-10.61727 -4.46875,-41.03187 -4.46875,-45.1875 0,-2.5 -16.25,-3.75 -32.5,-3.75 -4.01933,0 -8.03907,0.0971 -11.8125,0.25 L 251,302.375 c 0,0 -3.86816,-26.6523 -15.25,-66.28125 -11.74957,26.0581 -26.63543,68.06633 -10.15625,92.28125 -0.69621,9.56009 -2.29607,27.60449 -3.375,39.65625 -8.16133,6.872 -17.66098,16.82955 -23.09375,29.28125 l 10.90625,0 -5.46875,10 10.90625,0 -5.4375,15 c 0,0 19.6152,-17.12189 24.96875,-18.5361"
         style="fill:none;stroke:#000000;stroke-width:2;stroke-linecap:butt;stroke-linejoin:miter;stroke-miterlimit:4;stroke-opacity:1;stroke-dasharray:none" />
      <g
         id="g3429">
        <path
           style="fill:#ffffff;fill-opacity:1;stroke:#000000;stroke-width:2;stroke-linecap:butt;stroke-linejoin:miter;stroke-miterlimit:4;stroke-opacity:1;stroke-dasharray:none"
           d="m 275,327.36218 c -2.32387,-29.28898 31.71834,-58.28977 55,-75 -10,40 -20,65 -20,65 l -20,20"
           id="path3308"
           sodipodi:nodetypes="cccc" />
        <path
           style="fill:#fff6d5;stroke:none;stroke-width:2;stroke-linecap:butt;stroke-linejoin:miter;stroke-miterlimit:4;stroke-opacity:1;stroke-dasharray:none;fill-opacity:1"
           d="m 280,322.36218 c 0,0 15,-35 40,-55 -10,25 -5,45 -30,55"
           id="path3342"
           sodipodi:nodetypes="ccs" />
      </g>
      <path
         id="path2910"
         d="M 294.0351,503.64732 312,477.36218 l -25,10 7.0351,16.28514 z"
         style="fill:#f2f2f2;fill-opacity:1;stroke:#000000;stroke-width:2" />
      <path
         id="path3437"
         d="m 280,492.36218 -30,50 40,-10 10,-20 0,-40"
         style="fill:#f2f2f2;fill-opacity:1;stroke:#000000;stroke-width:2;stroke-linecap:butt;stroke-linejoin:miter;stroke-miterlimit:4;stroke-opacity:1;stroke-dasharray:none" />
      <path
         sodipodi:nodetypes="ccccc"
         id="path4259"
         d="m 189,409.36218 0,-25 5,20 0,5 -5,0 z"
         style="fill:#f9f9f9;fill-opacity:1;stroke:#000000;stroke-width:2;stroke-linecap:butt;stroke-linejoin:miter;stroke-miterlimit:4;stroke-opacity:1;stroke-dasharray:none" />
      <path
         sodipodi:nodetypes="ccccccc"
         id="path4257"
         d="m 184,399.36218 -5,5 5,5 10,0 0,-5 -5,-5 -5,0 z"
         style="fill:#f9f9f9;fill-opacity:1;stroke:#000000;stroke-width:2;stroke-linecap:butt;stroke-linejoin:miter;stroke-miterlimit:4;stroke-opacity:1;stroke-dasharray:none" />
      <path
         id="path4274"
         d="m 242.18407,403.23815 7.77818,0 -1.06066,20.15255 6.01041,49.85102 -8.48528,10.25305 -10.25305,-10.6066 2.12132,-50.20458 3.88908,-19.44544 z"
         style="fill:#aa0000;fill-opacity:1;stroke:#000000;stroke-width:2;stroke-linecap:butt;stroke-linejoin:miter;stroke-miterlimit:4;stroke-opacity:1;stroke-dasharray:none" />
      <path
         style="fill:#f2f2f2;fill-opacity:1;stroke:#000000;stroke-width:1.99748075000000000;stroke-miterlimit:4;stroke-opacity:1;stroke-dasharray:none;display:inline"
         d="m 280,413.20976 -35,39.15242 35,-10"
         id="path2913-5-3-8"
         sodipodi:nodetypes="ccc" />
    </g>
  </g>
</svg>
