<?xml version="1.0" encoding="UTF-8" standalone="no"?>
<!-- Created with Inkscape (http://www.inkscape.org/) -->

<svg
   xmlns:dc="http://purl.org/dc/elements/1.1/"
   xmlns:cc="http://creativecommons.org/ns#"
   xmlns:rdf="http://www.w3.org/1999/02/22-rdf-syntax-ns#"
   xmlns:svg="http://www.w3.org/2000/svg"
   xmlns="http://www.w3.org/2000/svg"
   xmlns:sodipodi="http://sodipodi.sourceforge.net/DTD/sodipodi-0.dtd"
   xmlns:inkscape="http://www.inkscape.org/namespaces/inkscape"
   width="900"
   height="744.09448"
   id="svg2"
   sodipodi:version="0.32"
   inkscape:version="0.47 r22583"
   version="1.0"
   sodipodi:docname="tortmobile.svg"
   inkscape:output_extension="org.inkscape.output.svg.inkscape">
  <defs
     id="defs4">
    <inkscape:perspective
       sodipodi:type="inkscape:persp3d"
       inkscape:vp_x="0 : 526.18109 : 1"
       inkscape:vp_y="0 : 1000 : 0"
       inkscape:vp_z="744.09448 : 526.18109 : 1"
       inkscape:persp3d-origin="372.04724 : 350.78739 : 1"
       id="perspective10" />
    <inkscape:perspective
       id="perspective12845"
       inkscape:persp3d-origin="0.5 : 0.33333333 : 1"
       inkscape:vp_z="1 : 0.5 : 1"
       inkscape:vp_y="0 : 1000 : 0"
       inkscape:vp_x="0 : 0.5 : 1"
       sodipodi:type="inkscape:persp3d" />
  </defs>
  <sodipodi:namedview
     id="base"
     pagecolor="#ffffff"
     bordercolor="#666666"
     borderopacity="1.0"
     gridtolerance="10000"
     guidetolerance="10"
     objecttolerance="10"
     inkscape:pageopacity="0.0"
     inkscape:pageshadow="2"
     inkscape:zoom="0.5"
     inkscape:cx="532.72967"
     inkscape:cy="351.97886"
     inkscape:document-units="px"
     inkscape:current-layer="layer1"
     showgrid="true"
     inkscape:object-nodes="true"
     inkscape:object-paths="true"
     inkscape:window-width="1440"
     inkscape:window-height="838"
     inkscape:window-x="-8"
     inkscape:window-y="-8"
     inkscape:window-maximized="0">
    <inkscape:grid
       type="xygrid"
       id="grid2383"
       visible="true"
       enabled="true" />
  </sodipodi:namedview>
  <metadata
     id="metadata7">
    <rdf:RDF>
      <cc:Work
         rdf:about="">
        <dc:format>image/svg+xml</dc:format>
        <dc:type
           rdf:resource="http://purl.org/dc/dcmitype/StillImage" />
      </cc:Work>
    </rdf:RDF>
  </metadata>
  <g
     inkscape:label="Layer 1"
     inkscape:groupmode="layer"
     id="layer1"
     style="display:inline">
    <path
       style="fill:#1a1a1a;fill-opacity:1;stroke:#000000;stroke-width:2.5;stroke-linecap:round;stroke-linejoin:bevel;stroke-miterlimit:4;stroke-opacity:1;stroke-dasharray:none"
       d="m 648.43506,418.15115 c -12.21465,0 -16.6607,3.65362 -27.15276,8.15117 l -27.25955,18.3708 -12.24394,21.94678 c -2.2074,6.80669 -3.40625,14.05456 -3.40625,21.59375 0,38.6676 31.3949,70.06251 70.0625,70.0625 0.28378,0 0.56076,-0.0279 0.84375,-0.0312 l 19.62818,4.03129 c 11.88212,-10.37183 9.65274,-5.70129 21.07877,-16.38748 14.29079,-12.82755 28.48055,-36.97462 28.48055,-57.67506 0,-38.6676 -31.36365,-70.06251 -70.03125,-70.0625 z"
       id="path3509"
       sodipodi:nodetypes="ccccsscccsc" />
    <path
       style="fill:#2b0000;fill-rule:evenodd;stroke:#000000;stroke-width:2.5;stroke-linecap:butt;stroke-linejoin:bevel;stroke-miterlimit:4;stroke-opacity:1;stroke-dasharray:none"
       d="m -20,584.09448 0,-100 160,-60 130,-20 329.11073,-0.14762 120,20 0,80 -80,80 L -20,584.09448 z"
       id="path3552"
       sodipodi:nodetypes="ccccccccc" />
    <path
       sodipodi:type="arc"
       style="fill:#333333;fill-opacity:1;stroke:#000000;stroke-width:3.56887937;stroke-linecap:round;stroke-linejoin:bevel;stroke-miterlimit:4;stroke-opacity:1;stroke-dasharray:none"
       id="path3500"
       sodipodi:cx="60"
       sodipodi:cy="624.09448"
       sodipodi:rx="100"
       sodipodi:ry="100"
       d="m 160,624.09448 a 100,100 0 1 1 -200,0 100,100 0 1 1 200,0 z"
       transform="matrix(0.7005,0,0,0.7005,595.2458,62.587462)" />
    <path
       style="fill:#550000;fill-rule:evenodd;stroke:#000000;stroke-width:2.5;stroke-linecap:butt;stroke-linejoin:bevel;stroke-miterlimit:4;stroke-opacity:1;stroke-dasharray:none"
       d="m 640,584.09448 80,-80 0,-80 -80,60 0,100 z"
       id="path3398"
       sodipodi:nodetypes="ccccc" />
    <path
       style="fill:#550000;fill-opacity:1;stroke:#000000;stroke-width:2.5;stroke-linecap:round;stroke-linejoin:bevel;stroke-miterlimit:4;stroke-opacity:1;stroke-dasharray:none;display:inline"
       d="m 140,424.09448 130,-20 -130,60 -160,20 160,-60 z"
       id="path3513"
       sodipodi:nodetypes="ccccc" />
    <path
       style="fill:#1a1a1a;fill-opacity:1;stroke:#000000;stroke-width:2.5;stroke-linecap:round;stroke-linejoin:bevel;stroke-miterlimit:4;stroke-opacity:1;stroke-dasharray:none"
       d="m 112.0625,484.03125 c -12.21465,0 -23.71759,3.1528 -33.71875,8.65625 -0.008,0.004 -0.0233,-0.004 -0.03125,0 l -0.125,0.0937 L 35.399996,521.61752 45.40625,532.5 C 43.198851,539.30669 42,546.55456 42,554.09375 c 0,38.6676 31.3949,70.06251 70.0625,70.0625 0.28378,0 0.56076,-0.0279 0.84375,-0.0312 l 9.69012,6.88066 c 11.88211,-10.37183 24.79011,-14.10072 36.21613,-24.78691 14.29079,-12.82755 23.28125,-31.42456 23.28125,-52.125 0,-38.6676 -31.36365,-70.06251 -70.03125,-70.0625 z"
       id="path3502"
       sodipodi:nodetypes="csccccsscccsc" />
    <path
       style="fill:#1a1a1a;fill-opacity:1;stroke:#000000;stroke-width:2.5;stroke-linecap:round;stroke-linejoin:bevel;stroke-miterlimit:4;stroke-opacity:1;stroke-dasharray:none"
       d="m 568.79565,485.03432 c -12.21465,0 -23.71758,3.1528 -33.71875,8.65625 -0.008,0.004 -0.0233,-0.004 -0.0312,0 l -0.125,0.0937 -42.7875,28.83627 10.00625,10.88248 c -2.2074,6.80669 -3.40625,14.05456 -3.40625,21.59375 0,38.6676 31.3949,70.06251 70.0625,70.0625 0.28379,0 0.56076,-0.0279 0.84375,-0.0312 l 9.69012,6.88066 c 11.88211,-10.37183 24.79011,-14.10072 36.21613,-24.78691 14.29079,-12.82755 23.28125,-31.42456 23.28125,-52.125 0,-38.6676 -31.36365,-70.06251 -70.03125,-70.0625 z"
       id="path3507"
       sodipodi:nodetypes="csccccsscccsc" />
    <path
       style="fill:none;stroke:#000000;stroke-width:2.5;stroke-linecap:butt;stroke-linejoin:bevel;stroke-miterlimit:4;stroke-opacity:1;stroke-dasharray:none"
       d="m -20,584.09448 0,-100 160,-60 130,-20 330,0 120,20 0,80 -80,80 -660,0 z"
       id="path3400"
       sodipodi:nodetypes="ccccccccc" />
    <path
       style="fill:#552200;fill-rule:evenodd;stroke:#000000;stroke-width:2.5;stroke-linecap:butt;stroke-linejoin:bevel;stroke-miterlimit:4;stroke-opacity:1;stroke-dasharray:none;display:inline"
       d="m 319.1381,464.09448 20,120 100,-100 -20,-80 -100,60 z"
       id="path3490"
       sodipodi:nodetypes="ccccc" />
    <path
       style="fill:#552200;fill-rule:evenodd;stroke:#000000;stroke-width:2.5;stroke-linecap:butt;stroke-linejoin:bevel;stroke-miterlimit:4;stroke-opacity:1;stroke-dasharray:none;display:inline"
       d="m 270,404.09448 -130,60 -20.8619,120 170.8619,-100 -20,-80 z"
       id="path3486"
       sodipodi:nodetypes="ccccc" />
    <path
       style="fill:#1a1a1a;fill-rule:evenodd;stroke:#000000;stroke-width:2.5;stroke-linecap:butt;stroke-linejoin:bevel;stroke-miterlimit:4;stroke-opacity:1;stroke-dasharray:none;display:inline"
       d="m 277.70953,464.09448 101.42857,-60 40,0 -100,60 -41.42857,0 z"
       id="path3488"
       sodipodi:nodetypes="ccccc" />
    <g
       id="g12937"
       transform="matrix(0.40697681,0,0,0.40697681,-4.947753,404.53387)">
      <path
         sodipodi:nodetypes="ccccc"
         id="path4587"
         d="m 911.5,200.20613 c 20,0 90,50 90,50 l 5,95 -40,-30 -55,-115 z"
         style="fill:#1a1a1a;fill-opacity:1;fill-rule:evenodd;stroke:none;display:inline" />
      <path
         inkscape:export-ydpi="90"
         inkscape:export-xdpi="90"
         inkscape:export-filename="C:\Users\Andrew\Desktop\rabbits.png"
         sodipodi:nodetypes="cccccccccccccccccccc"
         id="path4589"
         d="m 1036.5,-14.793918 -90,-80 70,-80.000002 20,-40 20,-20 120,0 -20,-60 20,-200 100,200 -40,80 20,40 70,70 -90,90.000002 0,40 100,99.999998 -100,-20 0,140.00005 80,160 -120,-20 -180,-140"
         style="fill:#1a1a1a;fill-opacity:1;fill-rule:evenodd;stroke:none;display:inline" />
      <path
         inkscape:export-ydpi="90"
         inkscape:export-xdpi="90"
         inkscape:export-filename="C:\Users\Andrew\Desktop\rabbits.png"
         sodipodi:nodetypes="ccccc"
         id="path4591"
         d="m 1076.5,-214.79392 40,-80 -100,-200 -20,200 40,80"
         style="fill:#1a1a1a;fill-opacity:1;fill-rule:evenodd;stroke:none;display:inline" />
      <path
         inkscape:export-ydpi="90"
         inkscape:export-xdpi="90"
         inkscape:export-filename="C:\Users\Andrew\Desktop\rabbits.png"
         sodipodi:nodetypes="csccccccc"
         id="path4593"
         d="m 1214.2684,-14.816938 c 0,0 19.7546,34.30127 19.7546,39.75461 0,60.98927 0,218.650358 0,218.650358 l -37.523,111.6181 -100,10 -40,-120 0,-220.000048 35,-34.9999996 122.7684,-5.0230204 z"
         style="fill:#f9f9f9;fill-opacity:1;fill-rule:evenodd;stroke:none;display:inline" />
      <path
         inkscape:export-ydpi="90"
         inkscape:export-xdpi="90"
         inkscape:export-filename="C:\Users\Andrew\Desktop\rabbits.png"
         sodipodi:nodetypes="ccccccccc"
         id="path4595"
         d="m 1056.5,25.206082 100,99.999998 -100,-20 0,140.00005 80,175 -140,-40 -30,-45 0,-275.000048 70,-75"
         style="fill:#1a1a1a;fill-opacity:1;fill-rule:evenodd;stroke:none;display:inline" />
      <g
         transform="matrix(-1,0,0,1,2056.5,-532.79392)"
         style="stroke:#f9f9f9;stroke-width:2.5;stroke-linejoin:round;stroke-miterlimit:4;stroke-opacity:1;stroke-dasharray:none;display:inline"
         id="g4597">
        <path
           style="fill:none;stroke:#f9f9f9;stroke-width:2.5;stroke-linecap:butt;stroke-linejoin:round;stroke-miterlimit:4;stroke-opacity:1;stroke-dasharray:none"
           d="m 855,350 c 0,0 8,-20 -2,-30"
           id="path4599"
           sodipodi:nodetypes="cs" />
        <path
           style="fill:none;stroke:#f9f9f9;stroke-width:2.5;stroke-linecap:butt;stroke-linejoin:round;stroke-miterlimit:4;stroke-opacity:1;stroke-dasharray:none"
           d="m 855,350 c 0,0 0,-17 -10,-27"
           id="path4601"
           sodipodi:nodetypes="cs" />
        <path
           style="fill:none;stroke:#f9f9f9;stroke-width:2.5;stroke-linecap:butt;stroke-linejoin:round;stroke-miterlimit:4;stroke-opacity:1;stroke-dasharray:none"
           d="m 840,328 c 0,0 10,7 15,22"
           id="path4603"
           sodipodi:nodetypes="cs" />
        <path
           style="fill:none;stroke:#f9f9f9;stroke-width:2.5;stroke-linecap:butt;stroke-linejoin:round;stroke-miterlimit:4;stroke-opacity:1;stroke-dasharray:none"
           d="m 837,336 c 0,0 8,-1 18,14"
           id="path4605"
           sodipodi:nodetypes="cs" />
      </g>
      <path
         id="path4607"
         d="m 1202.4176,-204.79392 c 6.4232,0 11.8991,7.98515 14.0824,19.21875 l -11.5649,10.78125 10.1881,16.1875 c -2.6875,8.30233 -7.3702,13.8125 -12.7056,13.8125 -8.338,0 -15.1051,-13.44 -15.1051,-30 0,-16.56 6.7671,-30 15.1051,-30 z"
         style="fill:#f9f9f9;fill-opacity:1;fill-rule:evenodd;stroke:none;display:inline" />
      <path
         sodipodi:nodetypes="csccccc"
         inkscape:export-ydpi="90"
         inkscape:export-xdpi="90"
         inkscape:export-filename="C:\Users\Andrew\Desktop\rabbits.png"
         id="path4609"
         d="m 1156.5,-74.793918 0,-20 0,20 40,0 -40,40 -40,-40 40,0 z"
         style="fill:#f5f5f5;fill-opacity:1;fill-rule:evenodd;stroke:none;display:inline" />
      <path
         inkscape:export-ydpi="90"
         inkscape:export-xdpi="90"
         inkscape:export-filename="C:\Users\Andrew\Desktop\rabbits.png"
         sodipodi:nodetypes="cccc"
         id="path4611"
         d="m 1176.5,-119.79392 -20,25.000002 -20,-25.000002 40,0 z"
         style="fill:#ffaaaa;fill-opacity:1;fill-rule:evenodd;stroke:none;display:inline" />
      <g
         transform="translate(254.5,-532.79392)"
         style="stroke:#f9f9f9;stroke-width:2.5;stroke-linejoin:round;stroke-miterlimit:4;stroke-opacity:1;stroke-dasharray:none;display:inline"
         id="g4613">
        <path
           style="fill:none;stroke:#f9f9f9;stroke-width:2.5;stroke-linecap:butt;stroke-linejoin:round;stroke-miterlimit:4;stroke-opacity:1;stroke-dasharray:none"
           d="m 855,350 c 0,0 8,-20 -2,-30"
           id="path4615"
           sodipodi:nodetypes="cs" />
        <path
           style="fill:none;stroke:#f9f9f9;stroke-width:2.5;stroke-linecap:butt;stroke-linejoin:round;stroke-miterlimit:4;stroke-opacity:1;stroke-dasharray:none"
           d="m 855,350 c 0,0 0,-17 -10,-27"
           id="path4617"
           sodipodi:nodetypes="cs" />
        <path
           style="fill:none;stroke:#f9f9f9;stroke-width:2.5;stroke-linecap:butt;stroke-linejoin:round;stroke-miterlimit:4;stroke-opacity:1;stroke-dasharray:none"
           d="m 840,328 c 0,0 10,7 15,22"
           id="path4619"
           sodipodi:nodetypes="cs" />
        <path
           style="fill:none;stroke:#f9f9f9;stroke-width:2.5;stroke-linecap:butt;stroke-linejoin:round;stroke-miterlimit:4;stroke-opacity:1;stroke-dasharray:none"
           d="m 837,336 c 0,0 8,-1 18,14"
           id="path4621"
           sodipodi:nodetypes="cs" />
      </g>
      <path
         id="path4623"
         d="m 1110.4877,-204.79392 c 7.3034,0 13.5298,7.98515 16.0123,19.21875 l -13.1498,10.78125 11.5844,16.1875 c -3.0559,8.30233 -8.3803,13.8125 -14.4469,13.8125 -9.4807,0 -17.1752,-13.44 -17.1752,-30 0,-16.56 7.6945,-30 17.1752,-30 z"
         style="fill:#f9f9f9;fill-opacity:1;fill-rule:evenodd;stroke:none;display:inline" />
      <path
         sodipodi:nodetypes="ccccccccccccccccccscccccccccccccccccccc"
         d="m 1076.5,-214.79392 40,-80 -100,-200 -20,200 40,80 -20,40 -70,80.000002 90,80 -70,75 0,275.000048 30,45 140,40 -80,-175 0,-140.00005 100,20 -100,-99.999998 35,-34.9999996 122.7684,-5.0230204 c 0,0 22.2546,35.3727 22.2546,40.82604 0,60.98927 0,219.721728 0,219.721728 l -40.023,109.4753 -85.9103,8.3211 -54.0897,-118.3211 m 30.263,-480.52594 89.737,0.52589 -20,-60 20,-200 100,200 -40,80 20,40 70,70 -90,90.000002 0,40 100,99.999998 -100,-20 0,140.00005 80,160 -120,-20 -34.6377,-26.6451"
         style="fill:none;stroke:#000000;stroke-width:5;stroke-linecap:butt;stroke-linejoin:miter;stroke-miterlimit:4;stroke-opacity:1;stroke-dasharray:none;display:inline"
         id="path4625" />
      <path
         sodipodi:nodetypes="cccc"
         id="path4627"
         d="m 911.5,200.20613 c 20,0 55,24.7461 55,24.7461 l 0,90.2539 -55,-115 z"
         style="fill:none;stroke:#000000;stroke-width:5;stroke-linecap:butt;stroke-linejoin:miter;stroke-miterlimit:4;stroke-opacity:1;stroke-dasharray:none;display:inline" />
      <path
         sodipodi:nodetypes="csccccc"
         inkscape:export-ydpi="90"
         inkscape:export-xdpi="90"
         inkscape:export-filename="C:\Users\Andrew\Desktop\rabbits.png"
         id="path4629"
         d="m 1156.5,-74.793918 0,-20 0,20 40,0 -40,40 -40,-40 40,0 z"
         style="fill:none;stroke:#000000;stroke-width:5;stroke-linecap:butt;stroke-linejoin:miter;stroke-miterlimit:4;stroke-opacity:1;stroke-dasharray:none;display:inline" />
      <g
         transform="matrix(1.2011058,0.07493319,-0.07322297,1.2291593,103.31431,-677.72906)"
         id="g4631"
         style="display:inline">
        <path
           sodipodi:nodetypes="cssssc"
           style="fill:#ffaaaa;fill-rule:evenodd;stroke:#000000;stroke-width:4.10742617;stroke-linecap:butt;stroke-linejoin:round;stroke-miterlimit:4;stroke-opacity:1;stroke-dasharray:none;display:inline"
           d="m 849.15015,287.46633 c 0,0 -8.89918,21.5735 -3.81164,27.64843 5.08755,6.07494 101.35329,-34.75358 109.51772,-31.79266 8.16443,2.96091 16.79325,29.91481 6.31041,30.45145 -3.28583,0.16821 -40.85299,-8.78221 -57.75224,-15.18588 -37.01469,-14.02608 -65.16365,-29.99143 -54.26425,-11.12134 z"
           id="path4633" />
        <path
           sodipodi:type="arc"
           style="fill:#ffaaaa;fill-opacity:1;stroke:#000000;stroke-width:7.56023645;stroke-linejoin:round;stroke-miterlimit:4;stroke-opacity:1;stroke-dasharray:none;display:inline"
           id="path4635"
           sodipodi:cx="553.99316"
           sodipodi:cy="234.06189"
           sodipodi:rx="32.67318"
           sodipodi:ry="28.672729"
           d="m 586.66634,234.06189 c 0,15.83551 -14.62828,28.67273 -32.67318,28.67273 -18.04489,0 -32.67318,-12.83722 -32.67318,-28.67273 0,-15.83551 14.62829,-28.67273 32.67318,-28.67273 18.0449,0 32.67318,12.83722 32.67318,28.67273 z"
           transform="matrix(0.6988555,-0.03577582,0.05962738,0.4193062,501.01555,220.39395)" />
      </g>
      <path
         inkscape:export-ydpi="90"
         inkscape:export-xdpi="90"
         inkscape:export-filename="C:\Users\Andrew\Desktop\rabbits.png"
         sodipodi:nodetypes="ccccc"
         id="path4637"
         d="m 1075.8223,-216.01722 40,-80 -100,-200 -20,200 64.0416,113.94113"
         style="fill:#1a1a1a;fill-opacity:1;fill-rule:evenodd;stroke:none;display:inline" />
      <path
         sodipodi:nodetypes="ccccc"
         id="path4639"
         d="m 1035.9636,-213.72115 -40.1413,-82.29607 20,-200 100.6777,201.2233 -40,80"
         style="fill:none;stroke:#000000;stroke-width:5;stroke-linecap:butt;stroke-linejoin:miter;stroke-miterlimit:4;stroke-opacity:1;stroke-dasharray:none;display:inline" />
    </g>
    <path
       style="opacity:0.32743363;fill:#e6e6e6;fill-rule:evenodd;stroke:none"
       d="m 457.97969,464.09448 100,-60.14761 L 520,324.09448 l -100,40 37.97969,100 z"
       id="path3402"
       sodipodi:nodetypes="ccccc" />
    <path
       style="fill:#550000;fill-opacity:1;stroke:#000000;stroke-width:2.5;stroke-linecap:round;stroke-linejoin:bevel;stroke-miterlimit:4;stroke-opacity:1;stroke-dasharray:none"
       d="m 519.51832,464.09448 -59.5726,-0.13569 99.8097,-59.86431 39.7629,0 120.48168,20 -80.50375,59.91604 -119.97793,-19.91604 z"
       id="path3517"
       sodipodi:nodetypes="ccccccc" />
    <g
       id="g3569"
       style="stroke-linejoin:bevel">
      <path
         sodipodi:nodetypes="ccccccc"
         id="path3396"
         d="m 640,584.09448 -660,0 0,-100 160,-20 380,0 120,20 0,100 z"
         style="fill:#800000;fill-rule:evenodd;stroke:#000000;stroke-width:2.5;stroke-linecap:butt;stroke-linejoin:bevel;stroke-miterlimit:4;stroke-opacity:1;stroke-dasharray:none" />
      <path
         transform="matrix(0.7005,0,0,0.7005,39.87025,136.81655)"
         d="m 160,624.09448 a 100,100 0 1 1 -200,0 100,100 0 1 1 200,0 z"
         sodipodi:ry="100"
         sodipodi:rx="100"
         sodipodi:cy="624.09448"
         sodipodi:cx="60"
         id="path3492"
         style="fill:#333333;fill-opacity:1;stroke:#000000;stroke-width:3.56887937;stroke-linecap:round;stroke-linejoin:bevel;stroke-miterlimit:4;stroke-opacity:1;stroke-dasharray:none"
         sodipodi:type="arc" />
      <path
         inkscape:transform-center-y="25.714283"
         inkscape:transform-center-x="280"
         transform="matrix(0.7005,0,0,0.7005,497.97,136.8663)"
         d="m 160,624.09448 a 100,100 0 1 1 -200,0 100,100 0 1 1 200,0 z"
         sodipodi:ry="100"
         sodipodi:rx="100"
         sodipodi:cy="624.09448"
         sodipodi:cx="60"
         id="path3498"
         style="fill:#333333;fill-opacity:1;stroke:#000000;stroke-width:3.56887937;stroke-linecap:round;stroke-linejoin:bevel;stroke-miterlimit:4;stroke-opacity:1;stroke-dasharray:none"
         sodipodi:type="arc" />
      <path
         id="path3480"
         d="m 459.1381,464.09448 0,120"
         style="fill:none;stroke:#000000;stroke-width:2.5;stroke-linecap:butt;stroke-linejoin:bevel;stroke-miterlimit:4;stroke-opacity:1;stroke-dasharray:none;display:inline" />
      <path
         id="path3482"
         d="m 319.73381,463.73705 0,120"
         style="fill:none;stroke:#000000;stroke-width:2.5;stroke-linecap:butt;stroke-linejoin:bevel;stroke-miterlimit:4;stroke-opacity:1;stroke-dasharray:none;display:inline" />
    </g>
    <path
       style="fill:none;stroke:#000000;stroke-width:3.75;stroke-linecap:butt;stroke-linejoin:bevel;stroke-miterlimit:4;stroke-opacity:1;stroke-dasharray:none"
       d="m 457.612,464.31563 100,-60.14761 -37.97969,-79.85239 -100,40 37.97969,100 z"
       id="path3554"
       sodipodi:nodetypes="ccccc" />
    <path
       style="fill:#f2f2f2;fill-rule:evenodd;stroke:#000000;stroke-width:2;stroke-linecap:butt;stroke-linejoin:bevel;stroke-miterlimit:4;stroke-opacity:1;stroke-dasharray:none"
       d="m 645,489.09448 25,-20 0,25 -25,20 0,-25 z"
       id="path3576" />
    <path
       style="fill:#f2f2f2;fill-rule:evenodd;stroke:#000000;stroke-width:2;stroke-linecap:butt;stroke-linejoin:bevel;stroke-miterlimit:4;stroke-opacity:1;stroke-dasharray:none"
       d="m 690,454.09448 25,-20 0,25 -25,20 0,-25 z"
       id="path3578" />
    <path
       sodipodi:type="arc"
       style="fill:#666666;fill-opacity:1;stroke:#000000;stroke-width:2;stroke-linecap:round;stroke-linejoin:bevel;stroke-miterlimit:4;stroke-opacity:1;stroke-dasharray:none"
       id="path3584"
       sodipodi:cx="80"
       sodipodi:cy="584.09448"
       sodipodi:rx="40"
       sodipodi:ry="40"
       d="m 120,584.09448 a 40,40 0 1 1 -80,0 40,40 0 1 1 80,0 z"
       transform="translate(0,-10)" />
    <path
       sodipodi:type="arc"
       style="fill:#666666;fill-opacity:1;stroke:#000000;stroke-width:2;stroke-linecap:round;stroke-linejoin:bevel;stroke-miterlimit:4;stroke-opacity:1;stroke-dasharray:none"
       id="path3586"
       sodipodi:cx="80"
       sodipodi:cy="584.09448"
       sodipodi:rx="40"
       sodipodi:ry="40"
       d="m 120,584.09448 a 40,40 0 1 1 -80,0 40,40 0 1 1 80,0 z"
       transform="translate(460,-10)" />
  </g>
  <g
     inkscape:groupmode="layer"
     id="layer2"
     style="display:inline" />
</svg>
