<?xml version="1.0" encoding="UTF-8" standalone="no"?>
<!-- Created with Inkscape (http://www.inkscape.org/) -->

<svg
   xmlns:dc="http://purl.org/dc/elements/1.1/"
   xmlns:cc="http://creativecommons.org/ns#"
   xmlns:rdf="http://www.w3.org/1999/02/22-rdf-syntax-ns#"
   xmlns:svg="http://www.w3.org/2000/svg"
   xmlns="http://www.w3.org/2000/svg"
   xmlns:sodipodi="http://sodipodi.sourceforge.net/DTD/sodipodi-0.dtd"
   xmlns:inkscape="http://www.inkscape.org/namespaces/inkscape"
   width="360"
   height="270"
   id="svg2939"
   version="1.1"
   inkscape:version="0.47 r22583"
   sodipodi:docname="twohappy.svg"
   inkscape:export-filename="C:\Users\Andrew\My Dropbox\LawLag\www\images\brbl.png"
   inkscape:export-xdpi="90"
   inkscape:export-ydpi="90">
  <defs
     id="defs2941">
    <inkscape:perspective
       sodipodi:type="inkscape:persp3d"
       inkscape:vp_x="0 : 526.18109 : 1"
       inkscape:vp_y="0 : 1000 : 0"
       inkscape:vp_z="744.09448 : 526.18109 : 1"
       inkscape:persp3d-origin="372.04724 : 350.78739 : 1"
       id="perspective2947" />
    <inkscape:perspective
       id="perspective2921"
       inkscape:persp3d-origin="0.5 : 0.33333333 : 1"
       inkscape:vp_z="1 : 0.5 : 1"
       inkscape:vp_y="0 : 1000 : 0"
       inkscape:vp_x="0 : 0.5 : 1"
       sodipodi:type="inkscape:persp3d" />
    <inkscape:perspective
       id="perspective3165"
       inkscape:persp3d-origin="0.5 : 0.33333333 : 1"
       inkscape:vp_z="1 : 0.5 : 1"
       inkscape:vp_y="0 : 1000 : 0"
       inkscape:vp_x="0 : 0.5 : 1"
       sodipodi:type="inkscape:persp3d" />
  </defs>
  <sodipodi:namedview
     id="base"
     pagecolor="#ffffff"
     bordercolor="#666666"
     borderopacity="1.0"
     inkscape:pageopacity="0.0"
     inkscape:pageshadow="2"
     inkscape:zoom="1.4"
     inkscape:cx="127.31868"
     inkscape:cy="214.91378"
     inkscape:document-units="px"
     inkscape:current-layer="layer1"
     showgrid="true"
     units="in"
     inkscape:window-width="1440"
     inkscape:window-height="838"
     inkscape:window-x="-8"
     inkscape:window-y="-8"
     inkscape:window-maximized="1">
    <inkscape:grid
       type="xygrid"
       id="grid3286"
       empspacing="5"
       visible="true"
       enabled="true"
       snapvisiblegridlinesonly="true" />
  </sodipodi:namedview>
  <metadata
     id="metadata2944">
    <rdf:RDF>
      <cc:Work
         rdf:about="">
        <dc:format>image/svg+xml</dc:format>
        <dc:type
           rdf:resource="http://purl.org/dc/dcmitype/StillImage" />
        <dc:title></dc:title>
      </cc:Work>
    </rdf:RDF>
  </metadata>
  <g
     inkscape:label="Layer 1"
     inkscape:groupmode="layer"
     id="layer1"
     transform="translate(0,-782.35975)">
    <rect
       style="fill:#ffffff;fill-opacity:1;stroke:none;stroke-width:2;stroke-miterlimit:4;stroke-opacity:1;stroke-dasharray:none"
       id="rect4148"
       width="360"
       height="270"
       x="0"
       y="0"
       transform="translate(0,782.35975)" />
    <g
       transform="matrix(-0.27413128,0,0,0.27413128,320.09657,782.43697)"
       style="display:inline"
       id="g2898">
      <g
         id="g2424" />
      <g
         id="g3299"
         transform="matrix(0.89988577,0,0,0.89988577,134.88978,102.44767)">
        <g
           style="stroke:none;display:inline"
           id="g23094">
          <path
             style="fill:#c87615;fill-opacity:1;fill-rule:evenodd;stroke:none"
             d="m 1130,730 c -20,0 -100,60 -100,60 l 0,100 40,-40 60,-120 z"
             id="path3204"
             sodipodi:nodetypes="ccccc" />
          <path
             style="fill:#c87615;fill-opacity:1;fill-rule:evenodd;stroke:none;display:inline"
             d="m 1020,520 80,-80 -60,-80 -20,-40 -20,-40 -110,0 10,-40 -20,-200 -100,200 40,80 -20,40 -60,70 80,90 0,40 -100,100 100,-20 0,140 -80,160 130,-40 150,-40"
             id="path3314"
             sodipodi:nodetypes="cccccccccccccccccccc"
             inkscape:export-filename="C:\Users\Andrew\Desktop\rabbits.png"
             inkscape:export-xdpi="90"
             inkscape:export-ydpi="90" />
          <path
             style="fill:#c87615;fill-opacity:1;fill-rule:evenodd;stroke:none;display:inline"
             d="m 970,300 -30,-60 100,-200 20,200 -40,80"
             id="path3316"
             sodipodi:nodetypes="ccccc"
             inkscape:export-filename="C:\Users\Andrew\Desktop\rabbits.png"
             inkscape:export-xdpi="90"
             inkscape:export-ydpi="90" />
          <path
             style="fill:#d38d5f;fill-opacity:1;fill-rule:evenodd;stroke:none;display:inline"
             d="m 840,520 c 0,0 -20,34.513 -20,40 0,61.36574 0,220 0,220 l 50,120 80,10 50,-110 0,-220 -30,-50 -130,-10 z"
             id="path3318"
             sodipodi:nodetypes="csccccccc"
             inkscape:export-filename="C:\Users\Andrew\Desktop\rabbits.png"
             inkscape:export-xdpi="90"
             inkscape:export-ydpi="90" />
          <path
             style="fill:#c87615;fill-opacity:1;fill-rule:evenodd;stroke:none;display:inline"
             d="m 1000,580 -90,90 90,-20 0,150 -80,160 150,-70 0,-290 -50,-80"
             id="path3320"
             sodipodi:nodetypes="cccccccc"
             inkscape:export-filename="C:\Users\Andrew\Desktop\rabbits.png"
             inkscape:export-xdpi="90"
             inkscape:export-ydpi="90" />
          <path
             sodipodi:type="arc"
             style="fill:#000000;fill-opacity:1;fill-rule:evenodd;stroke:none;display:inline"
             id="path3335"
             sodipodi:cx="230"
             sodipodi:cy="262.36218"
             sodipodi:rx="12"
             sodipodi:ry="30"
             d="m 242,262.36218 c 0,16.56855 -5.37258,30 -12,30 -6.62742,0 -12,-13.43145 -12,-30 0,-16.56854 5.37258,-30 12,-30 6.62742,0 12,13.43146 12,30 z"
             transform="matrix(0.8164868,0,0,1.0015947,662.45804,96.719429)"
             inkscape:export-filename="C:\Users\Andrew\Desktop\rabbits.png"
             inkscape:export-xdpi="90"
             inkscape:export-ydpi="90" />
          <path
             sodipodi:type="arc"
             style="fill:#000000;fill-opacity:1;fill-rule:evenodd;stroke:none;display:inline"
             id="path3337"
             sodipodi:cx="230"
             sodipodi:cy="262.36218"
             sodipodi:rx="12"
             sodipodi:ry="30"
             d="m 242,262.36218 c 0,16.56855 -5.37258,30 -12,30 -6.62742,0 -12,-13.43145 -12,-30 0,-16.56854 5.37258,-30 12,-30 6.62742,0 12,13.43146 12,30 z"
             transform="matrix(0.8164868,0,0,1.0015947,761.95804,97.719428)"
             inkscape:export-filename="C:\Users\Andrew\Desktop\rabbits.png"
             inkscape:export-xdpi="90"
             inkscape:export-ydpi="90" />
          <path
             style="fill:#000000;fill-opacity:1;fill-rule:evenodd;stroke:none"
             d="m 880,410 20,30 20,-30"
             id="path3339"
             sodipodi:nodetypes="ccc"
             inkscape:export-filename="C:\Users\Andrew\Desktop\rabbits.png"
             inkscape:export-xdpi="90"
             inkscape:export-ydpi="90" />
          <path
             style="fill:none;stroke:none"
             d="m 820,620 0,160 0,0"
             id="path3195"
             inkscape:export-filename="C:\Users\Andrew\Desktop\rabbits.png"
             inkscape:export-xdpi="90"
             inkscape:export-ydpi="90" />
        </g>
        <path
           sodipodi:nodetypes="ccccccccccccccccccccccccccccccccccccsccccccccccccc"
           d="m 1130,730 c -20,0 -60,35.71429 -60,35.71429 L 1070,850 1130,730 z M 960.12998,280 890,280 900,240 880,40 780,240 l 40,80 -20,40 -60,70 80,90 0,40 -100,100 100,-20 0,140 -80,160 130,-40 m 100,-600 -30,-60 100,-200 20,200 -40,80 20,40 60,80 -80,80 50,80 0,290 -150,70 80,-160 0,-150 -90,20 90,-90 -30,-50 -130,-10 c 0,0 -20,34.513 -20,40 0,61.36574 0,220 0,220 l 50,120 75,10 m -25,-500 -40,0 20,30 20,-30 z m -20,30 0,20 -40,20 40,-20 40,20 0,0"
           style="fill:none;stroke:#000000;stroke-width:5;stroke-linecap:butt;stroke-linejoin:miter;stroke-miterlimit:4;stroke-opacity:1;stroke-dasharray:none;display:inline"
           id="path5408" />
        <path
           inkscape:export-ydpi="90"
           inkscape:export-xdpi="90"
           inkscape:export-filename="C:\Users\Andrew\Desktop\rabbits.png"
           id="path3168-1"
           d="m 900,432 0,28 -40,20 40,20 40,-20 -40,-20 0,0"
           style="fill:#550000;fill-opacity:1;fill-rule:evenodd;stroke:#000000;stroke-width:5;stroke-linecap:butt;stroke-linejoin:miter;stroke-miterlimit:4;stroke-opacity:1;stroke-dasharray:none;display:inline"
           sodipodi:nodetypes="ccccccc" />
      </g>
    </g>
    <g
       id="g3257"
       transform="matrix(0.24566259,0,0,0.24566259,180.30238,803.80542)">
      <path
         sodipodi:nodetypes="ccccc"
         id="path3204-7"
         d="m 686.78571,770.47142 c -20,0 -90,50 -90,50 l -5,95 40,-30 55,-115 z"
         style="fill:#1a1a1a;fill-opacity:1;fill-rule:evenodd;stroke:none;display:inline" />
      <path
         inkscape:export-ydpi="90"
         inkscape:export-xdpi="90"
         inkscape:export-filename="C:\Users\Andrew\Desktop\rabbits.png"
         sodipodi:nodetypes="cccccccccccccccccccc"
         id="path3314-4"
         d="m 561.78571,555.47142 90,-80 -70,-80 -20,-40 -20,-20 -120,0 20,-60.00005 -20,-199.999995 -100,199.999995 40,80.00005 -20,40 -70,70 90,90 0,40 -100,100 100,-20 0,140 -80,160 120,-20 180,-140"
         style="fill:#1a1a1a;fill-opacity:1;fill-rule:evenodd;stroke:none;display:inline" />
      <path
         inkscape:export-ydpi="90"
         inkscape:export-xdpi="90"
         inkscape:export-filename="C:\Users\Andrew\Desktop\rabbits.png"
         sodipodi:nodetypes="ccccc"
         id="path3316-0"
         d="m 521.78571,355.47142 -40,-80.00005 100,-199.999995 20,199.999995 -40,80.00005"
         style="fill:#1a1a1a;fill-opacity:1;fill-rule:evenodd;stroke:none;display:inline" />
      <path
         inkscape:export-ydpi="90"
         inkscape:export-xdpi="90"
         inkscape:export-filename="C:\Users\Andrew\Desktop\rabbits.png"
         sodipodi:nodetypes="csccccccc"
         id="path3318-9"
         d="m 384.0173,555.44832 c 0,0 -19.75461,34.3013 -19.75461,39.7546 0,60.9893 0,218.6504 0,218.6504 l 37.52302,111.6181 100,10 40,-120 0,-220 -35,-35 -122.76841,-5.0231 z"
         style="fill:#f9f9f9;fill-opacity:1;fill-rule:evenodd;stroke:none;display:inline" />
      <path
         inkscape:export-ydpi="90"
         inkscape:export-xdpi="90"
         inkscape:export-filename="C:\Users\Andrew\Desktop\rabbits.png"
         sodipodi:nodetypes="ccccccccc"
         id="path3320-4"
         d="m 541.78571,595.47142 -100,100 100,-20 0,140 -80,175 140,-40 30,-45 0,-275 -70,-75"
         style="fill:#1a1a1a;fill-opacity:1;fill-rule:evenodd;stroke:none;display:inline" />
      <g
         transform="translate(-458.21433,37.471375)"
         style="stroke:#f9f9f9;stroke-width:2.5;stroke-linejoin:round;stroke-miterlimit:4;stroke-opacity:1;stroke-dasharray:none;display:inline"
         id="g3307">
        <path
           style="fill:none;stroke:#f9f9f9;stroke-width:2.5;stroke-linecap:butt;stroke-linejoin:round;stroke-miterlimit:4;stroke-opacity:1;stroke-dasharray:none"
           d="m 855,350 c 0,0 8,-20 -2,-30"
           id="path3295"
           sodipodi:nodetypes="cs" />
        <path
           style="fill:none;stroke:#f9f9f9;stroke-width:2.5;stroke-linecap:butt;stroke-linejoin:round;stroke-miterlimit:4;stroke-opacity:1;stroke-dasharray:none"
           d="m 855,350 c 0,0 0,-17 -10,-27"
           id="path3301"
           sodipodi:nodetypes="cs" />
        <path
           style="fill:none;stroke:#f9f9f9;stroke-width:2.5;stroke-linecap:butt;stroke-linejoin:round;stroke-miterlimit:4;stroke-opacity:1;stroke-dasharray:none"
           d="m 840,328 c 0,0 10,7 15,22"
           id="path3303"
           sodipodi:nodetypes="cs" />
        <path
           style="fill:none;stroke:#f9f9f9;stroke-width:2.5;stroke-linecap:butt;stroke-linejoin:round;stroke-miterlimit:4;stroke-opacity:1;stroke-dasharray:none"
           d="m 837,336 c 0,0 8,-1 18,14"
           id="path3305"
           sodipodi:nodetypes="cs" />
      </g>
      <path
         id="path3335-8"
         d="m 395.86809,365.47142 c -6.42313,0 -11.8991,7.98511 -14.08238,19.2187 l 11.56486,10.7813 -10.18809,16.1875 c 2.68751,8.30231 7.37019,13.8125 12.70561,13.8125 8.33803,0 15.10512,-13.44 15.10512,-30 0,-16.56 -6.76709,-30 -15.10512,-30 z"
         style="fill:#f9f9f9;fill-opacity:1;fill-rule:evenodd;stroke:none;display:inline" />
      <path
         sodipodi:nodetypes="csccccc"
         inkscape:export-ydpi="90"
         inkscape:export-xdpi="90"
         inkscape:export-filename="C:\Users\Andrew\Desktop\rabbits.png"
         id="path3341"
         d="m 441.78571,495.47142 0,-20 0,20 -40,0 40,40 40,-40 -40,0 z"
         style="fill:#f5f5f5;fill-opacity:1;fill-rule:evenodd;stroke:none;display:inline" />
      <path
         inkscape:export-ydpi="90"
         inkscape:export-xdpi="90"
         inkscape:export-filename="C:\Users\Andrew\Desktop\rabbits.png"
         sodipodi:nodetypes="cccc"
         id="path3339-8"
         d="m 421.78571,450.47142 20,25 20,-25 -40,0 z"
         style="fill:#ffaaaa;fill-opacity:1;fill-rule:evenodd;stroke:none;display:inline" />
      <g
         transform="matrix(-1,0,0,1,1343.7857,37.471375)"
         style="stroke:#f9f9f9;stroke-width:2.5;stroke-linejoin:round;stroke-miterlimit:4;stroke-opacity:1;stroke-dasharray:none;display:inline"
         id="g3313">
        <path
           style="fill:none;stroke:#f9f9f9;stroke-width:2.5;stroke-linecap:butt;stroke-linejoin:round;stroke-miterlimit:4;stroke-opacity:1;stroke-dasharray:none"
           d="m 855,350 c 0,0 8,-20 -2,-30"
           id="path3315"
           sodipodi:nodetypes="cs" />
        <path
           style="fill:none;stroke:#f9f9f9;stroke-width:2.5;stroke-linecap:butt;stroke-linejoin:round;stroke-miterlimit:4;stroke-opacity:1;stroke-dasharray:none"
           d="m 855,350 c 0,0 0,-17 -10,-27"
           id="path3317"
           sodipodi:nodetypes="cs" />
        <path
           style="fill:none;stroke:#f9f9f9;stroke-width:2.5;stroke-linecap:butt;stroke-linejoin:round;stroke-miterlimit:4;stroke-opacity:1;stroke-dasharray:none"
           d="m 840,328 c 0,0 10,7 15,22"
           id="path3319"
           sodipodi:nodetypes="cs" />
        <path
           style="fill:none;stroke:#f9f9f9;stroke-width:2.5;stroke-linecap:butt;stroke-linejoin:round;stroke-miterlimit:4;stroke-opacity:1;stroke-dasharray:none"
           d="m 837,336 c 0,0 8,-1 18,14"
           id="path3321"
           sodipodi:nodetypes="cs" />
      </g>
      <path
         id="path13233"
         d="m 487.79801,365.47142 c -7.30338,0 -13.52981,7.98511 -16.0123,19.2187 l 13.14976,10.7813 -11.58431,16.1875 c 3.05582,8.30231 8.38024,13.8125 14.44685,13.8125 9.48071,0 17.1752,-13.44 17.1752,-30 0,-16.56 -7.69449,-30 -17.1752,-30 z"
         style="fill:#f9f9f9;fill-opacity:1;fill-rule:evenodd;stroke:none;display:inline" />
      <path
         sodipodi:nodetypes="ccccccccccccccccccscccccccccccccccccccc"
         d="m 521.78571,355.47142 -40,-80.00005 100,-199.999995 20,199.999995 -40,80.00005 20,40 70,80 -90,80 70,75 0,275 -30,45 -140,40 80,-175 0,-140 -100,20 100,-100 -35,-35 -122.76841,-5.0231 c 0,0 -22.25461,35.3727 -22.25461,40.8261 0,60.9892 0,219.7217 0,219.7217 l 40.02302,109.4753 85.91033,8.3211 54.08967,-118.3211 m -30.26295,-480.52589 -89.73705,0.5259 20,-60.00005 -20,-200.000005 -100,200.000005 40,80.00005 -20,40 -70,70 90,90 0,40 -100,100 100,-20 0,140 -80,160 120,-20 34.63766,-26.6451"
         style="fill:none;stroke:#000000;stroke-width:5;stroke-linecap:butt;stroke-linejoin:miter;stroke-miterlimit:4;stroke-opacity:1;stroke-dasharray:none;display:inline"
         id="path5430" />
      <path
         sodipodi:nodetypes="cccc"
         id="path5428"
         d="m 686.78571,770.47142 c -20,0 -55,24.74611 -55,24.74611 l 0,90.25389 55,-115 z"
         style="fill:none;stroke:#000000;stroke-width:5;stroke-linecap:butt;stroke-linejoin:miter;stroke-miterlimit:4;stroke-opacity:1;stroke-dasharray:none;display:inline" />
      <path
         sodipodi:nodetypes="csccccc"
         inkscape:export-ydpi="90"
         inkscape:export-xdpi="90"
         inkscape:export-filename="C:\Users\Andrew\Desktop\rabbits.png"
         id="path5440"
         d="m 441.78571,495.47142 0,-20 0,20 -40,0 40,40 40,-40 -40,0 z"
         style="fill:none;stroke:#000000;stroke-width:5;stroke-linecap:butt;stroke-linejoin:miter;stroke-miterlimit:4;stroke-opacity:1;stroke-dasharray:none;display:inline" />
      <g
         transform="matrix(1.2011058,0.07493319,-0.07322297,1.2291593,-611.68156,-107.46376)"
         id="g3348"
         style="display:inline">
        <path
           sodipodi:nodetypes="cssssc"
           style="fill:#ffaaaa;fill-rule:evenodd;stroke:#000000;stroke-width:4.10742617;stroke-linecap:butt;stroke-linejoin:round;stroke-miterlimit:4;stroke-opacity:1;stroke-dasharray:none;display:inline"
           d="m 849.15015,287.46633 c 0,0 -8.89918,21.5735 -3.81164,27.64843 5.08755,6.07494 101.35329,-34.75358 109.51772,-31.79266 8.16443,2.96091 16.79325,29.91481 6.31041,30.45145 -3.28583,0.16821 -40.85299,-8.78221 -57.75224,-15.18588 -37.01469,-14.02608 -65.16365,-29.99143 -54.26425,-11.12134 z"
           id="path3282" />
        <path
           sodipodi:type="arc"
           style="fill:#ffaaaa;fill-opacity:1;stroke:#000000;stroke-width:7.56023645;stroke-linejoin:round;stroke-miterlimit:4;stroke-opacity:1;stroke-dasharray:none;display:inline"
           id="path3284"
           sodipodi:cx="553.99316"
           sodipodi:cy="234.06189"
           sodipodi:rx="32.67318"
           sodipodi:ry="28.672729"
           d="m 586.66634,234.06189 c 0,15.83551 -14.62828,28.67273 -32.67318,28.67273 -18.04489,0 -32.67318,-12.83722 -32.67318,-28.67273 0,-15.83551 14.62829,-28.67273 32.67318,-28.67273 18.0449,0 32.67318,12.83722 32.67318,28.67273 z"
           transform="matrix(0.6988555,-0.03577582,0.05962738,0.4193062,501.01555,220.39395)" />
      </g>
      <path
         inkscape:export-ydpi="90"
         inkscape:export-xdpi="90"
         inkscape:export-filename="C:\Users\Andrew\Desktop\rabbits.png"
         sodipodi:nodetypes="ccccc"
         id="path3352"
         d="m 522.46338,354.24812 -40,-80.00005 100.00003,-199.999995 20,199.999995 -64.04163,113.94115"
         style="fill:#1a1a1a;fill-opacity:1;fill-rule:evenodd;stroke:none;display:inline" />
      <path
         sodipodi:nodetypes="ccccc"
         id="path3356"
         d="m 562.32211,356.54412 40.1413,-82.29605 -20,-199.999995 -100.6777,201.223295 40,80.00005"
         style="fill:none;stroke:#000000;stroke-width:5;stroke-linecap:butt;stroke-linejoin:miter;stroke-miterlimit:4;stroke-opacity:1;stroke-dasharray:none;display:inline" />
    </g>
  </g>
</svg>
